<svg width="170" height="170" viewBox="0 0 170 170" fill="none" xmlns="http://www.w3.org/2000/svg">
<g filter="url(#filter0_d_1411_11041)">
<rect x="4" width="162.656" height="162.656" fill="white"/>
<rect x="4.40664" y="0.406639" width="161.842" height="161.842" stroke="#3C3934" stroke-width="0.813278"/>
</g>
<path d="M61.19 79.9539H63.0773V81.8883H64.9646V83.8227H66.8518V85.757H68.7391V87.6914H70.6264V89.6258V91.5601V93.4945H68.7391V95.4289V97.3731V99.3075H66.8518V101.242V103.176V105.111V107.045H68.7391V108.979H70.6264H72.5137V107.045H74.401H76.2979V105.111H78.1852H80.0725V103.176H81.9597H83.847V101.242H85.7343H87.6215V103.176H89.5088H91.3961V105.111H93.2834H95.1707V107.045H97.058H98.9549V108.979H100.842H102.729V107.045H104.617V105.111V103.176V101.242V99.3075H102.729V97.3731V95.4289V93.4945H100.842V91.5601V89.6258V87.6914H102.729V85.757H104.617V83.8227H106.504V81.8883H108.391V79.9539H110.279V78.0196H112.166V76.0852V74.1509H110.279V72.2066H108.391H106.504H104.617V70.2723H102.729H100.842H98.9549V68.3379H97.058H95.1707V66.4036H93.2834V64.4692V62.5349H91.3961V60.6005V58.6662H89.5088V56.7318V54.7974H87.6215V52.8631H85.7343H83.847V54.7974H81.9597V56.7318V58.6662H80.0725V60.6005V62.5349H78.1852V64.4692V66.4036H76.2979V68.3379H74.401H72.5137V70.2723H70.6264H68.7391H66.8518V72.2066H64.9646H63.0773H61.19V74.1509H59.3027V76.0852V78.0196H61.19V79.9539ZM89.5088 64.4692V66.4036H91.3961V68.3379H93.2834V70.2723H95.1707V72.2066H97.058H98.9549V74.1509H97.058H95.1707V72.2066H93.2834V70.2723H91.3961V68.3379H89.5088V66.4036H87.6215V64.4692V62.5349H89.5088V64.4692Z" fill="#F6C715"/>
<defs>
<filter id="filter0_d_1411_11041" x="0.746888" y="0" width="169.162" height="169.162" filterUnits="userSpaceOnUse" color-interpolation-filters="sRGB">
<feFlood flood-opacity="0" result="BackgroundImageFix"/>
<feColorMatrix in="SourceAlpha" type="matrix" values="0 0 0 0 0 0 0 0 0 0 0 0 0 0 0 0 0 0 127 0" result="hardAlpha"/>
<feOffset dy="3.25311"/>
<feGaussianBlur stdDeviation="1.62656"/>
<feComposite in2="hardAlpha" operator="out"/>
<feColorMatrix type="matrix" values="0 0 0 0 0 0 0 0 0 0 0 0 0 0 0 0 0 0 0.25 0"/>
<feBlend mode="normal" in2="BackgroundImageFix" result="effect1_dropShadow_1411_11041"/>
<feBlend mode="normal" in="SourceGraphic" in2="effect1_dropShadow_1411_11041" result="shape"/>
</filter>
</defs>
</svg>
