<svg width="216" height="60" viewBox="0 0 216 60" fill="none" xmlns="http://www.w3.org/2000/svg">
<g clip-path="url(#clip0_468_4993)">
<rect width="216" height="60" rx="10" fill="#F88125"/>
<path d="M58.9556 28.4206L56.1558 28.4267C56.1039 28.0646 55.9988 27.7431 55.8405 27.4622C55.6822 27.177 55.4793 26.9346 55.2317 26.7348C54.9841 26.5351 54.6983 26.3823 54.3742 26.2764C54.0543 26.1706 53.7069 26.1181 53.3319 26.1189C52.6544 26.1204 52.0645 26.29 51.5624 26.6277C51.0603 26.9612 50.6715 27.4478 50.3959 28.0876C50.1203 28.7232 49.9834 29.4948 49.9854 30.4025C49.9874 31.3357 50.1276 32.1195 50.406 32.7538C50.6886 33.3882 51.0817 33.8667 51.5853 34.1895C52.0888 34.5122 52.6708 34.6729 53.3313 34.6715C53.7021 34.6707 54.045 34.6209 54.3601 34.5222C54.6795 34.4235 54.9626 34.2802 55.2093 34.0921C55.4561 33.8998 55.6601 33.6671 55.8215 33.3941C55.9871 33.121 56.1014 32.8096 56.1646 32.4601L58.9643 32.4668C58.8932 33.0678 58.7134 33.6477 58.4248 34.2066C58.1405 34.7612 57.7559 35.2585 57.2711 35.6984C56.7905 36.1341 56.216 36.4806 55.5475 36.7377C54.8833 36.9906 54.1314 37.1179 53.2919 37.1197C52.1243 37.1223 51.0797 36.8603 50.1581 36.3339C49.2408 35.8075 48.5147 35.0442 47.9798 34.0439C47.4492 33.0436 47.1824 31.8319 47.1793 30.4086C47.1762 28.981 47.442 27.7659 47.9768 26.7634C48.5115 25.7608 49.2386 24.9964 50.1579 24.4703C51.0772 23.9398 52.1121 23.6734 53.2627 23.6709C54.0212 23.6692 54.7246 23.7743 55.3728 23.9859C56.0252 24.1976 56.6033 24.5074 57.107 24.9154C57.6107 25.3191 58.0209 25.8147 58.3375 26.4021C58.6584 26.9894 58.8644 27.6623 58.9556 28.4206ZM60.9076 36.9242L60.8863 27.106L63.5262 27.1003L63.5299 28.8134L63.6322 28.8132C63.8099 28.2034 64.1093 27.7425 64.5305 27.4305C64.9517 27.1143 65.4371 26.9555 65.9868 26.9543C66.1232 26.954 66.2702 26.9622 66.4279 26.9789C66.5856 26.9957 66.7242 27.0188 66.8436 27.0484L66.8488 29.4645C66.7209 29.4265 66.544 29.3928 66.3181 29.3634C66.0921 29.3341 65.8854 29.3196 65.6979 29.32C65.2974 29.3209 64.9396 29.409 64.6246 29.5844C64.3139 29.7556 64.0673 29.9947 63.8847 30.302C63.7064 30.6092 63.6177 30.963 63.6186 31.3636L63.6306 36.9183L60.9076 36.9242ZM72.2907 37.0912C71.2807 37.0934 70.411 36.8908 69.6814 36.4833C68.956 36.0715 68.3965 35.4889 68.0029 34.7355C67.6092 33.9778 67.4112 33.0812 67.4089 32.0457C67.4067 31.0358 67.6008 30.149 67.9912 29.3854C68.3816 28.6217 68.9322 28.0261 69.6429 27.5984C70.3579 27.1707 71.1969 26.9558 72.16 26.9537C72.8077 26.9523 73.4109 27.0554 73.9696 27.263C74.5325 27.4663 75.0233 27.7742 75.4418 28.1866C75.8645 28.5991 76.1938 29.1182 76.4295 29.7442C76.6653 30.3658 76.784 31.0942 76.7858 31.9295L76.7875 32.6773L68.497 32.6953L68.4933 31.0079L74.2206 30.9954C74.2197 30.6034 74.1338 30.2562 73.9626 29.9541C73.7915 29.6519 73.5545 29.4159 73.2516 29.2461C72.9529 29.072 72.6054 28.9854 72.2091 28.9863C71.7958 28.9872 71.4295 29.0839 71.1103 29.2763C70.7954 29.4645 70.5488 29.7186 70.3705 30.0386C70.1922 30.3543 70.1013 30.7061 70.0979 31.0939L70.1014 32.6983C70.1025 33.184 70.1929 33.6036 70.3726 33.9569C70.5566 34.3102 70.815 34.5824 71.1478 34.7734C71.4806 34.9644 71.875 35.0595 72.331 35.0585C72.6335 35.0578 72.9104 35.0146 73.1617 34.9288C73.4129 34.8431 73.6278 34.7147 73.8064 34.5439C73.985 34.3731 74.1209 34.164 74.2142 33.9166L76.733 34.0773C76.6065 34.6827 76.3455 35.2117 75.9502 35.6642C75.5591 36.1125 75.0528 36.4631 74.4312 36.7158C73.8138 36.9643 73.1003 37.0895 72.2907 37.0912ZM81.3737 37.0651C80.7473 37.0665 80.1888 36.959 79.6983 36.7428C79.2078 36.5222 78.8193 36.1971 78.5328 35.7673C78.2506 35.3333 78.1088 34.7924 78.1074 34.1446C78.1062 33.5992 78.2054 33.1409 78.4049 32.7697C78.6043 32.3985 78.8764 32.0996 79.2211 31.873C79.5658 31.6464 79.9574 31.4751 80.3961 31.3591C80.839 31.2431 81.3034 31.1611 81.7891 31.1132C82.3599 31.0523 82.82 30.9959 83.1694 30.944C83.5187 30.8878 83.7721 30.8063 83.9295 30.6995C84.0869 30.5926 84.1654 30.4347 84.165 30.2259L84.1649 30.1876C84.164 29.7828 84.0355 29.4698 83.7793 29.2488C83.5274 29.0277 83.1692 28.9177 82.7047 28.9187C82.2147 28.9198 81.825 29.0293 81.5357 29.2473C81.2464 29.461 81.0552 29.7298 80.9622 30.0539L78.4433 29.8548C78.5698 29.258 78.8201 28.7418 79.1942 28.3063C79.5682 27.8666 80.0511 27.5289 80.643 27.2932C81.239 27.0533 81.9291 26.9325 82.7132 26.9308C83.2587 26.9296 83.7808 26.9924 84.2797 27.1191C84.7828 27.2459 85.2285 27.4431 85.6169 27.7107C86.0095 27.9783 86.3192 28.3228 86.546 28.7442C86.7727 29.1613 86.8868 29.6618 86.888 30.2456L86.9024 36.8677L84.32 36.8733L84.3171 35.5118L84.2404 35.512C84.0834 35.8192 83.873 36.0902 83.6093 36.3252C83.3456 36.5559 83.0285 36.7376 82.6581 36.8706C82.2876 36.9992 81.8595 37.0641 81.3737 37.0651ZM82.1495 35.1842C82.55 35.1833 82.9035 35.1037 83.21 34.9453C83.5165 34.7827 83.7568 34.5649 83.9309 34.2918C84.105 34.0187 84.1917 33.7095 84.191 33.3644L84.1887 32.3225C84.1036 32.3781 83.9865 32.4294 83.8375 32.4766C83.6927 32.5196 83.5287 32.5604 83.3455 32.5992C83.1624 32.6337 82.9792 32.666 82.796 32.6962C82.6129 32.7222 82.4467 32.746 82.2976 32.7676C81.9781 32.8152 81.6992 32.8904 81.4607 32.9932C81.2223 33.096 81.0373 33.2349 80.9055 33.4099C80.7738 33.5806 80.7082 33.7938 80.7088 34.0495C80.7096 34.4202 80.8444 34.7033 81.1133 34.8988C81.3865 35.0899 81.7318 35.1851 82.1495 35.1842ZM94.2159 27.0336L94.2204 29.0791L88.3078 29.0919L88.3033 27.0465L94.2159 27.0336ZM89.6405 24.6913L92.3635 24.6854L92.3834 33.8388C92.384 34.0902 92.4227 34.2861 92.4998 34.4266C92.5768 34.5628 92.6835 34.6584 92.82 34.7135C92.9607 34.7686 93.1227 34.796 93.306 34.7956C93.4338 34.7953 93.5616 34.7844 93.6894 34.7628C93.8172 34.7369 93.9152 34.7175 93.9833 34.7046L94.416 36.73C94.2797 36.7729 94.0881 36.8223 93.841 36.8782C93.594 36.9384 93.2936 36.9753 92.94 36.9888C92.2838 37.0158 91.7083 36.9297 91.2136 36.7305C90.7231 36.5313 90.341 36.2211 90.0674 35.7998C89.7937 35.3785 89.6583 34.8461 89.6612 34.2026L89.6405 24.6913ZM100.38 37.0302C99.3705 37.0324 98.5007 36.8297 97.7711 36.4222C97.0458 36.0105 96.4863 35.4279 96.0926 34.6745C95.6989 33.9168 95.501 33.0202 95.4987 31.9847C95.4965 30.9748 95.6906 30.088 96.081 29.3243C96.4714 28.5607 97.0219 27.965 97.7327 27.5374C98.4476 27.1097 99.2867 26.8948 100.25 26.8927C100.897 26.8913 101.501 26.9944 102.059 27.202C102.622 27.4053 103.113 27.7132 103.532 28.1256C103.954 28.538 104.284 29.0572 104.519 29.6831C104.755 30.3048 104.874 31.0332 104.876 31.8684L104.877 32.6163L96.5868 32.6343L96.5831 30.9468L102.31 30.9344C102.31 30.5423 102.224 30.1952 102.052 29.893C101.881 29.5908 101.644 29.3549 101.341 29.1851C101.043 29.011 100.695 28.9244 100.299 28.9253C99.8855 28.9261 99.5193 29.0228 99.2001 29.2153C98.8852 29.4035 98.6386 29.6576 98.4603 29.9775C98.282 30.2933 98.1911 30.645 98.1877 31.0328L98.1912 32.6372C98.1922 33.123 98.2826 33.5426 98.4624 33.8959C98.6464 34.2492 98.9048 34.5213 99.2376 34.7124C99.5704 34.9034 99.9648 34.9984 100.421 34.9974C100.723 34.9968 101 34.9536 101.251 34.8678C101.503 34.782 101.718 34.6537 101.896 34.4829C102.075 34.312 102.211 34.1029 102.304 33.8556L104.823 34.0163C104.696 34.6217 104.435 35.1507 104.04 35.6032C103.649 36.0515 103.143 36.402 102.521 36.6548C101.904 36.9033 101.19 37.0284 100.38 37.0302ZM113.629 36.995C113.003 36.9964 112.445 36.8889 111.954 36.6727C111.464 36.4521 111.075 36.127 110.789 35.6972C110.506 35.2632 110.365 34.7223 110.363 34.0746C110.362 33.5291 110.461 33.0708 110.661 32.6996C110.86 32.3285 111.132 32.0296 111.477 31.803C111.822 31.5764 112.213 31.4051 112.652 31.289C113.095 31.173 113.559 31.091 114.045 31.0431C114.616 30.9822 115.076 30.9258 115.425 30.8739C115.774 30.8178 116.028 30.7363 116.185 30.6294C116.343 30.5225 116.421 30.3647 116.421 30.1559L116.421 30.1175C116.42 29.7127 116.291 29.3997 116.035 29.1787C115.783 28.9577 115.425 28.8476 114.961 28.8487C114.47 28.8497 114.081 28.9592 113.791 29.1772C113.502 29.3909 113.311 29.6598 113.218 29.9838L110.699 29.7848C110.826 29.1879 111.076 28.6717 111.45 28.2363C111.824 27.7965 112.307 27.4588 112.899 27.2232C113.495 26.9832 114.185 26.8624 114.969 26.8607C115.514 26.8595 116.037 26.9223 116.535 27.0491C117.039 27.1758 117.484 27.373 117.873 27.6406C118.265 27.9082 118.575 28.2527 118.802 28.6741C119.029 29.0912 119.143 29.5917 119.144 30.1755L119.158 36.7976L116.576 36.8033L116.573 35.4418L116.496 35.4419C116.339 35.7491 116.129 36.0201 115.865 36.2551C115.601 36.4858 115.284 36.6676 114.914 36.8005C114.543 36.9291 114.115 36.994 113.629 36.995ZM114.405 35.1141C114.806 35.1132 115.159 35.0336 115.466 34.8753C115.772 34.7127 116.013 34.4948 116.187 34.2217C116.361 33.9486 116.447 33.6395 116.447 33.2943L116.444 32.2524C116.359 32.308 116.242 32.3594 116.093 32.4066C115.948 32.4495 115.784 32.4903 115.601 32.5291C115.418 32.5636 115.235 32.5959 115.052 32.6262C114.869 32.6521 114.703 32.6759 114.553 32.6976C114.234 32.7451 113.955 32.8203 113.717 32.9231C113.478 33.0259 113.293 33.1648 113.161 33.3398C113.03 33.5105 112.964 33.7237 112.965 33.9794C112.965 34.3502 113.1 34.6332 113.369 34.8287C113.642 35.0199 113.988 35.115 114.405 35.1141ZM125.488 36.7839L125.459 23.693L130.701 23.6816C131.664 23.6795 132.468 23.8205 133.112 24.1047C133.756 24.3888 134.24 24.784 134.565 25.2904C134.89 25.7926 135.053 26.3718 135.055 27.028C135.056 27.5394 134.955 27.9892 134.751 28.3774C134.547 28.7614 134.267 29.0773 133.909 29.3252C133.556 29.5689 133.152 29.7424 132.696 29.8456L132.696 29.9735C133.195 29.9937 133.662 30.1333 134.097 30.3923C134.536 30.6513 134.893 31.0149 135.167 31.483C135.44 31.9469 135.578 32.5006 135.579 33.1441C135.581 33.8387 135.41 34.4591 135.066 35.0053C134.726 35.5472 134.222 35.9766 133.554 36.2934C132.885 36.6102 132.061 36.7696 131.081 36.7717L125.488 36.7839ZM128.251 34.5151L130.507 34.5102C131.278 34.5085 131.841 34.3603 132.194 34.0655C132.547 33.7664 132.723 33.3697 132.722 32.8754C132.721 32.5132 132.633 32.1938 132.457 31.9172C132.282 31.6406 132.032 31.4238 131.708 31.2668C131.388 31.1098 131.007 31.0318 130.563 31.0328L128.243 31.0378L128.251 34.5151ZM128.239 29.165L130.291 29.1605C130.67 29.1597 131.007 29.0929 131.3 28.9602C131.598 28.8232 131.832 28.6309 132.002 28.3834C132.177 28.1358 132.263 27.8395 132.262 27.4943C132.261 27.0213 132.092 26.6403 131.755 26.3512C131.422 26.0622 130.949 25.9183 130.335 25.9196L128.232 25.9242L128.239 29.165ZM141.774 36.9403C140.781 36.9424 139.922 36.7334 139.196 36.3131C138.475 35.8885 137.918 35.2974 137.524 34.5397C137.13 33.7778 136.932 32.894 136.93 31.8883C136.928 30.8741 137.122 29.9873 137.513 29.2279C137.903 28.4643 138.458 27.8708 139.177 27.4473C139.9 27.0196 140.759 26.8047 141.752 26.8025C142.744 26.8004 143.601 27.0116 144.323 27.4361C145.048 27.8564 145.607 28.4476 146.001 29.2095C146.395 29.9672 146.593 30.8531 146.595 31.8673C146.597 32.873 146.403 33.7576 146.013 34.5213C145.622 35.2806 145.065 35.8742 144.342 36.3019C143.623 36.7253 142.767 36.9381 141.774 36.9403ZM141.782 34.8309C142.234 34.8299 142.61 34.7012 142.912 34.4449C143.214 34.1843 143.442 33.8301 143.594 33.3823C143.751 32.9346 143.828 32.4251 143.827 31.8541C143.826 31.2831 143.746 30.774 143.587 30.3269C143.433 29.8798 143.204 29.5266 142.901 29.2674C142.598 29.0081 142.221 28.8789 141.769 28.8799C141.313 28.8809 140.93 29.0117 140.619 29.2723C140.313 29.5329 140.081 29.8871 139.925 30.3349C139.772 30.7827 139.697 31.2921 139.698 31.8631C139.699 32.4341 139.777 32.9432 139.931 33.3903C140.09 33.8374 140.323 34.1906 140.63 34.4499C140.942 34.7049 141.326 34.8319 141.782 34.8309ZM152.813 36.9163C151.82 36.9185 150.961 36.7094 150.235 36.2891C149.514 35.8645 148.957 35.2734 148.563 34.5157C148.169 33.7538 147.971 32.87 147.969 31.8643C147.967 30.8501 148.161 29.9633 148.552 29.2039C148.942 28.4403 149.497 27.8468 150.216 27.4233C150.94 26.9956 151.798 26.7807 152.791 26.7785C153.784 26.7764 154.641 26.9876 155.362 27.4122C156.087 27.8325 156.646 28.4236 157.04 29.1855C157.434 29.9432 157.632 30.8291 157.634 31.8433C157.636 32.849 157.442 33.7336 157.052 34.4973C156.661 35.2566 156.104 35.8502 155.381 36.2779C154.662 36.7013 153.806 36.9141 152.813 36.9163ZM152.821 34.8069C153.273 34.8059 153.649 34.6773 153.951 34.4209C154.253 34.1603 154.481 33.8061 154.633 33.3584C154.79 32.9106 154.867 32.4012 154.866 31.8301C154.865 31.2591 154.785 30.7501 154.626 30.303C154.472 29.8559 154.243 29.5027 153.94 29.2434C153.637 28.9841 153.26 28.8549 152.808 28.8559C152.352 28.8569 151.969 28.9877 151.658 29.2483C151.352 29.5089 151.12 29.8631 150.964 30.3109C150.811 30.7587 150.736 31.2681 150.737 31.8391C150.738 32.4101 150.816 32.9192 150.97 33.3663C151.129 33.8134 151.362 34.1666 151.669 34.4259C151.981 34.6809 152.365 34.8079 152.821 34.8069ZM161.876 33.8795L161.876 30.6132L162.272 30.6123L165.409 26.879L168.534 26.8722L164.32 31.816L163.674 31.8174L161.876 33.8795ZM159.415 36.7102L159.387 23.6193L162.11 23.6134L162.138 36.7043L159.415 36.7102ZM165.552 36.6969L162.653 32.4269L164.464 30.4989L168.741 36.6899L165.552 36.6969Z" fill="white"/>
<rect x="75.0703" y="-36.7617" width="20" height="154" transform="rotate(35.0791 75.0703 -36.7617)" fill="white" fill-opacity="0.15"/>
<rect x="108.07" y="-36.7617" width="14.1191" height="154" transform="rotate(35.0791 108.07 -36.7617)" fill="white" fill-opacity="0.15"/>
</g>
<defs>
<clipPath id="clip0_468_4993">
<rect width="216" height="60" rx="10" fill="white"/>
</clipPath>
</defs>
</svg>
