<svg width="307" height="59" viewBox="0 0 307 59" fill="none" xmlns="http://www.w3.org/2000/svg">
<g clip-path="url(#clip0_1514_9387)">
<rect width="307" height="59" rx="6.24" fill="#27AE60"/>
<path d="M117.071 27.6456L113.338 27.6537C113.269 27.1709 113.129 26.7422 112.918 26.3677C112.707 25.9874 112.436 25.6642 112.106 25.3978C111.776 25.1315 111.395 24.9278 110.962 24.7867C110.536 24.6456 110.073 24.5755 109.573 24.5766C108.669 24.5786 107.883 24.8047 107.213 25.255C106.544 25.6997 106.025 26.3485 105.658 27.2016C105.291 28.049 105.108 29.0778 105.111 30.288C105.113 31.5324 105.3 32.5774 105.672 33.4232C106.048 34.269 106.572 34.907 107.244 35.3374C107.915 35.7678 108.691 35.982 109.572 35.9801C110.066 35.979 110.524 35.9127 110.944 35.7811C111.37 35.6495 111.747 35.4583 112.076 35.2076C112.405 34.9512 112.677 34.6409 112.892 34.2768C113.113 33.9127 113.265 33.4976 113.35 33.0315L117.083 33.0404C116.988 33.8418 116.748 34.615 116.363 35.3602C115.984 36.0997 115.471 36.7627 114.825 37.3493C114.184 37.9303 113.418 38.3922 112.527 38.735C111.641 39.0722 110.639 39.242 109.519 39.2444C107.963 39.2478 106.57 38.8985 105.341 38.1966C104.118 37.4948 103.15 36.477 102.437 35.1433C101.729 33.8096 101.373 32.1939 101.369 30.2962C101.365 28.3928 101.72 26.7727 102.433 25.4359C103.146 24.0991 104.115 23.08 105.341 22.3784C106.566 21.6712 107.946 21.3159 109.48 21.3126C110.492 21.3104 111.43 21.4504 112.294 21.7326C113.164 22.0148 113.935 22.4279 114.606 22.9719C115.278 23.5102 115.825 24.171 116.247 24.9542C116.675 25.7373 116.949 26.6345 117.071 27.6456ZM125.589 39.2265C124.265 39.2294 123.12 38.9506 122.153 38.3902C121.191 37.8241 120.448 37.036 119.923 36.0258C119.398 35.0098 119.134 33.8314 119.131 32.4905C119.128 31.1383 119.387 29.9559 119.908 28.9434C120.428 27.9252 121.168 27.1338 122.127 26.5692C123.092 25.999 124.236 25.7124 125.56 25.7095C126.884 25.7066 128.026 25.9882 128.988 26.5543C129.955 27.1147 130.701 27.9029 131.226 28.9188C131.751 29.929 132.015 31.1103 132.018 32.4625C132.02 33.8034 131.762 34.983 131.241 36.0012C130.721 37.0137 129.978 37.805 129.013 38.3753C128.054 38.9399 126.913 39.2236 125.589 39.2265ZM125.6 36.414C126.202 36.4127 126.705 36.2411 127.107 35.8994C127.51 35.5519 127.813 35.0796 128.016 34.4826C128.225 33.8856 128.329 33.2063 128.327 32.445C128.325 31.6836 128.219 31.0049 128.007 30.4087C127.802 29.8126 127.497 29.3417 127.092 28.996C126.688 28.6502 126.185 28.478 125.583 28.4793C124.975 28.4807 124.464 28.6551 124.05 29.0026C123.641 29.35 123.333 29.8223 123.124 30.4194C122.921 31.0164 122.82 31.6956 122.821 32.4569C122.823 33.2183 122.927 33.8971 123.133 34.4932C123.344 35.0893 123.655 35.5603 124.065 35.906C124.48 36.246 124.992 36.4153 125.6 36.414ZM138.007 31.3757L138.023 38.9438L134.392 38.9517L134.364 25.8608L137.824 25.8533L137.829 28.163L137.983 28.1626C138.271 27.4006 138.755 26.7973 139.436 26.3527C140.117 25.9023 140.943 25.6761 141.915 25.674C142.824 25.672 143.617 25.8691 144.294 26.2654C144.971 26.6617 145.498 27.2287 145.874 27.9665C146.251 28.6987 146.44 29.5732 146.442 30.5903L146.461 38.9255L142.83 38.9334L142.813 31.2459C142.817 30.4448 142.611 29.8202 142.195 29.3722C141.78 28.9186 141.208 28.6926 140.481 28.6941C139.992 28.6952 139.561 28.8013 139.186 29.0123C138.817 29.2233 138.528 29.5308 138.319 29.9346C138.115 30.3328 138.011 30.8131 138.007 31.3757ZM156.257 25.8133L156.263 28.5405L148.379 28.5577L148.373 25.8304L156.257 25.8133ZM150.156 22.6902L153.787 22.6823L153.813 34.8868C153.814 35.222 153.866 35.4833 153.968 35.6705C154.071 35.8521 154.213 35.9797 154.395 36.0531C154.583 36.1266 154.799 36.1631 155.043 36.1625C155.214 36.1622 155.384 36.1476 155.555 36.1188C155.725 36.0843 155.856 36.0585 155.947 36.0412L156.523 38.7417C156.342 38.7989 156.086 38.8648 155.757 38.9394C155.427 39.0196 155.027 39.0688 154.555 39.0869C153.68 39.1229 152.913 39.0081 152.254 38.7425C151.6 38.4768 151.09 38.0632 150.725 37.5015C150.36 36.9397 150.18 36.2299 150.184 35.3719L150.156 22.6902ZM158.65 38.899L158.622 25.8081L162.252 25.8002L162.281 38.8911L158.65 38.899ZM160.442 24.1167C159.902 24.1178 159.439 23.9399 159.052 23.5828C158.67 23.22 158.479 22.7857 158.478 22.28C158.477 21.78 158.666 21.3506 159.046 20.9919C159.432 20.6274 159.894 20.4446 160.434 20.4434C160.974 20.4422 161.434 20.623 161.816 20.9858C162.203 21.343 162.397 21.7715 162.398 22.2715C162.399 22.7772 162.207 23.2123 161.821 23.5767C161.442 23.9355 160.982 24.1155 160.442 24.1167ZM168.803 31.3088L168.82 38.8769L165.189 38.8848L165.161 25.7939L168.621 25.7864L168.626 28.0961L168.779 28.0957C169.068 27.3337 169.552 26.7304 170.233 26.2857C170.914 25.8354 171.74 25.6092 172.712 25.6071C173.621 25.6051 174.414 25.8022 175.091 26.1985C175.768 26.5947 176.294 27.1618 176.671 27.8996C177.048 28.6317 177.237 29.5063 177.239 30.5234L177.257 38.8586L173.627 38.8665L173.61 31.179C173.614 30.3778 173.408 29.7533 172.992 29.3053C172.577 28.8517 172.005 28.6257 171.278 28.6272C170.789 28.6283 170.358 28.7343 169.983 28.9454C169.614 29.1564 169.325 29.4639 169.116 29.8677C168.912 30.2659 168.808 30.7462 168.803 31.3088ZM188.502 33.2603L188.485 25.7432L192.116 25.7354L192.144 38.8262L188.659 38.8338L188.653 36.456L188.517 36.4563C188.223 37.224 187.733 37.8415 187.047 38.3089C186.366 38.7763 185.534 39.0111 184.551 39.0132C183.676 39.0151 182.906 38.8179 182.24 38.4216C181.574 38.0253 181.053 37.4611 180.677 36.729C180.306 35.9968 180.116 35.1194 180.109 34.0967L180.09 25.7615L183.721 25.7536L183.738 33.4411C183.745 34.2138 183.954 34.8241 184.364 35.2721C184.774 35.7201 185.323 35.9433 186.01 35.9418C186.448 35.9409 186.857 35.8406 187.237 35.6409C187.617 35.4355 187.923 35.1337 188.155 34.7355C188.393 34.3372 188.509 33.8455 188.502 33.2603ZM201.015 39.0627C199.668 39.0656 198.509 38.7954 197.536 38.252C196.569 37.703 195.823 36.9262 195.298 35.9217C194.773 34.9114 194.509 33.716 194.506 32.3353C194.503 30.9887 194.762 29.8063 195.282 28.7881C195.803 27.77 196.537 26.9758 197.485 26.4055C198.438 25.8353 199.557 25.5487 200.841 25.546C201.704 25.5441 202.509 25.6815 203.254 25.9583C204.004 26.2294 204.658 26.6399 205.216 27.1899C205.78 27.7398 206.219 28.432 206.533 29.2665C206.848 30.0954 207.006 31.0667 207.009 32.1803L207.011 33.1775L195.957 33.2015L195.952 30.9515L203.588 30.9349C203.587 30.4122 203.472 29.9493 203.244 29.5464C203.016 29.1435 202.7 28.8289 202.296 28.6025C201.898 28.3704 201.435 28.2549 200.906 28.256C200.355 28.2572 199.867 28.3861 199.441 28.6427C199.021 28.8937 198.692 29.2324 198.455 29.6591C198.217 30.0801 198.096 30.5491 198.091 31.0661L198.096 33.2053C198.097 33.8531 198.218 34.4125 198.458 34.8835C198.703 35.3546 199.047 35.7175 199.491 35.9722C199.935 36.2269 200.461 36.3536 201.069 36.3523C201.472 36.3514 201.841 36.2938 202.176 36.1794C202.511 36.0651 202.798 35.894 203.036 35.6662C203.274 35.4384 203.455 35.1596 203.58 34.8298L206.938 35.0441C206.769 35.8513 206.421 36.5566 205.894 37.16C205.373 37.7577 204.698 38.2251 203.869 38.5621C203.046 38.8935 202.095 39.0603 201.015 39.0627Z" fill="white"/>
<rect x="75.0703" y="-36.7617" width="20" height="154" transform="rotate(35.0791 75.0703 -36.7617)" fill="white" fill-opacity="0.15"/>
<rect x="108.07" y="-36.7617" width="14.1191" height="154" transform="rotate(35.0791 108.07 -36.7617)" fill="white" fill-opacity="0.15"/>
</g>
<defs>
<clipPath id="clip0_1514_9387">
<rect width="307" height="59" rx="6.24" fill="white"/>
</clipPath>
</defs>
</svg>
