<svg width="36" height="36" viewBox="0 0 36 36" fill="none" xmlns="http://www.w3.org/2000/svg">
<mask id="mask0_825_5948" style="mask-type:alpha" maskUnits="userSpaceOnUse" x="0" y="0" width="36" height="36">
<circle cx="17.8887" cy="17.7676" r="17.5" fill="#C4C4C4"/>
</mask>
<g mask="url(#mask0_825_5948)">
<rect x="-29.4131" y="-34.7324" width="115.743" height="70" fill="#F88125"/>
</g>
<path d="M17.0351 6.66992C10.9092 6.66992 5.9375 11.4504 5.9375 17.3407C5.9375 23.2309 10.9092 28.0114 17.0351 28.0114H22.5838V25.8772H17.0351C12.2187 25.8772 8.15701 21.9718 8.15701 17.3407C8.15701 12.7096 12.2187 8.80407 17.0351 8.80407C21.8514 8.80407 25.9131 12.7096 25.9131 17.3407V18.8666C25.9131 19.7096 25.1252 20.5419 24.2485 20.5419C23.3718 20.5419 22.5838 19.7096 22.5838 18.8666V17.3407C22.5838 14.3955 20.098 12.0053 17.0351 12.0053C13.9721 12.0053 11.4863 14.3955 11.4863 17.3407C11.4863 20.2858 13.9721 22.676 17.0351 22.676C18.5665 22.676 19.9648 22.0785 20.9636 21.1074C21.6849 22.0571 22.9279 22.676 24.2485 22.676C26.4347 22.676 28.1326 20.9687 28.1326 18.8666V17.3407C28.1326 11.4504 23.1609 6.66992 17.0351 6.66992ZM17.0351 20.5419C15.1929 20.5419 13.7058 19.112 13.7058 17.3407C13.7058 15.5693 15.1929 14.1394 17.0351 14.1394C18.8773 14.1394 20.3643 15.5693 20.3643 17.3407C20.3643 19.112 18.8773 20.5419 17.0351 20.5419Z" fill="white"/>
</svg>
