<svg width="148" height="112" viewBox="0 0 148 112" fill="none" xmlns="http://www.w3.org/2000/svg">
<rect width="148" height="112" rx="8" fill="#0C2647"/>
<path d="M85 33.92C85 40.359 80 41.359 80 47.36C80 50.458 76.877 50.719 74.5 50.719C72.447 50.719 67.914 49.94 67.914 47.358C67.914 41.36 63 40.36 63 33.92C63 27.889 68.285 23 74.083 23C79.883 23 85 27.889 85 33.92Z" fill="#FFD983"/>
<path d="M78.166 55.36C78.166 56.188 75.932 57.86 73.999 57.86C72.066 57.86 69.832 56.188 69.832 55.36C69.832 54.532 72.065 54.86 73.999 54.86C75.932 54.86 78.166 54.532 78.166 55.36Z" fill="#CCD6DD"/>
<path d="M78.7073 33.153C78.3163 32.762 77.6842 32.762 77.2932 33.153L74.0002 36.446L70.7072 33.153C70.3162 32.762 69.6842 32.762 69.2932 33.153C68.9022 33.544 68.9022 34.176 69.2932 34.567L73.0002 38.274V48.86C73.0002 49.413 73.4482 49.86 74.0002 49.86C74.5522 49.86 75.0002 49.413 75.0002 48.86V38.274L78.7073 34.567C79.0983 34.176 79.0983 33.544 78.7073 33.153V33.153Z" fill="#FFCC4D"/>
<path d="M80 53.86C80 54.964 79.104 55.86 78 55.86H70C68.896 55.86 68 54.964 68 53.86V47.86H80V53.86Z" fill="#202024"/>
<path d="M67.9988 54.86C67.5188 54.86 67.0948 54.513 67.0138 54.024C66.9228 53.48 67.2908 52.964 67.8358 52.874L79.8358 50.874C80.3798 50.776 80.8958 51.151 80.9858 51.696C81.0768 52.24 80.7088 52.756 80.1638 52.846L68.1638 54.846C68.1088 54.856 68.0528 54.86 67.9988 54.86V54.86ZM67.9988 50.86C67.5188 50.86 67.0948 50.513 67.0138 50.024C66.9228 49.48 67.2908 48.964 67.8358 48.874L79.8358 46.874C80.3798 46.777 80.8958 47.151 80.9858 47.696C81.0768 48.24 80.7088 48.756 80.1638 48.846L68.1638 50.846C68.1088 50.856 68.0528 50.86 67.9988 50.86V50.86Z" fill="#CCD6DD"/>
<path d="M42.4633 85V74.8182H48.7773V76.1406H43.9996V79.2429H48.3248V80.5604H43.9996V85H42.4633ZM53.2778 85.1541C52.5254 85.1541 51.8775 84.9934 51.3339 84.6719C50.7936 84.3471 50.376 83.8913 50.0811 83.3047C49.7894 82.7147 49.6436 82.0237 49.6436 81.2315C49.6436 80.4493 49.7894 79.7599 50.0811 79.1634C50.376 78.5668 50.787 78.1011 51.314 77.7663C51.8443 77.4316 52.4641 77.2642 53.1734 77.2642C53.6043 77.2642 54.0219 77.3355 54.4262 77.478C54.8306 77.6205 55.1935 77.8442 55.515 78.1491C55.8365 78.4541 56.0901 78.8501 56.2757 79.3374C56.4613 79.8213 56.5541 80.4096 56.5541 81.1023V81.6293H50.4838V80.5156H55.0974C55.0974 80.1245 55.0178 79.7782 54.8588 79.4766C54.6997 79.1716 54.4759 78.9313 54.1876 78.7557C53.9026 78.58 53.5678 78.4922 53.1833 78.4922C52.7657 78.4922 52.4011 78.5949 52.0896 78.8004C51.7813 79.0026 51.5427 79.2678 51.3737 79.5959C51.2079 79.9207 51.1251 80.2737 51.1251 80.6548V81.5249C51.1251 82.0353 51.2146 82.4695 51.3936 82.8274C51.5758 83.1854 51.8294 83.4588 52.1542 83.6477C52.479 83.8333 52.8585 83.9261 53.2927 83.9261C53.5744 83.9261 53.8313 83.8864 54.0633 83.8068C54.2953 83.724 54.4958 83.6013 54.6649 83.4389C54.8339 83.2765 54.9632 83.076 55.0526 82.8374L56.4596 83.0909C56.3469 83.5052 56.1447 83.8681 55.8531 84.1797C55.5647 84.4879 55.2018 84.7282 54.7643 84.9006C54.3301 85.0696 53.8346 85.1541 53.2778 85.1541ZM61.4946 85.1541C60.7422 85.1541 60.0943 84.9934 59.5507 84.6719C59.0104 84.3471 58.5928 83.8913 58.2979 83.3047C58.0062 82.7147 57.8604 82.0237 57.8604 81.2315C57.8604 80.4493 58.0062 79.7599 58.2979 79.1634C58.5928 78.5668 59.0038 78.1011 59.5308 77.7663C60.0611 77.4316 60.6809 77.2642 61.3902 77.2642C61.8211 77.2642 62.2387 77.3355 62.643 77.478C63.0474 77.6205 63.4103 77.8442 63.7318 78.1491C64.0533 78.4541 64.3068 78.8501 64.4925 79.3374C64.6781 79.8213 64.7709 80.4096 64.7709 81.1023V81.6293H58.7006V80.5156H63.3142C63.3142 80.1245 63.2346 79.7782 63.0756 79.4766C62.9165 79.1716 62.6927 78.9313 62.4044 78.7557C62.1193 78.58 61.7846 78.4922 61.4001 78.4922C60.9825 78.4922 60.6179 78.5949 60.3064 78.8004C59.9981 79.0026 59.7595 79.2678 59.5905 79.5959C59.4247 79.9207 59.3419 80.2737 59.3419 80.6548V81.5249C59.3419 82.0353 59.4314 82.4695 59.6104 82.8274C59.7926 83.1854 60.0462 83.4588 60.371 83.6477C60.6958 83.8333 61.0753 83.9261 61.5095 83.9261C61.7912 83.9261 62.0481 83.8864 62.2801 83.8068C62.5121 83.724 62.7126 83.6013 62.8817 83.4389C63.0507 83.2765 63.18 83.076 63.2694 82.8374L64.6764 83.0909C64.5637 83.5052 64.3615 83.8681 64.0699 84.1797C63.7815 84.4879 63.4186 84.7282 62.9811 84.9006C62.5469 85.0696 62.0514 85.1541 61.4946 85.1541ZM69.2789 85.1491C68.6624 85.1491 68.1122 84.9917 67.6283 84.6768C67.1477 84.3587 66.7699 83.9062 66.4948 83.3196C66.223 82.7296 66.0871 82.022 66.0871 81.1967C66.0871 80.3714 66.2246 79.6655 66.4997 79.0788C66.7781 78.4922 67.1593 78.0431 67.6432 77.7315C68.1271 77.42 68.6756 77.2642 69.2888 77.2642C69.7628 77.2642 70.1439 77.3438 70.4323 77.5028C70.7239 77.6586 70.9493 77.8409 71.1084 78.0497C71.2708 78.2585 71.3968 78.4425 71.4862 78.6016H71.5757V74.8182H73.0622V85H71.6105V83.8118H71.4862C71.3968 83.9742 71.2675 84.1598 71.0985 84.3686C70.9327 84.5774 70.704 84.7597 70.4124 84.9155C70.1207 85.0713 69.7429 85.1491 69.2789 85.1491ZM69.607 83.8814C70.0345 83.8814 70.3958 83.7687 70.6908 83.5433C70.9891 83.3146 71.2145 82.9981 71.3669 82.5938C71.5227 82.1894 71.6006 81.7187 71.6006 81.1818C71.6006 80.6515 71.5244 80.1875 71.3719 79.7898C71.2194 79.392 70.9957 79.0821 70.7007 78.8601C70.4057 78.638 70.0412 78.527 69.607 78.527C69.1595 78.527 68.7867 78.643 68.4884 78.875C68.1901 79.107 67.9647 79.4235 67.8122 79.8246C67.6631 80.2256 67.5885 80.678 67.5885 81.1818C67.5885 81.6922 67.6647 82.1513 67.8172 82.5589C67.9697 82.9666 68.195 83.2898 68.4933 83.5284C68.795 83.7637 69.1662 83.8814 69.607 83.8814ZM75.3032 85V74.8182H76.7897V78.6016H76.8792C76.9653 78.4425 77.0896 78.2585 77.252 78.0497C77.4144 77.8409 77.6398 77.6586 77.9282 77.5028C78.2165 77.3438 78.5977 77.2642 79.0716 77.2642C79.6881 77.2642 80.2383 77.42 80.7222 77.7315C81.2061 78.0431 81.5856 78.4922 81.8607 79.0788C82.1391 79.6655 82.2783 80.3714 82.2783 81.1967C82.2783 82.022 82.1408 82.7296 81.8657 83.3196C81.5906 83.9062 81.2127 84.3587 80.7322 84.6768C80.2516 84.9917 79.703 85.1491 79.0866 85.1491C78.6225 85.1491 78.243 85.0713 77.9481 84.9155C77.6564 84.7597 77.4277 84.5774 77.262 84.3686C77.0963 84.1598 76.9687 83.9742 76.8792 83.8118H76.7549V85H75.3032ZM76.7599 81.1818C76.7599 81.7187 76.8377 82.1894 76.9935 82.5938C77.1493 82.9981 77.3747 83.3146 77.6697 83.5433C77.9646 83.7687 78.3259 83.8814 78.7535 83.8814C79.1976 83.8814 79.5688 83.7637 79.8671 83.5284C80.1654 83.2898 80.3908 82.9666 80.5432 82.5589C80.699 82.1513 80.7769 81.6922 80.7769 81.1818C80.7769 80.678 80.7007 80.2256 80.5482 79.8246C80.3991 79.4235 80.1737 79.107 79.8721 78.875C79.5738 78.643 79.2009 78.527 78.7535 78.527C78.3226 78.527 77.958 78.638 77.6597 78.8601C77.3647 79.0821 77.141 79.392 76.9885 79.7898C76.8361 80.1875 76.7599 80.6515 76.7599 81.1818ZM86.1698 85.169C85.6859 85.169 85.2484 85.0795 84.8573 84.9006C84.4662 84.7183 84.1563 84.4548 83.9276 84.1101C83.7023 83.7654 83.5896 83.3428 83.5896 82.8423C83.5896 82.4115 83.6724 82.0568 83.8382 81.7784C84.0039 81.5 84.2276 81.2796 84.5093 81.1172C84.791 80.9548 85.1059 80.8321 85.4539 80.7493C85.8019 80.6664 86.1566 80.6035 86.5178 80.5604C86.9752 80.5073 87.3464 80.4643 87.6315 80.4311C87.9165 80.3946 88.1237 80.3366 88.2529 80.2571C88.3822 80.1776 88.4468 80.0483 88.4468 79.8693V79.8345C88.4468 79.4003 88.3242 79.0639 88.0789 78.8253C87.837 78.5866 87.4757 78.4673 86.9951 78.4673C86.4946 78.4673 86.1002 78.5784 85.8119 78.8004C85.5268 79.0192 85.3296 79.2628 85.2203 79.5312L83.8232 79.2131C83.989 78.7491 84.2309 78.3745 84.5491 78.0895C84.8706 77.8011 85.2401 77.5923 85.6578 77.4631C86.0754 77.3305 86.5145 77.2642 86.9752 77.2642C87.2802 77.2642 87.6033 77.3007 87.9447 77.3736C88.2894 77.4432 88.6109 77.5724 88.9092 77.7614C89.2108 77.9503 89.4577 78.2204 89.6499 78.5717C89.8422 78.9197 89.9383 79.3722 89.9383 79.929V85H88.4866V83.956H88.4269C88.3308 84.1482 88.1866 84.3371 87.9944 84.5227C87.8022 84.7083 87.5552 84.8625 87.2536 84.9851C86.952 85.1077 86.5908 85.169 86.1698 85.169ZM86.493 83.9759C86.904 83.9759 87.2553 83.8946 87.547 83.7322C87.8419 83.5698 88.0657 83.3577 88.2181 83.0959C88.3739 82.8307 88.4518 82.5473 88.4518 82.2457V81.2614C88.3988 81.3144 88.296 81.3641 88.1436 81.4105C87.9944 81.4536 87.8237 81.4917 87.6315 81.5249C87.4392 81.5547 87.252 81.5829 87.0697 81.6094C86.8874 81.6326 86.7349 81.6525 86.6123 81.669C86.324 81.7055 86.0605 81.7668 85.8218 81.853C85.5865 81.9392 85.3976 82.0634 85.2551 82.2259C85.1159 82.3849 85.0463 82.5971 85.0463 82.8622C85.0463 83.2301 85.1821 83.5085 85.4539 83.6974C85.7257 83.883 86.0721 83.9759 86.493 83.9759ZM95.1349 85.1541C94.3957 85.1541 93.7594 84.9867 93.2258 84.652C92.6955 84.3139 92.2878 83.8482 92.0028 83.255C91.7177 82.6617 91.5752 81.9822 91.5752 81.2166C91.5752 80.4411 91.721 79.7566 92.0127 79.1634C92.3044 78.5668 92.7153 78.1011 93.2456 77.7663C93.776 77.4316 94.4007 77.2642 95.1199 77.2642C95.7 77.2642 96.217 77.3719 96.6711 77.5874C97.1251 77.7995 97.4914 78.0978 97.7698 78.4822C98.0515 78.8667 98.2189 79.3158 98.2719 79.8295H96.8252C96.7456 79.4716 96.5634 79.1634 96.2783 78.9048C95.9966 78.6463 95.6188 78.517 95.1448 78.517C94.7305 78.517 94.3676 78.6264 94.056 78.8452C93.7478 79.0606 93.5075 79.3688 93.3351 79.7699C93.1628 80.1676 93.0766 80.6383 93.0766 81.1818C93.0766 81.7386 93.1611 82.2192 93.3302 82.6236C93.4992 83.0279 93.7378 83.3411 94.0461 83.5632C94.3576 83.7853 94.7239 83.8963 95.1448 83.8963C95.4265 83.8963 95.6817 83.8449 95.9104 83.7422C96.1424 83.6361 96.3363 83.4853 96.4921 83.2898C96.6512 83.0942 96.7622 82.8589 96.8252 82.5838H98.2719C98.2189 83.0777 98.0581 83.5185 97.7897 83.9062C97.5212 84.294 97.1616 84.599 96.7108 84.821C96.2634 85.0431 95.7381 85.1541 95.1349 85.1541ZM101.229 82.4098L101.219 80.5952H101.477L104.52 77.3636H106.3L102.83 81.0426H102.596L101.229 82.4098ZM99.8616 85V74.8182H101.348V85H99.8616ZM104.684 85L101.95 81.3707L102.974 80.3317L106.509 85H104.684Z" fill="white"/>
</svg>
