<svg width="370" height="62" viewBox="0 0 370 62" fill="none" xmlns="http://www.w3.org/2000/svg">
<g clip-path="url(#clip0_1340_6294)">
<rect width="370" height="62" fill="#0C2647"/>
<path d="M34.2972 38.9013L34.263 23.1513L38.763 23.1416L38.7923 36.6415L47.7923 36.622L47.7972 38.872L34.2972 38.9013ZM52.2972 38.8622L52.2923 36.6122L50.0423 36.6171L50.0277 29.8671L52.2777 29.8622L52.2728 27.6122L63.5227 27.5878L63.5276 29.8378L65.7776 29.8329L65.7874 34.3329L54.5374 34.3573L54.5423 36.6073L63.5423 36.5878L63.5472 38.8378L52.2972 38.8622ZM54.5325 32.1073L61.2825 32.0927L61.2776 29.8427L54.5276 29.8573L54.5325 32.1073ZM70.2972 38.8231L70.2923 36.5731L68.0423 36.578L68.0374 34.328L70.2874 34.3231L70.2825 32.0731L79.2825 32.0536L79.2776 29.8036L70.2776 29.8231L70.2727 27.5731L81.5227 27.5487L81.5276 29.7987L83.7776 29.7938L83.7971 38.7938L70.2972 38.8231ZM72.5423 36.5682L79.2923 36.5535L79.2874 34.3036L72.5374 34.3182L72.5423 36.5682ZM92.7971 38.7742L92.7922 36.5242L90.5422 36.5291L90.5373 34.2791L88.2873 34.284L88.2727 27.534L92.7727 27.5242L92.7873 34.2742L97.2873 34.2644L97.2727 27.5145L101.773 27.5047L101.787 34.2547L99.5373 34.2596L99.5422 36.5096L97.2922 36.5144L97.2971 38.7644L92.7971 38.7742ZM106.297 38.7449L106.292 36.4949L104.042 36.4998L104.028 29.7498L106.278 29.7449L106.273 27.4949L117.523 27.4705L117.527 29.7205L119.777 29.7156L119.787 34.2156L108.537 34.24L108.542 36.49L117.542 36.4704L117.547 38.7204L106.297 38.7449ZM108.532 31.99L115.282 31.9753L115.278 29.7254L108.528 29.74L108.532 31.99ZM142.297 38.6667L142.292 36.4167L140.042 36.4216L140.037 34.1716L142.287 34.1667L142.282 31.9167L151.282 31.8971L151.277 29.6471L142.277 29.6667L142.273 27.4167L153.523 27.3923L153.527 29.6422L155.777 29.6374L155.797 38.6373L142.297 38.6667ZM144.542 36.4118L151.292 36.3971L151.287 34.1471L144.537 34.1618L144.542 36.4118ZM176.047 38.5933L176.013 22.8434L191.763 22.8092L191.768 25.0592L180.518 25.0836L180.527 29.5836L189.527 29.564L189.532 31.814L180.532 31.8336L180.547 38.5836L176.047 38.5933ZM196.297 38.5493L196.292 36.2994L194.042 36.3042L194.027 29.5543L196.277 29.5494L196.272 27.2994L207.522 27.2749L207.527 29.5249L209.777 29.52L209.787 34.02L198.537 34.0445L198.542 36.2945L207.542 36.2749L207.547 38.5249L196.297 38.5493ZM198.532 31.7945L205.282 31.7798L205.277 29.5298L198.527 29.5445L198.532 31.7945ZM214.297 38.5102L214.292 36.2602L212.042 36.2651L212.027 29.5152L214.277 29.5103L214.272 27.2603L225.522 27.2358L225.527 29.4858L227.777 29.4809L227.787 33.9809L216.537 34.0054L216.542 36.2554L225.542 36.2358L225.547 38.4858L214.297 38.5102ZM216.532 31.7554L223.282 31.7407L223.277 29.4907L216.527 29.5054L216.532 31.7554ZM232.297 38.4711L232.292 36.2211L230.042 36.226L230.027 29.476L232.277 29.4712L232.272 27.2212L241.272 27.2016L241.263 22.7016L245.763 22.6918L245.797 38.4418L232.297 38.4711ZM234.542 36.2163L241.292 36.2016L241.277 29.4516L234.527 29.4663L234.542 36.2163ZM250.297 38.432L250.292 36.182L248.042 36.1869L248.013 22.687L252.513 22.6772L252.522 27.1772L261.522 27.1576L261.527 29.4076L263.777 29.4027L263.792 36.1527L261.542 36.1576L261.547 38.4076L250.297 38.432ZM252.542 36.1771L259.292 36.1625L259.277 29.4125L252.527 29.4272L252.542 36.1771ZM268.297 38.3929L268.292 36.1429L266.042 36.1478L266.037 33.8978L268.287 33.8929L268.282 31.6429L277.282 31.6234L277.277 29.3734L268.277 29.3929L268.272 27.1429L279.522 27.1185L279.527 29.3685L281.777 29.3636L281.797 38.3636L268.297 38.3929ZM270.542 36.138L277.292 36.1234L277.287 33.8734L270.537 33.888L270.542 36.138ZM286.297 38.3538L286.292 36.1038L284.042 36.1087L284.027 29.3587L286.277 29.3538L286.272 27.1038L299.772 27.0745L299.777 29.3245L288.527 29.3489L288.542 36.0989L299.792 36.0745L299.797 38.3245L286.297 38.3538ZM302.047 38.3196L302.012 22.5696L306.512 22.5599L306.532 31.5598L311.032 31.5501L311.027 29.3001L313.277 29.2952L313.272 27.0452L317.772 27.0354L317.777 29.2854L315.527 29.2903L315.532 31.5403L313.282 31.5452L313.287 33.7952L315.537 33.7903L315.542 36.0403L317.792 36.0354L317.797 38.2854L313.297 38.2952L313.292 36.0452L311.042 36.0501L311.037 33.8001L306.537 33.8098L306.547 38.3098L302.047 38.3196ZM324.537 33.7707L324.512 22.5208L331.262 22.5061L331.277 29.2561L329.027 29.261L329.037 33.7609L324.537 33.7707ZM324.547 38.2707L324.542 36.0207L329.042 36.0109L329.047 38.2609L324.547 38.2707Z" fill="white"/>
<rect x="75.0703" y="-36.7617" width="20" height="154" transform="rotate(35.0791 75.0703 -36.7617)" fill="white" fill-opacity="0.15"/>
<rect x="108.07" y="-36.7617" width="14.1191" height="154" transform="rotate(35.0791 108.07 -36.7617)" fill="white" fill-opacity="0.15"/>
</g>
<defs>
<clipPath id="clip0_1340_6294">
<rect width="370" height="62" fill="white"/>
</clipPath>
</defs>
</svg>
