<svg width="60" height="60" viewBox="0 0 60 60" fill="none" xmlns="http://www.w3.org/2000/svg">
<path d="M7.5 28.1667C7.5 18.4243 7.5 13.5531 10.5266 10.5266C13.5531 7.5 18.4243 7.5 28.1667 7.5H31.8333C41.5757 7.5 46.4469 7.5 49.4734 10.5266C52.5 13.5531 52.5 18.4243 52.5 28.1667V31.8333C52.5 41.5757 52.5 46.4469 49.4734 49.4734C46.4469 52.5 41.5757 52.5 31.8333 52.5H28.1667C18.4243 52.5 13.5531 52.5 10.5266 49.4734C7.5 46.4469 7.5 41.5757 7.5 31.8333V28.1667Z" fill="white"/>
<path d="M19.726 29.9996L27.4315 37.8078L40.2739 22.1914" stroke="#3C3934" stroke-width="2.58"/>
</svg>
