<svg width="409" height="74" viewBox="0 0 409 74" fill="none" xmlns="http://www.w3.org/2000/svg">
<g clip-path="url(#clip0_591_7866)">
<rect width="409" height="73.6817" fill="#F88125"/>
<path d="M92.0051 45.5209L91.9993 42.8535L89.3319 42.8593L89.3261 40.1919L86.6587 40.1977L86.6413 32.1955L89.3087 32.1897L89.3029 29.5223L91.9703 29.5165L91.9645 26.8492L105.301 26.8202L105.307 29.4876L94.6377 29.5108L94.6435 32.1781L91.9761 32.1839L91.9935 40.1861L94.6609 40.1803L94.6666 42.8477L100.001 42.8361L99.9898 37.5013L97.3224 37.5071L97.3166 34.8397L105.319 34.8223L105.342 45.4919L92.0051 45.5209ZM110.677 45.4803L110.671 42.8129L108.004 42.8187L107.986 34.8165L110.654 34.8108L110.648 32.1434L123.985 32.1144L123.99 34.7818L126.658 34.776L126.669 40.1108L113.333 40.1397L113.338 42.8071L124.008 42.7839L124.014 45.4513L110.677 45.4803ZM113.327 37.4723L121.329 37.455L121.323 34.7876L113.321 34.805L113.327 37.4723ZM137.351 45.4223L137.327 34.7528L131.993 34.7644L131.987 32.097L137.322 32.0854L137.31 26.7506L142.645 26.7391L142.656 32.0738L147.991 32.0622L147.997 34.7296L142.662 34.7412L142.685 45.4108L137.351 45.4223ZM174.694 45.3412L174.688 42.6738L172.021 42.6796L172.015 40.0122L177.35 40.0006L177.356 42.668L185.358 42.6506L185.346 37.3159L174.677 37.3391L174.671 34.6717L172.003 34.6775L171.992 29.3427L174.659 29.3369L174.653 26.6695L187.99 26.6405L187.996 29.3079L190.664 29.3021L190.669 31.9695L185.335 31.9811L185.329 29.3137L177.327 29.3311L177.338 34.6659L188.008 34.6427L188.014 37.3101L190.681 37.3043L190.693 42.6391L188.025 42.6449L188.031 45.3122L174.694 45.3412ZM201.368 45.2833L201.345 34.6137L196.01 34.6253L196.004 31.9579L201.339 31.9463L201.327 26.6116L206.662 26.6L206.674 31.9347L212.008 31.9232L212.014 34.5905L206.679 34.6021L206.703 45.2717L201.368 45.2833ZM217.372 45.2485L217.366 42.5811L214.699 42.5869L214.693 39.9195L217.361 39.9137L217.355 37.2463L228.024 37.2232L228.019 34.5558L217.349 34.5789L217.343 31.9116L230.68 31.8826L230.686 34.55L233.353 34.5442L233.376 45.2137L217.372 45.2485ZM220.034 42.5753L228.036 42.5579L228.03 39.8905L220.028 39.9079L220.034 42.5753ZM244.023 34.521L246.69 34.5152L246.696 37.1826L244.029 37.1884L244.046 45.1905L238.711 45.2021L238.682 31.8652L244.017 31.8536L244.023 34.521ZM254.687 31.8304L254.692 34.4978L246.69 34.5152L246.684 31.8478L254.687 31.8304ZM265.385 45.1442L265.362 34.4746L260.027 34.4862L260.021 31.8188L265.356 31.8072L265.345 26.4725L270.679 26.4609L270.691 31.7957L276.026 31.7841L276.031 34.4515L270.697 34.463L270.72 45.1326L265.385 45.1442ZM281.389 45.1094L281.384 42.442L278.716 42.4478L278.699 34.4457L281.366 34.4399L281.36 31.7725L294.697 31.7435L294.703 34.4109L297.371 34.4051L297.382 39.7399L284.045 39.7688L284.051 42.4362L294.721 42.413L294.726 45.0804L281.389 45.1094ZM284.039 37.1015L292.042 37.0841L292.036 34.4167L284.034 34.4341L284.039 37.1015ZM302.728 45.063L302.723 42.3957L300.055 42.4015L300.038 34.3993L302.705 34.3935L302.699 31.7261L313.369 31.7029L313.357 26.3682L318.692 26.3566L318.733 45.0283L302.728 45.063ZM305.39 42.3899L313.392 42.3725L313.375 34.3703L305.373 34.3877L305.39 42.3899Z" fill="white"/>
<rect x="88.9961" y="-43.5811" width="23.7101" height="182.568" transform="rotate(35.0791 88.9961 -43.5811)" fill="#FFF0EE" fill-opacity="0.3"/>
<rect x="128.118" y="-43.5811" width="16.7383" height="182.568" transform="rotate(35.0791 128.118 -43.5811)" fill="#FFF0EE" fill-opacity="0.3"/>
</g>
<defs>
<clipPath id="clip0_591_7866">
<rect width="409" height="73.6817" fill="white"/>
</clipPath>
</defs>
</svg>
