<svg width="172" height="64" viewBox="0 0 172 64" fill="none" xmlns="http://www.w3.org/2000/svg">
<path d="M50.2432 35.1611V46.6159H47.4824V49.5345H44.4707V51.9825H41.8981V55.3089H39.2001V57.6941H33.2079V54.7442H30.4472V49.1423H33.4432V46.2865H30.4315V49.1266H27.7491V57.7255H22.1648V54.8069H19.404V51.8256H16.3923V49.0639H13.7256V38.2366H17.0511V35.1611H19.404V32.7134H22.0079V26.8446H24.9256V18.3401H22.0707V12.7539H19.404V10.2432H27.5923V12.7539H30.6981V15.5156H36.1256V18.4342H38.9491V20.9447H41.804V24.1145H44.6589V29.7321H47.4197V35.1611H50.2432Z" fill="#F4463B"/>
<path d="M41.8039 37.7133V46.2899H38.8863V49.0862H36.0941V57.6942H33.2079V54.7725H30.4471V49.1646H33.4431V46.3056H30.4314V49.1489H27.749V57.7256H24.9534V54.8666H22.1647V46.2899H19.2471V43.3055H22.102V37.8077H25.0196V35.1687H27.8118V32.3728H30.5412V29.7023H33.5216L33.4588 23.9216H36.3137V35.1373H38.949V37.7133H41.8039Z" fill="#FFAF00"/>
<path d="M33.4429 21.0824H30.5566V23.8746H33.4429V21.0824Z" fill="#FFAF00"/>
<path d="M22.3531 4.5647H19.4668V7.43529H22.3531V4.5647Z" fill="#F1453B"/>
<path d="M44.5806 4.58044H41.6943V7.3726H44.5806V4.58044Z" fill="#F1453B"/>
<path d="M24.9722 35.106H22.0859V37.7413H24.9722V35.106Z" fill="#CF453B"/>
<path d="M24.9722 32.4078H22.0859V34.949H24.9722V32.4078Z" fill="#CF453B"/>
<path d="M19.4507 40.6274H16.5645V43.1686H19.4507V40.6274Z" fill="#CF453B"/>
<path d="M36.3609 21.0824H33.4746V23.8746H36.3609V21.0824Z" fill="#CF453B"/>
<path d="M47.4039 32.8157H44.5176V35.3569H47.4039V32.8157Z" fill="#CF453B"/>
<path d="M47.4039 32.4078H44.5176V34.949H47.4039V32.4078Z" fill="#CF453B"/>
<path d="M39.2466 29.7097H36.3604V32.2509H39.2466V29.7097Z" fill="#CF453B"/>
<path d="M19.4507 49.0664H16.5645V51.6076H19.4507V49.0664Z" fill="#CF453B"/>
<path d="M39.0904 55.2784H36.2041V57.6628H39.0904V55.2784Z" fill="#CF453B"/>
<path d="M47.4039 46.651H44.5176V49.1922H47.4039V46.651Z" fill="#CF453B"/>
<path d="M27.5767 15.8431H24.9414V18.3216H27.5767V15.8431Z" fill="#CF453B"/>
<path d="M27.5767 12.7687H24.9414V15.7804H27.5767V12.7687Z" fill="#CF453B"/>
<path d="M24.8781 10.2588H22.0859V12.7058H24.8781V10.2588Z" fill="#D2453B"/>
<path d="M27.7333 32.4078H25.0039V34.8549H27.7333V32.4078Z" fill="#D2453B"/>
<path d="M27.6708 29.7412H24.9414V32.1883H27.6708V29.7412Z" fill="#D2453B"/>
<path d="M30.6828 15.8431H27.6396V18.3216H30.6828V15.8431Z" fill="#D2453B"/>
<path d="M44.455 32.4078H41.7256V35.3569H44.455V32.4078Z" fill="#D2453B"/>
<path d="M47.122 40.3765H44.3926V43.3882H47.122V40.3765Z" fill="#D2453B"/>
<path d="M44.643 24.0941H41.7881V27.2941H44.643V24.0941Z" fill="#D2453B"/>
<path d="M27.5767 10.2588H24.9414V12.7058H27.5767V10.2588Z" fill="#CF453B"/>
<path d="M41.6939 10.1333H38.8076V12.9255H41.6939V10.1333Z" fill="#F1453B"/>
<path d="M44.6744 13.0197H41.7881V15.8118H44.6744V13.0197Z" fill="#F1453B"/>
<path d="M50.3218 26.855H47.4355V29.6471H50.3218V26.855Z" fill="#F1453B"/>
<path d="M38.9644 35.0745H36.3291V37.6156H38.9644V35.0745Z" fill="#E7A11B"/>
<path d="M36.2037 38.0863H33.5684V40.6275H36.2037V38.0863Z" fill="#E7A11B"/>
<path d="M25.0035 37.8403H22.1172V40.4079H25.0035V37.8403Z" fill="#E7A11B"/>
<path d="M27.8899 37.8403H25.0664V40.4079H27.8899V37.8403Z" fill="#ECAA19"/>
<path d="M41.6624 43.2314H38.8389V45.8981H41.6624V43.2314Z" fill="#ECAA2F"/>
<path d="M38.8389 46.2118H36.0781V49.0861H38.8389V46.2118Z" fill="#ECAA2F"/>
<path d="M41.7884 37.7412H38.9648V40.4079H41.7884V37.7412Z" fill="#ECAA2F"/>
<path d="M33.2552 32.4078H30.4316V35.0745H33.2552V32.4078Z" fill="#ECAA2F"/>
<path d="M33.2552 29.647H30.4316V32.3136H33.2552V29.647Z" fill="#ECAA2F"/>
<path d="M30.8392 37.8403H28.0156V40.4079H30.8392V37.8403Z" fill="#E7A11B"/>
<path d="M25.0037 40.5333H22.1494V43.2314H25.0037V40.5333Z" fill="#E7A11B"/>
<path d="M25.0037 43.2941H22.1494V46.2431H25.0037V43.2941Z" fill="#E7A11B"/>
<path d="M25.0042 46.2947H22.1807V49.1609H25.0042V46.2947Z" fill="#E7A11B"/>
<path d="M25.0042 49.1924H22.1807V52.0473H25.0042V49.1924Z" fill="#E7A11B"/>
<path d="M27.733 49.2051H25.0977V52.0471H27.733V49.2051Z" fill="#E7A11B"/>
<path d="M30.4312 46.3083H28.0469V49.098H30.4312V46.3083Z" fill="#E7A11B"/>
<path d="M27.9212 43.2942H25.0977V46.2432H27.9212V43.2942Z" fill="#E7A11B"/>
<path d="M30.8704 43.2941H28.0469V46.2431H30.8704V43.2941Z" fill="#E7A11B"/>
<path d="M22.0767 43.3568H19.2939V46.2431H22.0767V43.3568Z" fill="#E7A11B"/>
<path d="M27.9212 40.5333H25.0977V43.2314H27.9212V40.5333Z" fill="#E7A11B"/>
<path d="M30.8392 40.5333H28.0156V43.2314H30.8392V40.5333Z" fill="#E7A11B"/>
<path d="M33.4434 40.5333H30.9336V43.2314H33.4434V40.5333Z" fill="#E7A11B"/>
<path d="M36.3295 23.9059H33.4746V26.6039H36.3295V23.9059Z" fill="#E7A11B"/>
<path d="M36.2983 32.4078H33.4434V35.1059H36.2983V32.4078Z" fill="#E7A11B"/>
<path d="M36.2983 29.6471H33.4434V32.3451H36.2983V29.6471Z" fill="#E7A11B"/>
<path d="M36.0159 43.3254H33.4434V46.2757H36.0159V43.3254Z" fill="#E7A11B"/>
<path d="M36.0159 46.3083H33.4434V49.1419H36.0159V46.3083Z" fill="#E7A11B"/>
<path d="M36.0158 51.796H33.2236V54.745H36.0158V51.796Z" fill="#E7A11B"/>
<path d="M19.7017 21.2393H16.8154V24.0314H19.7017V21.2393Z" fill="#F1453B"/>
<path d="M16.816 24.0314H13.9297V26.8235H16.816V24.0314Z" fill="#F1453B"/>
<path d="M19.4507 7.43555H16.5645V10.2277H19.4507V7.43555Z" fill="#F1453B"/>
<path d="M33.4433 49.1423H30.4473V49.2051H33.4433V49.1423Z" fill="#FFAF00"/>
<path d="M78.25 15.6H88.25V50H78.25V15.6ZM90.35 41.95H101.05V50H90.35V41.95ZM110.151 12.85H119.401V20.05H110.151V12.85ZM110.151 24.5H119.401V50H110.151V24.5ZM128.392 24.5H133.092V17.1H142.342V24.5H147.942V31.55H128.392V24.5ZM133.092 33.55H142.342V50H133.092V33.55Z" fill="#21201E"/>
</svg>
