<svg width="152" height="64" viewBox="0 0 152 64" fill="none" xmlns="http://www.w3.org/2000/svg">
<path d="M76.5961 15.9738H85.7919V47.6074H76.5961V15.9738ZM87.7231 40.2048H97.5626V47.6074H87.7231V40.2048ZM105.931 13.445H114.438V20.066H105.931V13.445ZM105.931 24.1581H114.438V47.6074H105.931V24.1581ZM122.706 24.1581H127.028V17.3532H135.534V24.1581H140.684V30.6411H122.706V24.1581ZM127.028 32.4803H135.534V47.6074H127.028V32.4803Z" fill="white"/>
<path d="M49.5414 34.6709V45.9659H46.8191V48.8437H43.8494V51.2576H41.3127V54.5376H38.6523V56.8896H32.7438V53.9808H30.0215V48.4571H32.9758V45.641H30.006V48.4416H27.3611V56.9205H21.8547V54.0427H19.1324V51.1029H16.1627V48.3797H13.5332V37.7035H16.8123V34.6709H19.1324V32.2574H21.7V26.4704H24.577V18.0846H21.7619V12.5763H19.1324V10.1006H27.2064V12.5763H30.269V15.2995H35.6207V18.1774H38.4048V20.6528H41.2199V23.7784H44.035V29.3176H46.7573V34.6709H49.5414Z" fill="#F4463B"/>
<path d="M41.2207 37.1872V45.6441H38.3437V48.4014H35.5905V56.8893H32.7445V54.0083H30.0223V48.4787H32.9765V45.6596H30.0068V48.4632H27.3619V56.9202H24.6053V54.1011H21.8555V45.6441H18.9785V42.7013H21.7936V37.2803H24.6705V34.678H27.4237V31.9211H30.1151V29.288H33.0539L32.992 23.5879H35.8071V34.6471H38.4056V37.1872H41.2207Z" fill="#FFAF00"/>
<path d="M32.9769 20.7881H30.1309V23.5413H32.9769V20.7881Z" fill="#FFAF00"/>
<path d="M22.0413 4.50098H19.1953V7.33152H22.0413V4.50098Z" fill="#F1453B"/>
<path d="M43.9583 4.5166H41.1123V7.26981H43.9583V4.5166Z" fill="#F1453B"/>
<path d="M24.6243 34.6162H21.7783V37.2147H24.6243V34.6162Z" fill="#CF453B"/>
<path d="M24.6243 31.9561H21.7783V34.4618H24.6243V31.9561Z" fill="#CF453B"/>
<path d="M19.179 40.0605H16.333V42.5663H19.179V40.0605Z" fill="#CF453B"/>
<path d="M35.8538 20.7881H33.0078V23.5413H35.8538V20.7881Z" fill="#CF453B"/>
<path d="M46.7425 32.3574H43.8965V34.8631H46.7425V32.3574Z" fill="#CF453B"/>
<path d="M46.7425 31.9561H43.8965V34.4618H46.7425V31.9561Z" fill="#CF453B"/>
<path d="M38.6995 29.2949H35.8535V31.8006H38.6995V29.2949Z" fill="#CF453B"/>
<path d="M19.179 48.3818H16.333V50.8876H19.179V48.3818Z" fill="#CF453B"/>
<path d="M38.5443 54.5078H35.6982V56.8589H38.5443V54.5078Z" fill="#CF453B"/>
<path d="M46.7425 46H43.8965V48.5057H46.7425V46Z" fill="#CF453B"/>
<path d="M27.1913 15.6221H24.5928V18.0659H27.1913V15.6221Z" fill="#CF453B"/>
<path d="M27.1913 12.5906H24.5928V15.5603H27.1913V12.5906Z" fill="#CF453B"/>
<path d="M24.5315 10.1152H21.7783V12.5282H24.5315V10.1152Z" fill="#D2453B"/>
<path d="M27.3466 31.9561H24.6553V34.369H27.3466V31.9561Z" fill="#D2453B"/>
<path d="M27.2841 29.3264H24.5928V31.7393H27.2841V29.3264Z" fill="#D2453B"/>
<path d="M30.2546 15.6221H27.2539V18.0659H30.2546V15.6221Z" fill="#D2453B"/>
<path d="M43.8339 31.9561H41.1426V34.8639H43.8339V31.9561Z" fill="#D2453B"/>
<path d="M46.4638 39.8135H43.7725V42.7832H46.4638V39.8135Z" fill="#D2453B"/>
<path d="M44.0202 23.7578H41.2051V26.9132H44.0202V23.7578Z" fill="#D2453B"/>
<path d="M27.1913 10.1152H24.5928V12.5282H27.1913V10.1152Z" fill="#CF453B"/>
<path d="M41.1126 9.99194H38.2666V12.7451H41.1126V9.99194Z" fill="#F1453B"/>
<path d="M44.0511 12.8379H41.2051V15.5911H44.0511V12.8379Z" fill="#F1453B"/>
<path d="M49.6194 26.4805H46.7734V29.2337H49.6194V26.4805Z" fill="#F1453B"/>
<path d="M38.4208 34.585H35.8223V37.0907H38.4208V34.585Z" fill="#E7A11B"/>
<path d="M35.6991 37.5547H33.1006V40.0604H35.6991V37.5547Z" fill="#E7A11B"/>
<path d="M24.6546 37.3125H21.8086V39.8442H24.6546V37.3125Z" fill="#E7A11B"/>
<path d="M27.5019 37.3125H24.7178V39.8442H27.5019V37.3125Z" fill="#ECAA19"/>
<path d="M41.082 42.6279H38.2979V45.2574H41.082V42.6279Z" fill="#ECAA2F"/>
<path d="M38.2975 45.5674H35.5752V48.4016H38.2975V45.5674Z" fill="#ECAA2F"/>
<path d="M41.206 37.2148H38.4219V39.8443H41.206V37.2148Z" fill="#ECAA2F"/>
<path d="M32.791 31.9561H30.0068V34.5855H32.791V31.9561Z" fill="#ECAA2F"/>
<path d="M32.791 29.2336H30.0068V31.8631H32.791V29.2336Z" fill="#ECAA2F"/>
<path d="M30.4091 37.3125H27.625V39.8442H30.4091V37.3125Z" fill="#E7A11B"/>
<path d="M24.6553 39.9678H21.8408V42.6282H24.6553V39.9678Z" fill="#E7A11B"/>
<path d="M24.6553 42.6904H21.8408V45.5983H24.6553V42.6904Z" fill="#E7A11B"/>
<path d="M24.6552 45.6484H21.8711V48.4746H24.6552V45.6484Z" fill="#E7A11B"/>
<path d="M24.6552 48.5059H21.8711V51.3209H24.6552V48.5059Z" fill="#E7A11B"/>
<path d="M27.3466 48.5186H24.748V51.3209H27.3466V48.5186Z" fill="#E7A11B"/>
<path d="M30.0073 45.6621H27.6562V48.4128H30.0073V45.6621Z" fill="#E7A11B"/>
<path d="M27.5322 42.6904H24.748V45.5983H27.5322V42.6904Z" fill="#E7A11B"/>
<path d="M30.4404 42.6904H27.6562V45.5983H30.4404V42.6904Z" fill="#E7A11B"/>
<path d="M21.7693 42.752H19.0254V45.598H21.7693V42.752Z" fill="#E7A11B"/>
<path d="M27.5322 39.9678H24.748V42.6282H27.5322V39.9678Z" fill="#E7A11B"/>
<path d="M30.4091 39.9678H27.625V42.6282H30.4091V39.9678Z" fill="#E7A11B"/>
<path d="M32.9758 39.9678H30.501V42.6282H32.9758V39.9678Z" fill="#E7A11B"/>
<path d="M35.8229 23.5723H33.0078V26.2327H35.8229V23.5723Z" fill="#E7A11B"/>
<path d="M35.7916 31.9561H32.9766V34.6165H35.7916V31.9561Z" fill="#E7A11B"/>
<path d="M35.7916 29.2334H32.9766V31.8938H35.7916V29.2334Z" fill="#E7A11B"/>
<path d="M35.5132 42.7207H32.9766V45.6298H35.5132V42.7207Z" fill="#E7A11B"/>
<path d="M35.5132 45.6621H32.9766V48.4561H35.5132V45.6621Z" fill="#E7A11B"/>
<path d="M35.5139 51.0732H32.7607V53.9811H35.5139V51.0732Z" fill="#E7A11B"/>
<path d="M19.4271 20.9434H16.5811V23.6966H19.4271V20.9434Z" fill="#F1453B"/>
<path d="M16.5814 23.6963H13.7354V26.4495H16.5814V23.6963Z" fill="#F1453B"/>
<path d="M19.179 7.33105H16.333V10.0843H19.179V7.33105Z" fill="#F1453B"/>
<path d="M32.9767 48.457H30.0225V48.5189H32.9767V48.457Z" fill="#FFAF00"/>
</svg>
