<svg width="36" height="36" viewBox="0 0 36 36" fill="none" xmlns="http://www.w3.org/2000/svg">
<mask id="mask0_825_5946" style="mask-type:alpha" maskUnits="userSpaceOnUse" x="0" y="0" width="36" height="36">
<circle cx="17.8887" cy="18.291" r="17.5" fill="#C4C4C4"/>
</mask>
<g mask="url(#mask0_825_5946)">
<rect x="-29.4141" y="-34.209" width="115.743" height="70" fill="#F88125"/>
</g>
<path d="M17.6201 6.79102C15.4378 6.79378 13.3456 7.72536 11.8025 9.38141C10.2593 11.0375 9.39126 13.2828 9.38868 15.6248C9.38607 17.5387 9.96861 19.4006 11.0469 20.925C11.0469 20.925 11.2714 21.2422 11.3081 21.288L17.6201 29.2769L23.9351 21.284C23.9681 21.2414 24.1933 20.925 24.1933 20.925L24.194 20.9226C25.2718 19.3989 25.8541 17.5378 25.8516 15.6248C25.849 13.2828 24.9809 11.0375 23.4378 9.38141C21.8946 7.72536 19.8024 6.79378 17.6201 6.79102ZM17.6201 18.837C17.0281 18.837 16.4494 18.6486 15.9572 18.2957C15.4649 17.9427 15.0813 17.441 14.8547 16.854C14.6282 16.2671 14.5689 15.6212 14.6844 14.9981C14.7999 14.375 15.085 13.8026 15.5036 13.3533C15.9222 12.9041 16.4555 12.5982 17.0362 12.4742C17.6168 12.3503 18.2186 12.4139 18.7656 12.657C19.3125 12.9001 19.78 13.3119 20.1089 13.8401C20.4378 14.3684 20.6134 14.9894 20.6134 15.6248C20.6124 16.4764 20.2967 17.2928 19.7356 17.895C19.1744 18.4972 18.4137 18.836 17.6201 18.837Z" fill="white"/>
</svg>
