<svg width="233" height="52" viewBox="0 0 233 52" fill="none" xmlns="http://www.w3.org/2000/svg">
<g clip-path="url(#clip0_591_7858)">
<rect width="233" height="52" fill="#0C2647"/>
<path d="M93.3113 32.8734L93.2829 19.7825L96.0506 19.7765L96.0741 30.5855L101.686 30.5733L101.691 32.8552L93.3113 32.8734ZM107.91 33.0335C106.917 33.0356 106.058 32.8266 105.332 32.4063C104.611 31.9817 104.054 31.3906 103.66 30.6329C103.266 29.871 103.068 28.9872 103.066 27.9815C103.064 26.9673 103.258 26.0805 103.648 25.3211C104.039 24.5575 104.594 23.9639 105.313 23.5405C106.036 23.1128 106.895 22.8979 107.888 22.8957C108.88 22.8935 109.737 23.1048 110.459 23.5293C111.184 23.9496 111.743 24.5407 112.137 25.3027C112.531 26.0603 112.729 26.9463 112.731 27.9605C112.733 28.9662 112.539 29.8508 112.149 30.6144C111.758 31.3738 111.201 31.9674 110.478 32.3951C109.759 32.8185 108.902 33.0313 107.91 33.0335ZM107.918 30.9241C108.369 30.9231 108.746 30.7944 109.048 30.5381C109.35 30.2775 109.578 29.9233 109.73 29.4755C109.887 29.0277 109.964 28.5183 109.963 27.9473C109.962 27.3763 109.882 26.8672 109.723 26.4201C109.569 25.973 109.34 25.6198 109.037 25.3605C108.734 25.1013 108.357 24.9721 107.905 24.9731C107.449 24.9741 107.066 25.1049 106.755 25.3655C106.449 25.6261 106.217 25.9803 106.061 26.4281C105.908 26.8759 105.833 27.3853 105.834 27.9563C105.835 28.5273 105.913 29.0364 106.067 29.4835C106.226 29.9306 106.459 30.2838 106.766 30.543C107.078 30.7981 107.462 30.9251 107.918 30.9241ZM118.944 36.7041C118.062 36.706 117.305 36.5862 116.674 36.3447C116.047 36.1074 115.548 35.7825 115.176 35.37C114.804 34.9574 114.563 34.4934 114.451 33.9781L116.968 33.6338C117.046 33.8297 117.167 34.0126 117.334 34.1827C117.501 34.3528 117.72 34.4887 117.993 34.5904C118.27 34.6963 118.607 34.7489 119.004 34.748C119.596 34.7467 120.083 34.6008 120.466 34.3102C120.853 34.0238 121.046 33.544 121.045 32.8707L121.041 31.0745L120.926 31.0748C120.807 31.3478 120.629 31.606 120.391 31.8494C120.153 32.0928 119.846 32.2916 119.472 32.4458C119.097 32.6001 118.65 32.6777 118.13 32.6789C117.392 32.6805 116.721 32.5115 116.115 32.1719C115.513 31.828 115.033 31.3028 114.673 30.5962C114.318 29.8853 114.139 28.9865 114.137 27.8999C114.135 26.7877 114.314 25.8583 114.674 25.1118C115.035 24.3653 115.515 23.806 116.115 23.4339C116.72 23.0619 117.382 22.8751 118.102 22.8735C118.652 22.8723 119.112 22.9651 119.483 23.1518C119.854 23.3342 120.153 23.5637 120.38 23.8402C120.61 24.1124 120.788 24.3805 120.912 24.6444L121.014 24.6442L121.011 22.995L123.714 22.9892L123.736 32.9032C123.738 33.7384 123.535 34.4377 123.127 35.0011C122.719 35.5645 122.153 35.9876 121.429 36.2704C120.71 36.5575 119.881 36.7021 118.944 36.7041ZM118.988 30.6316C119.427 30.6306 119.798 30.5211 120.1 30.3031C120.406 30.0809 120.64 29.765 120.801 29.3556C120.966 28.9419 121.048 28.4474 121.047 27.8721C121.046 27.2968 120.964 26.7984 120.801 26.3769C120.638 25.9511 120.403 25.6214 120.095 25.3877C119.788 25.1539 119.415 25.0376 118.976 25.0385C118.529 25.0395 118.152 25.1618 117.845 25.4053C117.539 25.6446 117.308 25.9775 117.151 26.404C116.994 26.8305 116.916 27.3228 116.918 27.8811C116.919 28.4478 116.999 28.9377 117.157 29.3507C117.32 29.7595 117.553 30.0764 117.856 30.3016C118.163 30.5225 118.541 30.6325 118.988 30.6316ZM125.903 32.8026L125.881 22.9845L128.604 22.9785L128.626 32.7967L125.903 32.8026ZM127.247 21.7159C126.842 21.7167 126.494 21.5833 126.204 21.3154C125.918 21.0433 125.774 20.7176 125.773 20.3384C125.773 19.9634 125.915 19.6413 126.2 19.3722C126.489 19.0989 126.836 18.9618 127.241 18.9609C127.645 18.96 127.991 19.0956 128.277 19.3677C128.567 19.6356 128.713 19.957 128.714 20.332C128.715 20.7112 128.57 21.0376 128.281 21.3109C127.996 21.58 127.651 21.715 127.247 21.7159ZM133.518 27.1099L133.53 32.786L130.807 32.792L130.786 22.9738L133.381 22.9682L133.385 24.7004L133.5 24.7002C133.716 24.1287 134.079 23.6762 134.59 23.3427C135.1 23.0049 135.72 22.8352 136.449 22.8337C137.131 22.8322 137.725 22.98 138.233 23.2772C138.741 23.5744 139.136 23.9997 139.418 24.5531C139.701 25.1022 139.843 25.7581 139.845 26.5209L139.858 32.7723L137.135 32.7782L137.123 27.0126C137.126 26.4117 136.971 25.9433 136.659 25.6074C136.347 25.2671 135.919 25.0976 135.373 25.0988C135.007 25.0996 134.683 25.1791 134.402 25.3374C134.126 25.4957 133.909 25.7263 133.752 26.0292C133.599 26.3278 133.521 26.688 133.518 27.1099Z" fill="white"/>
<rect x="75.0703" y="-36.7617" width="20" height="154" transform="rotate(35.0791 75.0703 -36.7617)" fill="white" fill-opacity="0.15"/>
<rect x="108.07" y="-36.7617" width="14.1191" height="154" transform="rotate(35.0791 108.07 -36.7617)" fill="white" fill-opacity="0.15"/>
</g>
<defs>
<clipPath id="clip0_591_7858">
<rect width="233" height="52" fill="white"/>
</clipPath>
</defs>
</svg>
