<svg width="36" height="36" viewBox="0 0 36 36" fill="none" xmlns="http://www.w3.org/2000/svg">
<mask id="mask0_825_5947" style="mask-type:alpha" maskUnits="userSpaceOnUse" x="0" y="0" width="36" height="36">
<circle cx="17.8887" cy="18.291" r="17.5" fill="#C4C4C4"/>
</mask>
<g mask="url(#mask0_825_5947)">
<rect x="-29.4131" y="-34.209" width="115.743" height="70" fill="#F88125"/>
</g>
<path d="M26.2864 17.863H28.5603C28.5603 12.0234 24.1569 7.61914 18.3164 7.61914V9.89582C22.9347 9.89582 26.2864 13.2459 26.2864 17.863Z" fill="white"/>
<path d="M18.2402 14.6346C20.5581 14.6346 21.5468 15.6232 21.5468 17.9409H23.7513C23.7513 14.3866 21.7948 12.4303 18.2402 12.4303V14.6346ZM22.012 20.6335C21.8002 20.441 21.5219 20.3383 21.2358 20.3472C20.9497 20.356 20.6783 20.4757 20.4788 20.6809L17.8412 23.3932C17.2063 23.272 15.93 22.8741 14.6161 21.5637C13.3023 20.2488 12.9044 18.9692 12.7865 18.3388L15.4968 15.7003C15.7023 15.501 15.8221 15.2295 15.8309 14.9434C15.8398 14.6572 15.7369 14.3789 15.5442 14.1672L11.4715 9.68929C11.2787 9.47697 11.0107 9.34818 10.7244 9.33028C10.4381 9.31237 10.1561 9.40676 9.93834 9.5934L7.54654 11.6445C7.35598 11.8357 7.24224 12.0902 7.2269 12.3598C7.21037 12.6353 6.89514 19.1621 11.9565 24.2253C16.372 28.6393 21.9028 28.9623 23.4261 28.9623C23.6488 28.9623 23.7854 28.9557 23.8218 28.9535C24.0913 28.9384 24.3457 28.8241 24.536 28.6327L26.5861 26.24C26.7729 26.0224 26.8675 25.7405 26.8498 25.4542C26.8321 25.168 26.7035 24.8999 26.4914 24.7069L22.012 20.6335Z" fill="white"/>
</svg>
