<svg width="345" height="63" viewBox="0 0 345 63" fill="none" xmlns="http://www.w3.org/2000/svg">
<g clip-path="url(#clip0_1145_5984)">
<rect width="345" height="62.152" fill="#0C2647"/>
<path d="M136.047 38.6523L136.013 22.9023L149.513 22.873L149.518 25.123L151.768 25.1181L151.783 31.8681L149.533 31.873L149.537 34.123L140.537 34.1425L140.547 38.6425L136.047 38.6523ZM140.533 31.8925L147.283 31.8779L147.268 25.1279L140.518 25.1425L140.533 31.8925ZM156.297 38.6083L156.263 22.8583L160.763 22.8486L160.792 36.3485L169.792 36.329L169.797 38.579L156.297 38.6083ZM172.047 38.5741L172.023 27.3241L174.273 27.3192L174.268 25.0692L176.518 25.0643L176.513 22.8143L183.263 22.7997L183.268 25.0497L185.518 25.0448L185.523 27.2948L187.773 27.2899L187.797 38.5399L183.297 38.5496L183.287 34.0496L176.537 34.0643L176.547 38.5643L172.047 38.5741ZM176.532 31.8143L183.282 31.7997L183.273 27.2997L181.023 27.3046L181.018 25.0546L178.768 25.0594L178.773 27.3094L176.523 27.3143L176.532 31.8143ZM196.797 38.5203L196.782 31.7703L194.532 31.7752L194.528 29.5252L192.278 29.5301L192.263 22.7801L196.763 22.7703L196.778 29.5203L201.278 29.5106L201.263 22.7606L205.763 22.7508L205.778 29.5008L203.528 29.5057L203.532 31.7557L201.282 31.7605L201.297 38.5105L196.797 38.5203Z" fill="white"/>
<rect x="75.0703" y="-36.7617" width="20" height="154" transform="rotate(35.0791 75.0703 -36.7617)" fill="white" fill-opacity="0.15"/>
<rect x="108.07" y="-36.7617" width="14.1191" height="154" transform="rotate(35.0791 108.07 -36.7617)" fill="white" fill-opacity="0.15"/>
</g>
<defs>
<clipPath id="clip0_1145_5984">
<rect width="345" height="62.152" fill="white"/>
</clipPath>
</defs>
</svg>
