<svg width="148" height="112" viewBox="0 0 148 112" fill="none" xmlns="http://www.w3.org/2000/svg">
<rect width="148" height="112" rx="8" fill="#0C2647"/>
<path d="M63.9167 26C64.9167 25 64.1667 22 62.4787 22C60.7907 22 60.9167 24 61.9167 24C62.9167 24 62.9167 26 62.9167 27C62.9167 28 63.9167 26 63.9167 26ZM59.7337 27.72C60.7337 26.72 59.9837 23.72 58.2957 23.72C56.6077 23.72 56.7337 25.72 57.7337 25.72C58.7337 25.72 58.7337 27.72 58.7337 28.72C58.7337 29.72 59.7337 27.72 59.7337 27.72Z" fill="#AA8DD8"/>
<path d="M86.1088 54.856C86.2978 55.664 87.3358 57.136 88.1408 56.947C88.9468 56.757 89.2178 54.976 89.0288 54.17C88.8398 53.362 88.0308 52.863 87.2248 53.053C86.4198 53.243 85.9188 54.05 86.1088 54.856V54.856ZM80.6748 55.505C80.6778 56.335 81.3558 58.003 82.1838 58C83.0118 57.996 83.6778 56.323 83.6748 55.494C83.6718 54.665 82.9978 53.997 82.1698 53.999C81.3418 54.003 80.6718 54.676 80.6748 55.505V55.505ZM75.4038 53.059C75.0778 53.823 75.0388 55.622 75.7998 55.949C76.5628 56.273 77.8368 55.002 78.1628 54.239C78.4878 53.477 78.1348 52.596 77.3738 52.269C76.6118 51.944 75.7308 52.296 75.4038 53.059V53.059ZM70.3728 42.019C69.5608 42.191 68.0648 43.192 68.2338 44.002C68.4068 44.812 70.1788 45.126 70.9908 44.955C71.8018 44.784 72.3198 43.988 72.1508 43.178C71.9788 42.368 71.1858 41.848 70.3728 42.019ZM68.3358 37.019C67.5238 37.191 66.0278 38.192 66.1968 39.002C66.3698 39.812 68.1418 40.126 68.9538 39.955C69.7648 39.784 70.2828 38.988 70.1138 38.178C69.9418 37.368 69.1478 36.848 68.3358 37.019V37.019Z" fill="#744EAA"/>
<path d="M83.7451 56C86.5761 56 88.6711 55.123 89.0111 54.973C91.2821 53.963 92.3041 51.304 91.2951 49.034C90.2961 46.784 87.6791 45.759 85.4231 46.72C85.2901 46.77 83.6301 47.369 82.0801 46.648C80.2291 45.787 79.0851 43.339 78.4521 41.439C78.3081 41.009 78.0671 40.165 77.7661 39.123C75.9001 32.652 74.9341 30.838 73.7831 29.303C70.0721 24.352 64.1911 24.007 61.3001 24.587C58.8631 25.074 57.2821 27.445 57.7701 29.882C58.2581 32.32 60.6301 33.902 63.0661 33.412C63.2281 33.386 65.2701 33.106 66.4901 34.581C67.1331 35.868 68.5701 39.709 69.1201 41.615C69.4661 42.814 69.7491 43.786 69.9141 44.282C71.6871 49.599 74.5801 53.175 78.5171 54.911C80.3691 55.729 82.1711 56 83.7451 56Z" fill="#9266CC"/>
<path d="M63.1836 28C63.7359 28 64.1836 27.5523 64.1836 27C64.1836 26.4477 63.7359 26 63.1836 26C62.6313 26 62.1836 26.4477 62.1836 27C62.1836 27.5523 62.6313 28 63.1836 28Z" fill="#202024"/>
<path d="M87.4241 54.964C87.3351 54.964 87.2441 54.952 87.1551 54.928C86.6231 54.78 86.3111 54.229 86.4591 53.697C87.2161 50.975 85.6891 49.155 85.6741 49.137C85.3151 48.718 85.3621 48.086 85.7811 47.727C86.1991 47.368 86.8321 47.415 87.1911 47.834C87.2831 47.941 89.4251 50.494 88.3861 54.231C88.2641 54.674 87.8611 54.964 87.4241 54.964V54.964ZM80.2251 54.401C79.9801 54.401 79.7351 54.312 79.5411 54.131C79.1381 53.753 79.1171 53.12 79.4941 52.717C80.9791 51.13 80.9471 48.524 80.9461 48.497C80.9301 47.945 81.3651 47.485 81.9181 47.469C82.4601 47.464 82.9311 47.888 82.9461 48.441C82.9501 48.58 83.0191 51.878 80.9551 54.085C80.7581 54.295 80.4911 54.401 80.2251 54.401V54.401ZM71.6831 45.705C71.2031 45.705 70.7791 45.358 70.6981 44.868C70.6081 44.324 70.9761 43.808 71.5211 43.719C74.5951 43.209 76.2951 41.342 76.3121 41.323C76.6771 40.913 77.3101 40.874 77.7211 41.239C78.1331 41.604 78.1741 42.232 77.8121 42.645C77.7251 42.744 75.6561 45.06 71.8481 45.691C71.7921 45.701 71.7371 45.705 71.6831 45.705V45.705ZM74.6041 50.562C74.1791 50.562 73.7851 50.29 73.6501 49.864C73.4841 49.338 73.7761 48.775 74.3021 48.609C76.9951 47.756 78.1821 45.779 78.1941 45.759C78.4741 45.282 79.0861 45.122 79.5621 45.402C80.0391 45.681 80.1981 46.295 79.9191 46.77C79.8561 46.878 78.3241 49.433 74.9061 50.514C74.8051 50.547 74.7031 50.562 74.6041 50.562V50.562ZM69.9851 39.892C69.4891 39.892 69.0581 39.523 68.9941 39.017C68.9251 38.469 69.3131 37.969 69.8611 37.899C72.5501 37.559 74.5181 35.928 74.5371 35.911C74.9591 35.557 75.5901 35.608 75.9451 36.03C76.3011 36.451 76.2501 37.08 75.8301 37.437C75.7331 37.52 73.4101 39.466 70.1121 39.883C70.0691 39.889 70.0271 39.892 69.9851 39.892V39.892ZM68.1641 35.125C67.7391 35.125 67.3451 34.852 67.2101 34.424C67.0451 33.897 67.3371 33.336 67.8641 33.17C70.9941 32.187 72.1171 30.478 72.1631 30.406C72.4581 29.944 73.0741 29.801 73.5381 30.094C74.0031 30.386 74.1491 30.993 73.8621 31.46C73.8021 31.557 72.3561 33.856 68.4631 35.079C68.3641 35.11 68.2631 35.125 68.1641 35.125V35.125Z" fill="#744EAA"/>
<path d="M43.7006 85V74.8182H47.3299C48.122 74.8182 48.7783 74.9624 49.2987 75.2507C49.819 75.5391 50.2085 75.9335 50.467 76.4339C50.7255 76.9311 50.8548 77.4912 50.8548 78.1143C50.8548 78.7408 50.7238 79.3042 50.462 79.8047C50.2035 80.3018 49.8124 80.6963 49.2887 80.9879C48.7683 81.2763 48.1138 81.4205 47.3249 81.4205H44.8292V80.1179H47.1857C47.6862 80.1179 48.0922 80.0317 48.4038 79.8594C48.7153 79.6837 48.944 79.4451 49.0898 79.1435C49.2357 78.8419 49.3086 78.4988 49.3086 78.1143C49.3086 77.7299 49.2357 77.3885 49.0898 77.0902C48.944 76.7919 48.7137 76.5582 48.3988 76.3892C48.0872 76.2202 47.6763 76.1357 47.1658 76.1357H45.2369V85H43.7006ZM52.5364 85V77.3636H53.9732V78.5767H54.0527C54.1919 78.1657 54.4372 77.8426 54.7885 77.6072C55.1432 77.3686 55.5442 77.2493 55.9917 77.2493C56.0845 77.2493 56.1938 77.2526 56.3198 77.2592C56.449 77.2659 56.5501 77.2741 56.623 77.2841V78.706C56.5634 78.6894 56.4573 78.6712 56.3049 78.6513C56.1524 78.6281 55.9999 78.6165 55.8475 78.6165C55.4962 78.6165 55.1829 78.6911 54.9078 78.8402C54.6361 78.986 54.4206 79.1899 54.2615 79.4517C54.1025 79.7102 54.0229 80.0052 54.0229 80.3366V85H52.5364ZM60.8526 85.1541C60.1367 85.1541 59.512 84.9901 58.9783 84.6619C58.4447 84.3338 58.0304 83.8748 57.7354 83.2848C57.4405 82.6948 57.293 82.0054 57.293 81.2166C57.293 80.4245 57.4405 79.7318 57.7354 79.1385C58.0304 78.5452 58.4447 78.0845 58.9783 77.7564C59.512 77.4283 60.1367 77.2642 60.8526 77.2642C61.5685 77.2642 62.1933 77.4283 62.7269 77.7564C63.2605 78.0845 63.6748 78.5452 63.9698 79.1385C64.2648 79.7318 64.4123 80.4245 64.4123 81.2166C64.4123 82.0054 64.2648 82.6948 63.9698 83.2848C63.6748 83.8748 63.2605 84.3338 62.7269 84.6619C62.1933 84.9901 61.5685 85.1541 60.8526 85.1541ZM60.8576 83.9062C61.3216 83.9062 61.7061 83.7836 62.011 83.5384C62.3159 83.2931 62.5413 82.9666 62.6871 82.5589C62.8363 82.1513 62.9109 81.7022 62.9109 81.2116C62.9109 80.7244 62.8363 80.277 62.6871 79.8693C62.5413 79.4583 62.3159 79.1286 62.011 78.88C61.7061 78.6314 61.3216 78.5071 60.8576 78.5071C60.3903 78.5071 60.0025 78.6314 59.6942 78.88C59.3893 79.1286 59.1623 79.4583 59.0131 79.8693C58.8673 80.277 58.7944 80.7244 58.7944 81.2116C58.7944 81.7022 58.8673 82.1513 59.0131 82.5589C59.1623 82.9666 59.3893 83.2931 59.6942 83.5384C60.0025 83.7836 60.3903 83.9062 60.8576 83.9062ZM66.1909 85V74.8182H67.6774V78.6016H67.7669C67.853 78.4425 67.9773 78.2585 68.1397 78.0497C68.3021 77.8409 68.5275 77.6586 68.8159 77.5028C69.1042 77.3438 69.4854 77.2642 69.9593 77.2642C70.5758 77.2642 71.126 77.42 71.6099 77.7315C72.0938 78.0431 72.4733 78.4922 72.7484 79.0788C73.0268 79.6655 73.166 80.3714 73.166 81.1967C73.166 82.022 73.0285 82.7296 72.7534 83.3196C72.4783 83.9062 72.1004 84.3587 71.6199 84.6768C71.1393 84.9917 70.5907 85.1491 69.9743 85.1491C69.5102 85.1491 69.1307 85.0713 68.8358 84.9155C68.5441 84.7597 68.3154 84.5774 68.1497 84.3686C67.984 84.1598 67.8564 83.9742 67.7669 83.8118H67.6426V85H66.1909ZM67.6475 81.1818C67.6475 81.7187 67.7254 82.1894 67.8812 82.5938C68.037 82.9981 68.2624 83.3146 68.5574 83.5433C68.8523 83.7687 69.2136 83.8814 69.6412 83.8814C70.0853 83.8814 70.4565 83.7637 70.7548 83.5284C71.0531 83.2898 71.2785 82.9666 71.4309 82.5589C71.5867 82.1513 71.6646 81.6922 71.6646 81.1818C71.6646 80.678 71.5884 80.2256 71.4359 79.8246C71.2868 79.4235 71.0614 79.107 70.7598 78.875C70.4615 78.643 70.0886 78.527 69.6412 78.527C69.2103 78.527 68.8457 78.638 68.5474 78.8601C68.2524 79.0821 68.0287 79.392 67.8762 79.7898C67.7238 80.1875 67.6475 80.6515 67.6475 81.1818ZM76.3217 74.8182V85H74.8352V74.8182H76.3217ZM81.6127 85.1541C80.8604 85.1541 80.2124 84.9934 79.6689 84.6719C79.1286 84.3471 78.711 83.8913 78.416 83.3047C78.1243 82.7147 77.9785 82.0237 77.9785 81.2315C77.9785 80.4493 78.1243 79.7599 78.416 79.1634C78.711 78.5668 79.122 78.1011 79.649 77.7663C80.1793 77.4316 80.7991 77.2642 81.5083 77.2642C81.9392 77.2642 82.3568 77.3355 82.7612 77.478C83.1655 77.6205 83.5285 77.8442 83.85 78.1491C84.1715 78.4541 84.425 78.8501 84.6106 79.3374C84.7962 79.8213 84.889 80.4096 84.889 81.1023V81.6293H78.8187V80.5156H83.4324C83.4324 80.1245 83.3528 79.7782 83.1937 79.4766C83.0346 79.1716 82.8109 78.9313 82.5225 78.7557C82.2375 78.58 81.9028 78.4922 81.5183 78.4922C81.1007 78.4922 80.7361 78.5949 80.4245 78.8004C80.1163 79.0026 79.8777 79.2678 79.7086 79.5959C79.5429 79.9207 79.46 80.2737 79.46 80.6548V81.5249C79.46 82.0353 79.5495 82.4695 79.7285 82.8274C79.9108 83.1854 80.1644 83.4588 80.4892 83.6477C80.814 83.8333 81.1935 83.9261 81.6277 83.9261C81.9094 83.9261 82.1663 83.8864 82.3983 83.8068C82.6303 83.724 82.8308 83.6013 82.9998 83.4389C83.1689 83.2765 83.2981 83.076 83.3876 82.8374L84.7946 83.0909C84.6819 83.5052 84.4797 83.8681 84.188 84.1797C83.8997 84.4879 83.5368 84.7282 83.0993 84.9006C82.6651 85.0696 82.1696 85.1541 81.6127 85.1541ZM86.5384 85V77.3636H87.9652V78.6065H88.0597C88.2188 78.1856 88.4789 77.8575 88.8402 77.6222C89.2015 77.3835 89.634 77.2642 90.1378 77.2642C90.6482 77.2642 91.0758 77.3835 91.4205 77.6222C91.7685 77.8608 92.0253 78.1889 92.1911 78.6065H92.2706C92.4529 78.1989 92.7429 77.8741 93.1406 77.6321C93.5384 77.3868 94.0123 77.2642 94.5625 77.2642C95.2552 77.2642 95.8203 77.4813 96.2578 77.9155C96.6986 78.3497 96.919 79.0043 96.919 79.8793V85H95.4325V80.0185C95.4325 79.5014 95.2917 79.1269 95.0099 78.8949C94.7282 78.6629 94.3918 78.5469 94.0007 78.5469C93.5168 78.5469 93.1406 78.696 92.8722 78.9943C92.6037 79.2893 92.4695 79.6688 92.4695 80.1328V85H90.9879V79.924C90.9879 79.5097 90.8587 79.1766 90.6001 78.9247C90.3416 78.6728 90.0052 78.5469 89.5909 78.5469C89.3092 78.5469 89.049 78.6214 88.8104 78.7706C88.575 78.9164 88.3845 79.1203 88.2386 79.3821C88.0961 79.6439 88.0249 79.9472 88.0249 80.2919V85H86.5384ZM104.634 79.228L103.286 79.4666C103.23 79.2943 103.141 79.1302 103.018 78.9744C102.899 78.8187 102.736 78.6911 102.531 78.5916C102.325 78.4922 102.068 78.4425 101.76 78.4425C101.339 78.4425 100.988 78.5369 100.706 78.7259C100.424 78.9115 100.284 79.1518 100.284 79.4467C100.284 79.7019 100.378 79.9074 100.567 80.0632C100.756 80.219 101.061 80.3466 101.482 80.446L102.695 80.7244C103.397 80.8868 103.921 81.1371 104.266 81.4751C104.61 81.8132 104.783 82.2524 104.783 82.7926C104.783 83.25 104.65 83.6577 104.385 84.0156C104.123 84.3703 103.757 84.6487 103.286 84.8509C102.819 85.053 102.277 85.1541 101.661 85.1541C100.806 85.1541 100.108 84.9718 99.5676 84.6072C99.0274 84.2393 98.696 83.7173 98.5733 83.0412L100.01 82.8224C100.1 83.197 100.284 83.4804 100.562 83.6726C100.84 83.8615 101.203 83.956 101.651 83.956C102.138 83.956 102.527 83.8549 102.819 83.6527C103.111 83.4472 103.257 83.197 103.257 82.902C103.257 82.6634 103.167 82.4628 102.988 82.3004C102.812 82.138 102.542 82.0154 102.178 81.9325L100.885 81.6491C100.173 81.4867 99.6455 81.2282 99.3042 80.8736C98.9661 80.5189 98.7971 80.0698 98.7971 79.5263C98.7971 79.0755 98.923 78.6811 99.1749 78.343C99.4268 78.005 99.7748 77.7415 100.219 77.5526C100.663 77.3603 101.172 77.2642 101.745 77.2642C102.57 77.2642 103.22 77.4432 103.694 77.8011C104.168 78.1558 104.481 78.6314 104.634 79.228Z" fill="white"/>
</svg>
