<svg width="1921" height="292" viewBox="0 0 1921 292" fill="none" xmlns="http://www.w3.org/2000/svg">
<rect x="1" width="1920" height="292" fill="#5FDBFD"/>
<g clip-path="url(#clip0_1294_6160)">
<path d="M1337.04 865.876H1467.93V855.808H1508.2V845.74H1538.4V835.671H1558.54V825.603H1578.68V815.535H1588.75V805.466H1608.88V795.398H1618.95V785.33H1639.09V775.261H1649.16V765.193H1659.22V755.125H1669.29V734.988H1679.36V724.92H1689.43V704.783H1699.5V694.715H1709.57V674.578H1719.63V654.441H1729.7V624.236H1739.77V583.963H1749.84V453.075H1739.77V412.801H1729.7V382.596H1719.63V362.46H1709.57V342.323H1699.5V332.255H1689.43V312.118H1679.36V302.05H1669.29V281.913H1659.22V271.845H1649.16V261.776H1639.09V251.708H1618.95V241.64H1608.88V231.571H1588.75V221.503H1578.68V211.435H1558.54V201.366H1538.4V191.298H1508.2V181.23H1467.93V171.161H1337.04V181.23H1296.76V191.298H1266.56V201.366H1246.42V211.435H1226.29V221.503H1216.22V231.571H1196.08V241.64H1186.01V251.708H1165.88V261.776H1155.81V271.845H1145.74V281.913H1135.67V302.05H1125.6V312.118H1115.53V332.255H1105.47V342.323H1095.4V362.46H1085.33V382.596H1075.26V412.801H1065.19V453.075H1055.12V583.963H1065.19V624.236H1075.26V654.441H1085.33V674.578H1095.4V694.715H1105.47V704.783H1115.53V724.92H1125.6V734.988H1135.67V755.125H1145.74V765.193H1155.81V775.261H1165.88V785.33H1186.01V795.398H1196.08V805.466H1216.22V815.535H1226.29V825.603H1246.42V835.671H1266.56V845.74H1296.76V855.808H1337.04V865.876Z" fill="#068940"/>
<path fill-rule="evenodd" clip-rule="evenodd" d="M1367.24 251.708H1377.31V261.777H1387.38V271.845H1357.17V261.777H1367.24V251.708ZM1347.1 271.845H1397.45V281.914H1347.1V271.845ZM1337.04 302.05H1347.1V291.982H1357.17V281.914H1387.38V291.982H1397.45V302.05H1407.52V312.118H1337.04V302.05Z" fill="#0B5027"/>
<path d="M1337.12 277.071H1347.19V269.936H1357.25V262.801H1377.39V255.666H1397.52V248.526H1417.66V241.391H1437.79V234.256H1468V227.121H1488.13V219.986H1518.32V212.85H1558.59V205.71H1608.93V198.575H1679.39V191.44H1800.2V198.575H1870.67V205.71H1921V212.85V412.66H511.641H501.576H-11.8362V212.85H28.433V219.986H58.6294V227.121H78.7675V234.256H108.964V241.391H129.102V248.526H149.233V255.666H169.364V262.801H189.502V269.936H199.567V277.071H219.698V284.207H239.837V291.347H249.902V298.481H259.967V305.616H280.098L280.103 305.617V312.751H290.171V319.887H300.237V327.022H310.302V327.025H310.303V334.161H320.37V341.297L330.433 341.297L330.437 341.297V348.432H340.498V348.433H350.571L350.571 355.567L350.571 355.569H370.704V362.705H410.972V369.842H461.306V362.707H511.64V355.567H551.909V348.432H582.106V341.297H602.244V334.162H632.44V327.027L632.441 327.023H652.579L652.578 319.892L652.579 319.888H672.71L672.709 312.751H682.776V305.618H692.84V305.616H702.914V298.483H712.978V298.481H723.044V291.346L723.045 291.342H743.175V284.211H743.183V284.207H763.314L763.313 277.073L793.517 277.072V269.937H813.648V262.802H843.845V255.667H884.114V248.526H934.448V241.391H1004.91V234.256H1125.72V241.391H1196.19V248.526H1246.52V255.667H1286.79V262.802H1316.99V269.937H1337.12V277.071Z" fill="#8DD122"/>
<path fill-rule="evenodd" clip-rule="evenodd" d="M1749.84 130.889H1759.91V140.957H1769.97V151.025H1780.04V161.094H1729.7V151.025H1739.77V140.957H1749.84V130.889ZM1719.63 181.23H1790.11V191.299H1719.63V181.23ZM1780.04 171.162H1729.7V181.23H1780.04V171.162ZM1739.77 161.094H1769.97V171.162H1739.77V161.094Z" fill="#068940"/>
<path fill-rule="evenodd" clip-rule="evenodd" d="M1649.15 140.957H1659.22V151.025H1669.29V161.093H1639.09V151.025H1649.15V140.957ZM1629.02 161.093H1679.36V171.162H1629.02V161.093ZM1618.95 191.298H1629.02V181.23H1679.36V191.298H1689.43V201.366H1618.95V191.298ZM1639.09 171.162H1669.29V181.23H1639.09V171.162Z" fill="#068940"/>
<path fill-rule="evenodd" clip-rule="evenodd" d="M1075.26 191.298H1085.33V201.367H1075.26V191.298ZM1095.4 201.367H1065.19V211.435H1055.12V221.503H1065.19V231.572H1095.4V221.503H1105.46V211.435H1095.4V201.367ZM1045.06 241.64H1115.53V251.709H1045.06V241.64ZM1105.46 231.572H1055.12V241.64H1105.46V231.572Z" fill="#068940"/>
<path fill-rule="evenodd" clip-rule="evenodd" d="M964.509 201.367H974.577V211.435H984.645V221.503H994.713V231.571H944.372V221.503H954.44V211.435H964.509V201.367ZM934.303 251.708H944.372V241.64H994.713V251.708H1004.78V261.777H934.303V251.708ZM954.44 231.571H984.645V241.64H954.44V231.571Z" fill="#068940"/>
<path fill-rule="evenodd" clip-rule="evenodd" d="M1488.06 151.025H1477.99V181.23H1488.06V181.23H1498.13V171.162H1488.06V171.162H1498.13V161.093H1488.06V151.025ZM1477.99 171.162H1467.93V181.23H1477.99V171.162Z" fill="#0B5027"/>
<path fill-rule="evenodd" clip-rule="evenodd" d="M1377.31 140.957H1367.24V151.025H1357.17V161.093H1367.24V161.093H1357.17V171.162H1367.24V171.162H1377.31V140.957ZM1387.38 161.093H1377.31V171.162H1387.38V161.093ZM1347.11 161.093H1357.17V171.162H1347.11V161.093Z" fill="#0B5027"/>
<path fill-rule="evenodd" clip-rule="evenodd" d="M1397.45 140.957H1407.52V161.093H1417.58V171.162H1407.52V171.162H1397.45V140.957ZM1397.45 151.025H1387.38V161.093H1397.45V151.025ZM1387.38 161.093H1397.45V171.162H1387.38V161.093Z" fill="#0B5027"/>
</g>
<defs>
<clipPath id="clip0_1294_6160">
<rect width="1921" height="292" fill="white" transform="matrix(-1 0 0 1 1921 0)"/>
</clipPath>
</defs>
</svg>
