<svg width="74" height="79" viewBox="0 0 74 79" fill="none" xmlns="http://www.w3.org/2000/svg">
<path d="M63.014 60.6522C62.9986 61.3573 62.9884 62.0624 62.9629 62.7675C62.9527 63.0945 63.0957 63.2069 63.4176 63.2018C64.0103 63.1916 64.603 63.2376 65.1957 63.212C65.5942 63.1967 65.7066 63.3449 65.6964 63.7281C65.676 64.4127 65.7015 65.0974 65.7066 65.782C65.5533 66.0171 65.3081 66.0733 65.0526 66.0937C64.7767 66.1141 64.5059 66.109 64.23 66.109C45.8771 66.109 27.5242 66.109 9.17132 66.1039C8.74213 66.1039 8.29762 66.1806 7.89397 65.9557C7.65894 65.0923 7.83777 64.2186 7.79179 63.35C8.49177 63.0792 9.2173 63.2376 9.93262 63.2069C10.3414 63.1865 10.4998 63.0792 10.4742 62.6602C10.4384 61.9551 10.4487 61.25 10.4436 60.55C10.4742 60.5194 10.4998 60.4887 10.5304 60.4529C11.3632 60.2384 12.2012 60.2537 13.0391 60.4478C13.1107 60.4938 13.1617 60.5602 13.1924 60.6369C13.3406 61.1427 13.2793 61.669 13.269 62.185C13.2639 62.6704 13.407 62.931 13.9384 62.9821C14.48 63.0332 15.0164 63.0741 15.558 63.0843C15.6449 63.0843 15.7267 63.0843 15.8135 63.0843C29.5731 63.0894 43.3377 63.0843 57.0973 63.0843C57.9659 63.0843 58.8192 62.8595 59.6929 62.9055C60.0965 62.9259 60.2447 62.6857 60.2702 62.3025C60.306 61.7354 60.1731 61.1529 60.4082 60.6062C60.4848 60.4887 60.5972 60.4223 60.7301 60.3814C61.4556 60.3508 62.1862 60.2537 62.9118 60.4478C62.9833 60.4887 63.0191 60.5602 63.014 60.6522Z" fill="#7C3E12"/>
<path d="M65.6872 13.1963C65.6872 14.7087 65.6923 16.216 65.6769 17.7283C65.6769 17.9276 65.8456 18.2648 65.4215 18.3006C64.8084 18.1984 64.1901 18.2393 63.577 18.2648C63.0865 18.2853 62.9179 18.0604 62.8974 17.6261C62.8821 17.3043 62.8821 16.9875 62.877 16.6656C62.8719 16.2671 62.6829 16.0831 62.2894 16.078C62.0851 16.078 61.8756 16.0678 61.6712 16.0678C45.0964 16.0678 28.5267 16.0678 11.9518 16.0678C11.8139 16.0678 11.6759 16.0678 11.538 16.0678C10.7664 16.0882 10.7154 16.1393 10.6796 16.8853C10.6745 17.0437 10.6745 17.2072 10.6592 17.3656C10.5927 18.1473 10.4803 18.2597 9.68837 18.2444C9.07014 18.2342 8.45701 18.3006 7.83877 18.1984C7.80812 18.1831 7.79279 18.1524 7.79279 18.1218C7.7468 16.5889 7.7979 15.051 7.76213 13.5182C7.75191 13.1095 7.93074 12.997 8.2884 13.0022C8.65627 13.0073 9.01904 13.0073 9.38692 13.0073C27.8931 13.0022 46.4044 13.0124 64.9105 13.0022C65.1916 13.0073 65.4777 12.946 65.6872 13.1963Z" fill="#7A3D14"/>
<path d="M65.6867 13.1963C46.7718 13.1963 27.8518 13.2014 8.93685 13.2014C7.83322 13.2014 7.83833 13.2014 7.83322 14.2846C7.82811 15.567 7.80767 16.8444 7.79746 18.1269C7.62885 16.4612 7.81278 14.7904 7.72081 13.1248C7.54199 12.9255 7.496 12.6854 7.496 12.4299C7.48578 10.2482 7.48067 8.06648 7.496 5.88478C7.496 5.72639 7.52155 5.56799 7.58286 5.41982C7.62374 5.33296 7.68505 5.27165 7.77191 5.23589C7.86388 5.26654 7.92519 5.32785 7.96607 5.41471C8.18577 7.08037 8.01205 8.74603 8.05292 10.4015C8.34416 10.2686 8.70693 10.2737 9.06458 10.2737C27.5146 10.2737 45.9594 10.2737 64.4094 10.2737C64.8641 10.2737 65.3291 10.2533 65.748 10.4934C66.0137 11.3825 66.075 12.2664 65.702 13.1452L65.7174 13.1861L65.6867 13.1963Z" fill="#EC9638"/>
<path d="M70.9078 74.0132C70.918 74.6059 70.9078 75.1986 70.9487 75.7913C70.9742 76.2103 70.8363 76.3431 70.4122 76.3329C69.0429 76.3073 67.6736 76.3431 66.3043 76.3125C65.8291 76.3022 65.686 76.4351 65.686 76.9154C65.6911 77.5847 65.8444 78.2694 65.5992 78.9285C65.5174 78.8518 65.4561 78.7547 65.4306 78.6423C65.3846 78.3869 65.405 78.1263 65.3948 77.8657C65.3897 77.7584 65.3897 77.6511 65.3948 77.5438C65.3079 77.2168 65.64 76.7519 65.0831 76.573C64.8072 76.5424 64.5313 76.5526 64.2554 76.5526C45.9638 76.5526 27.6774 76.5526 9.38578 76.5526C9.01791 76.5526 8.65514 76.5781 8.29238 76.5066C7.87852 76.4095 7.70991 76.1081 7.64348 75.7198C7.53619 75.1322 7.49531 74.5446 7.50042 73.9468C7.51064 72.414 7.50042 70.8863 7.50553 69.3535C7.50553 69.0367 7.47488 68.7097 7.64859 68.4185C7.70991 68.3367 7.78655 68.3163 7.87852 68.3469C8.1953 68.8681 8.00114 69.4454 8.04713 69.9922C8.07267 70.2578 8.04713 70.5338 8.06245 70.7994C8.06756 71.0651 8.03691 71.3257 8.07778 71.5914C8.09311 72.0053 8.088 72.414 8.088 72.8279C8.088 73.2928 8.3077 73.4921 8.76244 73.487C9.05878 73.487 9.35513 73.4921 9.65658 73.4921C27.8817 73.4921 46.1069 73.4921 64.332 73.4972C64.7868 73.4972 65.2517 73.4257 65.686 73.63C66.0488 73.9826 65.9313 74.4424 65.9364 74.8614C65.9568 75.9803 65.9466 75.9804 67.0911 75.9804C67.9137 75.9804 68.7363 75.9804 69.5589 75.9804C70.5859 75.9752 70.5757 75.9752 70.6115 74.9636C70.6115 74.6315 70.4633 74.2176 70.9078 74.0132Z" fill="#A25F23"/>
<path d="M7.84214 70.8352C7.83703 70.0177 7.83192 69.2002 7.82681 68.3827C7.57134 67.5397 7.52536 66.7017 7.85236 65.8689C8.24067 65.8638 8.62899 65.8485 9.0173 65.8485C27.641 65.8485 46.2596 65.8485 64.8833 65.8434C65.1541 65.8434 65.4249 65.7974 65.7008 65.7769L65.7059 65.8229C66.0993 66.6557 65.9562 67.509 65.8234 68.3623C65.6905 68.6586 65.4351 68.7199 65.1438 68.7199C64.7095 68.7148 64.2752 68.7148 63.8358 68.7148C45.6005 68.7148 27.3651 68.7148 9.12971 68.7148C8.22535 68.7148 8.24578 68.7199 8.1998 69.6345C8.17425 70.0535 8.40928 70.5746 7.84214 70.8352Z" fill="#FDD16C"/>
<path d="M65.6919 2.55858C65.7123 2.57391 65.7174 2.59945 65.7021 2.61989C66.1006 3.47316 65.9576 4.34175 65.8145 5.22056C65.6459 5.50158 65.37 5.48114 65.0992 5.48114C64.3839 5.47092 63.6635 5.47603 62.9482 5.47092C62.3044 5.48114 61.6606 5.48625 61.0219 5.47092C59.9336 5.46071 58.8453 5.5118 57.757 5.46582C56.9293 5.48625 56.1016 5.48625 55.2739 5.47092C54.3133 5.48114 53.3579 5.49136 52.3973 5.47092C51.6156 5.49136 50.8287 5.48625 50.047 5.47092C49.0864 5.48114 48.131 5.48625 47.1704 5.47092C46.2967 5.48625 45.4281 5.49136 44.5544 5.46582C43.6858 5.48625 42.8121 5.49136 41.9435 5.46582C41.1158 5.48625 40.2932 5.48625 39.4654 5.47092C38.5509 5.47603 37.6363 5.49647 36.7217 5.46582C35.894 5.48625 35.0663 5.48625 34.2386 5.47092C33.278 5.48114 32.3225 5.49136 31.362 5.47092C30.5802 5.49136 29.7934 5.48625 29.0117 5.47092C28.0102 5.48114 27.0037 5.49136 26.0022 5.47092C25.2205 5.49136 24.4337 5.49136 23.6519 5.46582C22.5585 5.50669 21.4702 5.46581 20.3768 5.47092C19.6819 5.48625 18.9871 5.48625 18.2922 5.46582C17.4236 5.48625 16.555 5.49136 15.6864 5.46582C14.8178 5.48625 13.9441 5.49136 13.0755 5.46582C12.2018 5.48625 11.3281 5.49136 10.4595 5.46582C9.82594 5.49647 9.18727 5.48114 8.55371 5.47603C8.30335 5.47603 8.05299 5.4556 7.85372 5.27166L7.8435 5.25633C7.53694 4.39285 7.58293 3.52936 7.81285 2.65566C7.90482 2.54325 8.03255 2.49727 8.1705 2.47172C8.50772 2.40019 8.85516 2.42574 9.19749 2.42574C27.673 2.42574 46.1434 2.42574 64.6189 2.42574C64.9766 2.43084 65.3496 2.36953 65.6919 2.55858Z" fill="#FAF6A4"/>
<path d="M65.692 2.55857C65.4825 2.69142 65.2475 2.64543 65.0227 2.64543C46.215 2.64543 27.4074 2.64543 8.60491 2.64543C8.44652 2.64543 8.28302 2.63011 8.12462 2.625C7.85383 2.45128 7.85383 2.18048 7.84872 1.90457C7.8385 1.40896 7.8947 0.908245 7.80273 0.407526C7.81295 0.320666 7.85383 0.249134 7.92536 0.192931C8.18083 0.0498687 8.46184 0.116291 8.73264 0.116291C12.6771 0.111181 16.6266 0.11629 20.5711 0.111181C20.8163 0.111181 21.0718 0.167384 21.3119 0.0549774C21.363 0.0549774 21.409 0.0600871 21.4601 0.0600871C21.6798 0.162275 21.9097 0.116291 22.1345 0.116291C32.6292 0.116291 43.129 0.1214 53.6237 0.116291C53.8485 0.116291 54.0835 0.167384 54.2981 0.0549774C54.3492 0.0549774 54.3952 0.0600871 54.4463 0.0600871C54.62 0.152056 54.8039 0.116291 54.9827 0.116291C58.452 0.126509 61.9264 0.106072 65.3957 0.12651C65.4672 0.12651 65.5285 0.106072 65.5949 0.085634C65.8146 0.898025 65.6205 1.73596 65.692 2.55857Z" fill="#7A3D12"/>
<path d="M7.84375 18.2035C8.52841 18.1984 9.21817 18.178 9.90283 18.1882C10.2452 18.1933 10.4087 18.0758 10.4138 17.7232C10.4138 17.2429 10.4546 16.7627 10.4495 16.2824C10.4495 15.9605 10.5824 15.8174 10.8992 15.843C11.0116 15.8532 11.1291 15.843 11.2415 15.843C28.2148 15.843 45.1933 15.843 62.1667 15.843C63.0966 15.843 63.0966 15.843 63.0966 16.7627C63.0966 18.178 63.0966 18.1728 64.4914 18.1882C64.798 18.1933 65.1352 18.0707 65.4162 18.2955C64.7776 18.3057 64.1389 18.3364 63.5053 18.3261C63.1477 18.321 62.9535 18.3926 62.974 18.8115C63.0097 19.5626 63.0097 20.3137 63.025 21.0648C62.9535 21.1107 62.8769 21.1107 62.8053 21.0699C62.4988 20.5589 62.6623 19.9969 62.6367 19.4553C62.601 18.7247 62.5601 18.6634 61.855 18.648C61.6966 18.6429 61.5331 18.6582 61.3747 18.648C60.8638 18.6123 60.6901 18.8677 60.6901 19.348C60.6901 19.8743 60.7616 20.4005 60.6134 20.9217C60.5777 20.9983 60.5266 21.0545 60.455 21.0954C60.3682 21.0954 60.3017 21.0545 60.2609 20.9779C60.082 20.5385 60.1638 20.0786 60.1536 19.6239C60.1382 18.6736 60.128 18.6582 59.2083 18.648C58.7076 18.6429 58.2069 18.6582 57.7011 18.6429C56.9296 18.6685 56.1529 18.6634 55.3814 18.648C53.5982 18.6685 51.8151 18.6736 50.0319 18.648C41.6167 18.6838 33.1965 18.6531 24.7813 18.6633C24.4135 18.6633 24.0507 18.6787 23.6828 18.6429C21.8537 18.6685 20.0194 18.6685 18.1902 18.6429C17.3216 18.6685 16.4479 18.6582 15.5794 18.6429C15.0326 18.6685 14.4859 18.6582 13.9392 18.648C13.4794 18.6378 13.275 18.8269 13.2852 19.2969C13.2955 19.956 13.2955 20.6202 13.2852 21.2794C13.2801 21.5706 13.3108 21.8772 13.1166 22.1326C12.6312 22.1275 12.7641 21.7341 12.7488 21.4888C12.7028 20.7786 12.7028 20.0684 12.7436 19.3633C12.7794 18.7758 12.5444 18.5663 11.9875 18.6531C11.8751 18.6685 11.7575 18.6531 11.6451 18.6582C10.8941 18.6787 10.8276 18.7349 10.8174 19.4911C10.8072 20.5691 10.8174 21.6421 10.8123 22.7202C10.8123 23.0165 10.8378 23.318 10.6999 23.599C10.6539 23.6808 10.5824 23.7114 10.4955 23.6961C10.4853 22.2604 10.47 20.8297 10.4649 19.394C10.4598 18.3312 10.4598 18.3568 9.36634 18.3159C8.8503 18.3108 8.32403 18.5101 7.84375 18.2035Z" fill="#A16024"/>
<path d="M65.5636 77.8504C65.5636 78.1263 65.5585 78.3971 65.5585 78.673C65.492 78.719 65.4154 78.7445 65.3336 78.7394C64.1023 78.7241 62.8709 78.6781 61.6396 78.5964C61.0418 78.5555 60.4951 78.2592 59.8871 78.3051C59.6111 78.3256 59.3403 78.3 59.0849 78.4329C58.2316 78.8774 57.3835 78.7905 56.4995 78.484C55.8302 78.2489 55.1558 78.157 54.4456 78.53C53.7558 78.8876 52.9741 78.8314 52.2485 78.5606C51.4668 78.2643 50.7464 78.1876 49.9391 78.5555C49.2493 78.8672 48.4574 78.8723 47.7369 78.5453C47.0676 78.2387 46.4034 78.2489 45.7443 78.5095C45.3509 78.6628 44.9574 78.7343 44.5436 78.7343C42.5407 78.7497 40.5378 78.6066 38.535 78.6373C37.4722 78.6526 36.3992 78.5146 35.3365 78.7139C34.8766 78.8008 34.4321 78.6066 33.9723 78.6015C32.6949 78.5759 31.4227 78.8416 30.1454 78.6986C29.3789 78.6117 28.5972 78.6577 27.8359 78.4533C27.1513 78.2694 26.4768 78.2234 25.7768 78.581C25.1535 78.8978 24.428 78.8212 23.7688 78.5862C22.9513 78.2949 22.19 78.1672 21.3317 78.5913C20.7032 78.9029 19.9419 78.8416 19.2573 78.5708C18.4806 78.2643 17.7551 78.1978 16.9478 78.5606C16.2529 78.8723 15.4661 78.8876 14.7508 78.5453C14.1479 78.2592 13.5194 78.2234 12.9523 78.4482C12.283 78.7139 11.6187 78.7343 10.9341 78.7394C10.0195 78.7445 9.10493 78.6986 8.19035 78.7803C7.82758 78.7139 7.93488 78.4227 7.91444 78.1927C7.86846 77.6205 8.00641 77.0431 7.82758 76.4811C7.63343 76.2461 7.36263 76.338 7.12249 76.338C5.91668 76.3278 4.70575 76.3329 3.49994 76.3329C2.48828 76.3329 2.48828 76.3329 2.52916 75.2957C2.59047 74.9125 2.57003 74.5242 2.54959 74.1461C2.52405 73.7271 2.72842 73.5739 3.10141 73.5483C3.46417 73.5228 3.82694 73.5228 4.1897 73.533C4.65977 73.5483 4.92546 73.3746 4.89991 72.8688C4.93567 71.7345 4.86414 70.5951 4.8948 69.4608C4.91013 68.8937 4.66488 68.6995 4.12328 68.7097C3.60724 68.7148 3.07586 68.8068 2.57514 68.5922C2.54449 68.5616 2.51894 68.536 2.48828 68.5054C2.4985 67.8258 2.53938 67.1411 2.51383 66.4616C2.49339 66.0018 2.66711 65.8893 3.10141 65.8945C4.64444 65.9098 6.18747 65.8791 7.7305 65.8689C7.81225 66.6915 7.80204 67.5192 7.73561 68.3419C7.72029 70.8403 7.59766 73.3439 7.8378 75.8424C7.86335 76.1337 7.95021 76.3227 8.26188 76.3534C8.52757 76.6804 8.90566 76.6701 9.26843 76.6752C10.1166 76.6906 10.9647 76.6752 11.8078 76.6804C12.0377 76.6804 12.2676 76.6752 12.4924 76.7315C12.6764 76.7774 12.845 76.849 12.8705 77.0738C12.8961 77.2884 12.7581 77.4161 12.5997 77.5132C12.3341 77.6767 12.0275 77.6511 11.7311 77.6562C10.7553 77.6767 9.77426 77.6256 8.79836 77.7329C9.86623 77.7789 10.9392 77.8095 12.0071 77.7533C12.1859 77.7431 12.3698 77.7125 12.5282 77.6052C13.3815 77.0227 14.2194 77.1198 15.0931 77.5949C15.6603 77.9015 16.2887 77.9015 16.8661 77.5745C17.7142 77.0891 18.5522 77.0891 19.4003 77.549C20.0339 77.8964 20.6675 77.8708 21.2959 77.5438C22.1236 77.1147 22.936 77.0533 23.7586 77.5745C24.2593 77.8913 24.8163 77.7635 25.3579 77.7124C24.9695 77.6409 24.571 77.6818 24.1827 77.6409C23.8302 77.6052 23.4367 77.5234 23.4572 77.084C23.4776 76.6906 23.871 76.7059 24.1572 76.7008C24.8878 76.6855 25.6236 76.6293 26.3491 76.7672C27.044 76.9001 27.7184 76.6906 28.4031 76.6855C33.9007 76.6804 39.3933 76.6804 44.891 76.6855C44.983 76.6855 44.8706 76.6752 44.9574 76.6855C45.2998 76.7366 45.826 76.5986 45.8363 77.0942C45.8465 77.6358 45.3202 77.646 44.9063 77.646C39.7765 77.6562 34.6467 77.6511 29.522 77.6562C29.2512 77.6562 28.9753 77.6154 28.6739 77.7073C28.9549 77.8249 29.2206 77.7789 29.476 77.7789C34.3759 77.784 39.2758 77.784 44.1757 77.7789C44.7684 77.7789 45.31 77.7022 45.872 77.3957C46.4903 77.0585 47.2516 77.1044 47.9107 77.4928C48.6055 77.9015 49.2749 77.8862 49.98 77.503C50.7515 77.084 51.5639 77.0789 52.3303 77.5183C52.9945 77.8913 53.6332 77.8708 54.2821 77.5387C55.1098 77.1147 55.9222 77.0533 56.7448 77.5745C57.2455 77.8913 57.8075 77.7635 58.3491 77.6971C58.063 77.6511 57.7769 77.6562 57.4907 77.6511C57.2608 77.646 57.0309 77.6563 56.8163 77.5643C56.5966 77.4672 56.4025 77.3344 56.4382 77.0585C56.474 76.803 56.6886 76.7519 56.893 76.7161C57.2557 76.6548 57.6287 76.6497 57.9915 76.6855C60.025 76.8796 62.0585 76.5986 64.0921 76.6804C64.322 76.6906 64.5519 76.6804 64.7767 76.665C65.0373 76.6446 65.2672 76.568 65.4358 76.3534C65.7066 76.7366 65.5227 77.1657 65.5585 77.5745C64.6286 77.738 63.6935 77.6 62.7636 77.6409C62.3855 77.6563 62.0074 77.6205 61.6345 77.7073C62.9425 77.8708 64.2607 77.6716 65.5636 77.8504Z" fill="#7A3E12"/>
<path d="M65.6857 5.26144C65.6908 4.38262 65.6959 3.4987 65.701 2.61989C67.2491 2.63522 68.7973 2.67098 70.3454 2.66076C70.7746 2.66076 70.9636 2.74762 70.9279 3.21769C70.8819 3.89723 70.8972 4.58189 70.8921 5.26655C70.5804 5.53734 70.2023 5.4607 69.8447 5.4607C68.4192 5.47603 68.5367 5.36363 68.5265 6.81469C68.5265 7.15702 68.5418 7.49935 68.5162 7.84167C68.5316 8.22999 68.5214 8.61319 68.5214 9.0015C68.5214 10.2788 68.5214 10.2788 69.768 10.284C70.1053 10.284 70.4527 10.2482 70.7797 10.3606C70.8563 10.3913 70.9125 10.4475 70.9534 10.519C70.9381 11.1117 70.8819 11.7095 70.9228 12.3022C70.9636 12.9051 70.8155 13.1299 70.1513 13.1094C68.6644 13.0635 67.1776 13.1197 65.6908 13.1299C65.6857 12.246 65.6754 11.3671 65.6703 10.4832C65.3229 9.89053 65.5426 9.24164 65.4864 8.62341C65.4608 8.37305 65.4966 8.1278 65.4966 7.87744C65.5477 7.00374 65.3382 6.1147 65.6857 5.26144Z" fill="#7A3D13"/>
<path d="M7.75621 5.26655C7.74599 7.88766 7.73066 10.5088 7.72044 13.1248C6.19274 13.1146 4.65992 13.089 3.13222 13.1043C2.66727 13.1094 2.48333 12.9919 2.50377 12.4963C2.53442 11.8372 2.47822 11.173 2.46289 10.5139C2.48844 10.4832 2.51398 10.4526 2.53953 10.4219C2.94828 10.2073 3.38769 10.2942 3.81177 10.284C4.88985 10.2686 4.88474 10.2789 4.88985 9.17523C4.88985 8.8329 4.87963 8.49057 4.88985 8.14824C4.90006 7.46869 4.87452 6.79426 4.88985 6.11471C4.90006 5.65486 4.69569 5.4556 4.24095 5.46582C3.90374 5.47604 3.56141 5.47604 3.22419 5.4556C2.9585 5.44027 2.67238 5.45049 2.51398 5.15925C2.51398 4.54613 2.54464 3.92789 2.50377 3.31477C2.468 2.80894 2.62128 2.64544 3.14244 2.65566C4.67014 2.69142 6.19785 2.66077 7.72555 2.66077C7.82263 3.52936 7.77154 4.39796 7.75621 5.26655Z" fill="#7A3D13"/>
<path d="M65.6907 68.3623C65.6958 67.5192 65.7009 66.6762 65.706 65.828C67.1366 65.966 68.5673 65.8587 69.9979 65.8842C71.0964 65.9047 70.9022 65.7923 70.9227 66.7733C70.9329 67.3404 70.938 67.9127 70.9482 68.4798C70.9227 68.5105 70.892 68.536 70.8665 68.5667C70.3709 68.7915 69.8395 68.674 69.3285 68.6944C68.6081 68.7251 68.5519 68.7659 68.5366 69.4659C68.5264 70.0075 68.5468 70.5491 68.5264 71.0958C68.5468 71.6834 68.5417 72.271 68.5315 72.8585C68.5264 73.3184 68.7205 73.5023 69.1804 73.5125C69.7424 73.5279 70.3147 73.4104 70.8563 73.6301C70.8869 73.6556 70.9125 73.6863 70.9431 73.7169C70.9329 73.814 70.9227 73.9111 70.9073 74.0081C70.6825 74.5344 70.8307 75.0862 70.8154 75.6278C70.8052 76.0212 70.7234 76.2052 70.2789 76.2001C68.93 76.1796 67.5811 76.1745 66.2323 76.2001C65.7826 76.2103 65.6958 76.0059 65.706 75.6227C65.7213 74.984 65.706 74.3454 65.7009 73.7016C65.3432 73.1651 65.5476 72.5622 65.5016 71.9848C65.471 71.6476 65.5118 71.3104 65.5067 70.9681C65.5272 70.1046 65.3739 69.2156 65.6907 68.3623Z" fill="#7B3D13"/>
<path d="M60.5152 26.4347C60.5152 27.9011 60.5305 29.3624 60.4999 30.8288C60.4896 31.3346 60.6378 31.5185 61.159 31.4981C62.2524 31.4521 63.3458 31.5032 64.4392 31.6207C64.3779 31.728 64.2757 31.7689 64.1684 31.8098C63.9027 31.9068 63.494 31.7485 63.3815 32.101C63.2232 32.6068 63.2589 33.1433 63.3662 33.6594C63.4173 33.9097 63.6677 33.9046 63.872 33.9199C64.2144 33.9404 64.5618 33.9097 64.899 33.9404C65.1341 33.9608 65.4202 33.8995 65.5479 34.201C64.6998 34.344 63.8516 34.2367 63.0034 34.2623C62.6969 34.528 62.3188 34.4769 61.956 34.482C60.6991 34.4973 60.7196 34.4922 60.694 35.7747C60.6736 36.96 60.7962 38.1505 60.6174 39.3359C60.5816 39.4176 60.5254 39.4841 60.4488 39.53C60.3517 39.5249 60.2853 39.4841 60.2393 39.3972C60.0349 38.7739 60.1371 38.1301 60.1371 37.5016C60.132 36.4338 60.0809 35.3608 60.1729 34.2929C60.2955 33.7054 60.2597 33.1076 60.2801 32.5149C60.3057 31.8098 60.3823 31.7382 61.0772 31.7331C61.3378 31.7331 61.5984 31.728 61.8589 31.7331C61.2152 31.7382 60.5765 31.7689 59.9378 31.8455C59.2685 31.9273 58.5685 31.9477 57.889 31.7893C57.7612 31.7382 57.6693 31.6463 57.6131 31.5185C57.4649 29.8171 57.4598 28.1157 57.6131 26.4143C57.6488 26.3325 57.705 26.2661 57.7817 26.215C58.5583 25.9851 59.3451 26.0924 60.1269 26.1333C60.3108 26.1333 60.4998 26.1946 60.5152 26.4347Z" fill="#EB9637"/>
<path d="M60.5159 26.4347C59.6064 26.1333 58.6714 26.3683 57.7517 26.3019C57.5729 26.1537 57.5473 25.9442 57.5473 25.7398C57.5422 24.3961 57.486 23.0472 57.5882 21.7034C57.6087 21.4582 57.6035 21.1976 57.8079 21.0034C58.6663 20.7837 59.5247 20.7224 60.3779 21.0494C60.4188 21.0648 60.4597 21.0801 60.4955 21.1005C60.7356 21.3407 60.6947 21.6472 60.6947 21.9385C60.6947 23.0114 60.7152 24.0844 60.6794 25.1574C60.659 25.8574 60.7305 25.9289 61.4509 25.9442C61.8392 25.9544 62.2275 25.9289 62.6158 25.9493C62.7896 25.9595 63.0808 25.9033 62.9633 26.261C62.156 26.4347 61.3181 26.1486 60.5159 26.4347Z" fill="#F9B856"/>
<path d="M65.3855 52.6561C64.5884 52.6663 63.7965 52.6714 62.9994 52.6816C62.1768 53.0546 61.344 52.9728 60.5111 52.748C60.2863 52.5539 60.1995 52.2933 60.225 52.0174C60.3323 50.7247 60.2506 49.432 60.2863 48.1394C60.2914 47.9145 60.3068 47.6846 60.4447 47.4905C61.2622 47.1124 62.1002 47.2197 62.9432 47.3832C62.9892 47.4189 63.0352 47.4547 63.0863 47.4956C63.352 47.7459 63.3111 48.078 63.3162 48.3948C63.3264 49.4678 63.3315 50.5408 63.3162 51.6137C63.3111 52.1349 63.5155 52.375 64.0417 52.3444C64.3125 52.329 64.5935 52.3188 64.8643 52.3597C65.0636 52.3853 65.3446 52.3239 65.3855 52.6561Z" fill="#EA9637"/>
<path d="M10.4748 47.3678C10.4645 45.6153 10.4594 43.8628 10.4492 42.1103C10.4799 42.0796 10.5105 42.049 10.5361 42.0183C11.2361 41.7833 11.9565 41.9263 12.6667 41.911C12.8404 41.9366 13.0141 41.9723 13.1368 42.1205C13.2134 42.238 13.2594 42.3709 13.2594 42.5088C13.2594 44.0774 13.3871 45.6511 13.1878 47.2197C13.101 47.424 12.9324 47.5518 12.7229 47.5671C11.9718 47.6182 11.185 47.9248 10.4748 47.3678Z" fill="#7B3D11"/>
<path d="M10.4391 60.5449C9.68289 60.5449 8.93181 60.5347 8.17562 60.55C7.87417 60.5552 7.7822 60.453 7.78731 60.1566C7.79753 58.6698 7.80264 57.183 7.78731 55.6961C7.7822 55.3436 7.93548 55.2823 8.24204 55.2874C8.97268 55.2976 9.70332 55.2823 10.4391 55.2772C10.4697 55.3078 10.5055 55.3385 10.5413 55.3691C10.6894 55.6144 10.6792 55.8903 10.6792 56.1611C10.6843 57.3362 10.6843 58.5165 10.6792 59.6917C10.6792 59.988 10.6792 60.2844 10.4595 60.5245L10.4391 60.5449Z" fill="#7A3D12"/>
<path d="M62.9787 39.4994C63.0247 39.4739 63.0656 39.4841 63.0963 39.5301C63.3262 39.7395 63.3211 40.0206 63.3211 40.2965C63.3313 41.5074 63.3313 42.7234 63.3211 43.9343C63.3211 44.2102 63.3109 44.4913 63.0809 44.6956C63.0349 44.7365 62.989 44.7774 62.9481 44.8183C62.1102 44.992 61.2773 45.0277 60.4496 44.7569C60.2963 44.5986 60.235 44.4095 60.2452 44.1949C60.327 42.8307 60.2554 41.4665 60.2912 40.1023C60.2963 39.8979 60.3116 39.6936 60.4649 39.5249L60.4956 39.4943C61.3233 39.1571 62.151 39.152 62.9787 39.4994Z" fill="#EA9637"/>
<path d="M10.4993 36.8681C10.4124 36.8221 10.3307 36.771 10.2438 36.725C10.2438 35.1922 10.2336 33.6543 10.2643 32.1215C10.2694 31.9375 10.346 31.7689 10.4584 31.6207C11.3423 31.3755 12.2212 31.3704 13.1051 31.6258C13.1408 31.7127 13.1306 31.5952 13.1408 31.682C13.3759 33.4141 13.4219 35.1411 13.1153 36.8732C12.2416 37.2206 11.3679 37.241 10.4993 36.8681Z" fill="#EC9637"/>
<path d="M10.4336 55.2823C10.454 53.54 10.4694 51.7977 10.4898 50.0554C11.3533 49.7488 12.2168 49.7539 13.0854 50.0554C13.1824 50.1576 13.2438 50.2853 13.2489 50.4232C13.2846 52.0072 13.3766 53.5962 13.1978 55.1801C13.162 55.2618 13.1058 55.3334 13.0292 55.3845C12.1657 55.5582 11.3022 55.6655 10.454 55.2976L10.4336 55.2823Z" fill="#7B3E12"/>
<path d="M63.0954 55.2669C63.8005 55.2772 64.5056 55.3027 65.2107 55.2874C65.5581 55.2823 65.6961 55.3793 65.6909 55.7421C65.6756 57.1778 65.6756 58.6085 65.6909 60.0442C65.6961 60.4121 65.599 60.5756 65.1953 60.5551C64.5362 60.5245 63.8771 60.5551 63.2129 60.5603C62.9166 60.453 62.9012 60.1822 62.8961 59.9369C62.8655 58.5676 62.8706 57.1983 62.8961 55.829C62.9012 55.6246 62.9319 55.4202 63.0954 55.2669Z" fill="#7A3E12"/>
<path d="M70.9481 68.4849C71.6992 68.4849 72.4503 68.49 73.2014 68.4747C73.4415 68.4696 73.5897 68.5002 73.5846 68.7915C73.5795 70.3396 73.5795 71.8877 73.5897 73.4359C73.5948 73.7578 73.4057 73.7425 73.1912 73.7373C72.4401 73.7271 71.689 73.722 70.9379 73.7169C70.6876 73.4155 70.7233 73.0578 70.7335 72.7052C70.7693 71.6221 70.6927 70.5389 70.7182 69.4557C70.7233 69.1185 70.6927 68.771 70.9379 68.49L70.9481 68.4849Z" fill="#7A3D11"/>
<path d="M63.0762 44.6905C63.0813 42.9687 63.0864 41.2468 63.0915 39.5249C63.7762 39.5198 64.4659 39.5454 65.1506 39.5045C65.59 39.479 65.6973 39.6476 65.6871 40.0563C65.6666 41.4307 65.6666 42.8052 65.6922 44.1745C65.7024 44.6139 65.5389 44.7263 65.1352 44.711C64.4506 44.6854 63.7659 44.6956 63.0762 44.6905Z" fill="#7B3F12"/>
<path d="M10.4804 23.7063C10.5213 23.691 10.5621 23.6808 10.603 23.6705C11.3898 23.3384 12.192 23.4508 12.9993 23.5837C13.081 23.6246 13.1373 23.691 13.1781 23.7727C13.3876 25.3055 13.2701 26.8435 13.2497 28.3814C13.2445 28.7493 12.9891 28.9383 12.6621 29.0456C11.9161 29.0814 11.165 29.2602 10.4446 28.9179L10.4548 28.9332C10.3067 28.7493 10.2556 28.5296 10.2505 28.2996C10.2351 26.9661 10.2402 25.6274 10.2453 24.2939C10.2453 24.1304 10.2913 23.9822 10.3782 23.8443C10.414 23.7932 10.4497 23.7472 10.4804 23.7063Z" fill="#EC9537"/>
<path d="M63.2141 21.1107C63.8732 21.1056 64.5324 21.1056 65.1915 21.0852C65.5185 21.075 65.6973 21.1465 65.6922 21.5297C65.6769 22.9654 65.682 24.3961 65.6922 25.8318C65.6973 26.1946 65.5491 26.307 65.2068 26.2917C64.5017 26.2661 63.7966 26.2661 63.0915 26.261C62.9229 25.8982 62.882 25.5201 62.8871 25.1267C62.8974 24.0946 62.882 23.0676 62.8922 22.0355C62.8973 21.6983 62.8616 21.3304 63.2141 21.1107Z" fill="#7B3F13"/>
<path d="M10.3778 23.8391C10.4034 25.5355 10.4289 27.2318 10.4545 28.9281C9.6983 28.9383 8.94722 28.9383 8.19103 28.969C7.85892 28.9792 7.76184 28.8566 7.76695 28.5296C7.78228 27.1347 7.78739 25.7398 7.76184 24.345C7.75673 23.9107 7.91001 23.7983 8.32387 23.8136C9.00342 23.8494 9.69319 23.834 10.3778 23.8391Z" fill="#7B3E12"/>
<path d="M10.403 31.6667C10.4132 33.1893 10.4183 34.717 10.4337 36.2396C10.4337 36.4389 10.3519 36.5819 10.2395 36.7301C9.57529 36.7352 8.91618 36.7301 8.25196 36.7556C7.89431 36.771 7.77168 36.6432 7.77679 36.2856C7.78701 34.9163 7.78701 33.5418 7.77168 32.1725C7.76657 31.7842 7.85854 31.5901 8.30817 31.6207C8.96728 31.6667 9.6315 31.636 10.2957 31.6412C10.3417 31.5952 10.3826 31.6054 10.403 31.6667Z" fill="#7A3E12"/>
<path d="M63.0965 55.2669C63.0965 56.8611 63.0914 58.4603 63.0914 60.0544C63.0914 60.2333 63.0608 60.4223 63.2191 60.5654C63.1527 60.596 63.0863 60.6267 63.0148 60.6573C62.9994 60.6165 62.979 60.5756 62.9637 60.5347C62.233 60.3917 61.5075 60.4325 60.7769 60.5194C60.69 60.5296 60.6031 60.5347 60.5163 60.5449C60.4805 60.5245 60.4396 60.5041 60.4039 60.4836C60.3221 60.3968 60.2812 60.2895 60.2812 60.172C60.2915 58.7362 60.271 57.3005 60.2966 55.8647C60.3017 55.6604 60.3323 55.456 60.4754 55.2874C61.3133 54.9348 62.1717 55.0881 63.0301 55.175C63.0505 55.2005 63.071 55.2363 63.0965 55.2669Z" fill="#EA9635"/>
<path d="M63.214 21.1107C63.0352 21.3253 63.0914 21.5859 63.0914 21.8312C63.0862 23.3078 63.0914 24.7844 63.0914 26.261C63.0505 26.2661 63.0045 26.2712 62.9636 26.2712C62.4987 25.9595 61.9826 26.1946 61.4972 26.169C60.4294 26.123 60.4549 26.1537 60.4805 25.0807C60.5111 23.7574 60.4907 22.429 60.4907 21.1056V21.0392C61.2724 20.7633 62.049 20.7378 62.8206 21.0597C62.887 21.0648 62.9534 21.0699 63.0198 21.0699C63.0862 21.0852 63.1476 21.0954 63.214 21.1107Z" fill="#EB9635"/>
<path d="M65.3842 52.656C64.8477 52.4874 64.2959 52.5692 63.7543 52.5947C63.1872 52.6254 63.0646 52.4159 63.0748 51.8845C63.1054 50.4181 63.085 48.9517 63.0799 47.4854C63.785 47.4802 64.4952 47.4854 65.2003 47.4598C65.5426 47.4496 65.6908 47.5518 65.6857 47.9196C65.6704 49.3554 65.6806 50.7962 65.6806 52.232C65.6857 52.4466 65.7061 52.6765 65.3842 52.656Z" fill="#7B3F13"/>
<path d="M71.036 5.36363C71.7207 5.37896 72.4053 5.40451 73.09 5.3994C73.4221 5.39429 73.5907 5.4556 73.5856 5.84391C73.5652 7.25921 73.5703 8.67962 73.5856 10.1C73.5907 10.4219 73.4936 10.5445 73.1615 10.5343C72.4309 10.5139 71.7002 10.5292 70.9645 10.5292L70.9389 10.4986C70.566 9.96207 70.7703 9.35406 70.7243 8.78181C70.7039 8.53656 70.7039 8.28109 70.7295 8.03584C70.7243 7.40227 70.7039 6.76871 70.7295 6.13515C70.7448 5.84391 70.6886 5.51691 71.036 5.36363Z" fill="#7B3D12"/>
<path d="M62.9783 39.4994C62.1506 39.4994 61.3178 39.4943 60.4901 39.4943C60.4798 37.9206 60.4849 36.352 60.4594 34.7783C60.4492 34.3389 60.628 34.2367 61.0265 34.2521C61.6856 34.2776 62.3499 34.2623 63.009 34.2623C62.9988 36.0046 62.9885 37.752 62.9783 39.4994Z" fill="#783D13"/>
<path d="M2.49429 73.6198C1.83518 73.6096 1.17096 73.5738 0.511847 73.5892C0.118424 73.5994 0.000908932 73.4563 0.00601831 73.0731C0.0213465 71.6834 0.0213465 70.2885 0.00601831 68.8987C0.000908932 68.5666 0.118425 68.4593 0.440316 68.4696C1.12497 68.49 1.80452 68.4849 2.48918 68.49C2.86727 69.0265 2.65779 69.6396 2.70888 70.2221C2.73443 70.5184 2.7191 70.8148 2.69866 71.1111C2.72932 71.714 2.7191 72.322 2.70888 72.93C2.69355 73.1753 2.68844 73.4257 2.49429 73.6198Z" fill="#7A3E13"/>
<path d="M2.46289 10.5139C1.79867 10.5139 1.13956 10.5088 0.475339 10.5241C0.13301 10.5343 -0.00494411 10.427 0.000165269 10.0591C0.0206028 8.66428 0.0154934 7.27453 0.000165269 5.87967C-0.00494411 5.52712 0.107463 5.38917 0.470229 5.39939C1.1089 5.41472 1.74757 5.38917 2.38625 5.37895C2.70303 5.51691 2.67237 5.81325 2.68259 6.07383C2.70303 6.68184 2.70303 7.28475 2.68259 7.89277C2.71325 8.52633 2.69792 9.15989 2.69281 9.79346C2.69281 10.0438 2.66215 10.2942 2.47821 10.4934L2.46289 10.5139Z" fill="#7A3E11"/>
<path d="M65.4408 78.673C65.4816 78.673 65.5174 78.673 65.5583 78.6679C65.5685 78.7547 65.5787 78.8416 65.594 78.9336C64.2247 78.9489 62.8503 78.9847 61.481 78.9847C52.5038 78.9847 43.5317 78.9745 34.5546 78.9745C25.8533 78.9745 17.152 78.9796 8.45585 79C7.91426 79 7.73032 78.862 7.77631 78.3204C7.83251 77.7073 7.81718 77.0891 7.83251 76.4709C8.1544 76.9869 7.90404 77.554 7.98068 78.0956C8.01134 78.3204 7.88871 78.6168 8.25659 78.6832C10.0857 78.6577 11.92 78.5657 13.7441 78.6321C15.7572 78.7037 17.7651 78.4329 19.768 78.673C20.5651 78.765 21.3673 78.5657 22.1643 78.6015C25.0664 78.7292 27.9635 78.5708 30.8656 78.6475C32.6437 78.6934 34.4268 78.627 36.21 78.6219C38.9231 78.6117 41.6362 78.765 44.3441 78.6475C46.3572 78.5606 48.3601 78.8109 50.3732 78.6015C51.3082 78.5044 52.2483 78.6934 53.1834 78.6679C56.014 78.6015 58.8497 78.6066 61.6803 78.6219C62.9269 78.6168 64.1839 78.673 65.4408 78.673Z" fill="#562B15"/>
<path d="M10.4491 42.1154C9.73892 42.1205 9.03382 42.1001 8.32873 42.1461C7.85355 42.1767 7.73093 41.9979 7.7667 41.5636C7.81268 40.9045 7.58276 40.0359 7.91998 39.6425C8.27252 39.2337 9.16666 39.5352 9.82577 39.5249C10.6177 39.6067 10.679 39.6476 10.6637 40.4702C10.6535 41.0169 10.8221 41.5994 10.4593 42.1052L10.4491 42.1154Z" fill="#7B3E13"/>
<path d="M2.50814 7.87234C2.41617 7.04462 2.61033 6.20157 2.39062 5.37896C2.4315 5.30743 2.47237 5.2359 2.51325 5.16437C3.20302 5.38918 3.90811 5.24101 4.6081 5.25634C4.97597 5.26656 5.13947 5.33809 5.11903 5.74684C5.07816 6.5439 5.08838 7.34096 5.07816 8.13803C4.40883 8.09715 3.73439 8.07161 3.06506 8.07161C2.86069 8.0665 2.66142 8.03073 2.50814 7.87234Z" fill="#FDD26D"/>
<path d="M13.0545 50.0911C12.2012 50.0809 11.3429 50.0656 10.4896 50.0554C10.4487 50.04 10.4385 50.0094 10.464 49.9736C10.1115 49.1561 10.1984 48.3233 10.3721 47.4854C10.4078 47.4496 10.4436 47.4087 10.4794 47.3729C11.3429 47.4547 12.2063 47.5262 13.0647 47.3219C13.0954 47.3525 13.126 47.3832 13.1567 47.4087C13.3508 48.2773 13.3508 49.1408 13.1567 50.0094C13.1158 50.0349 13.0852 50.0605 13.0545 50.0911Z" fill="#ED9638"/>
<path d="M10.4531 42.1052C10.4429 41.5074 10.3969 40.9096 10.4378 40.322C10.4736 39.8213 10.3152 39.5658 9.81445 39.525C10.0188 39.5147 10.2232 39.5096 10.4225 39.4994C11.2911 39.1213 12.1648 39.198 13.0436 39.4381C13.4523 40.1841 13.2735 40.976 13.1969 41.7526C13.1662 42.049 12.8596 41.9979 12.6604 42.0796C11.9297 42.095 11.194 42.1001 10.4531 42.1052Z" fill="#EC9638"/>
<path d="M71.0363 5.36362C70.8268 6.23222 71.0465 7.12125 70.9137 7.99495C70.0502 8.09714 69.1867 8.2402 68.3437 7.87233C68.3385 7.16212 68.3539 6.45703 68.3181 5.74683C68.2977 5.33808 68.4612 5.24611 68.8342 5.25633C69.5188 5.28187 70.2035 5.26654 70.8881 5.26654C70.9443 5.30231 70.9903 5.33297 71.0363 5.36362Z" fill="#FDD16E"/>
<path d="M13.0591 39.4841C12.1803 39.4892 11.3065 39.4994 10.4277 39.5045C10.4533 38.6257 10.4737 37.7469 10.4993 36.8732C11.3525 36.8834 12.2058 36.8885 13.0591 36.8987C13.0897 36.9294 13.1204 36.9549 13.1459 36.9856C13.3401 37.7929 13.335 38.595 13.1459 39.4023C13.1204 39.4228 13.0897 39.4534 13.0591 39.4841Z" fill="#7A3D11"/>
<path d="M2.49414 73.6198C2.50436 72.7819 2.50947 71.9388 2.51969 71.1009C3.22478 70.7279 3.97586 70.9067 4.7065 70.9629C4.98752 70.9834 5.02328 71.2184 5.0335 71.4688C5.04883 71.9388 4.96197 72.4191 5.0897 72.8841C5.23788 73.5125 5.05394 73.8038 4.34884 73.7373C3.81236 73.6862 3.15836 73.5841 2.74961 73.8242C2.32042 74.0797 2.73428 74.8001 2.53502 75.2855C2.51969 74.7286 2.50436 74.1767 2.49414 73.6198Z" fill="#EB963A"/>
<path d="M60.501 44.7365C61.3133 44.7876 62.136 44.6497 62.9432 44.8132C62.9432 45.6664 62.9432 46.5248 62.9432 47.3781C62.1308 47.4036 61.3236 47.424 60.5112 47.4496C60.4805 47.424 60.455 47.3985 60.4243 47.373C60.1791 46.5861 60.363 45.7686 60.2812 44.9715C60.2966 44.8387 60.3732 44.7621 60.501 44.7365Z" fill="#7C3F14"/>
<path d="M10.3724 47.4802C10.5257 48.308 10.3571 49.1408 10.4644 49.9685C9.73372 49.9583 9.00819 49.9225 8.27755 49.9481C7.88413 49.9583 7.78194 49.8203 7.76151 49.4423C7.66443 47.47 7.65421 47.47 9.62132 47.47C9.87168 47.47 10.122 47.4802 10.3724 47.4802Z" fill="#7B3F15"/>
<path d="M65.553 34.201C64.9144 34.1856 64.2757 34.155 63.637 34.1652C63.2334 34.1754 63.0494 34.063 63.0801 33.6287C63.1108 33.174 63.1159 32.7141 63.0801 32.2594C63.0392 31.774 63.2078 31.5952 63.6932 31.6463C63.9385 31.6718 64.1939 31.6309 64.4443 31.6207C65.691 31.6361 65.7063 31.6361 65.6859 32.8776C65.6757 33.317 65.8238 33.782 65.553 34.201Z" fill="#7B3E14"/>
<path d="M63.0248 55.1699C62.1919 55.456 61.3284 55.2107 60.4854 55.3078C60.4599 55.2772 60.4292 55.2465 60.4037 55.2158C60.2248 54.3983 60.2248 53.5808 60.4037 52.7633C60.4292 52.7327 60.4599 52.702 60.4854 52.6714C61.3233 52.6765 62.1613 52.6765 62.9992 52.6816C62.9583 53.5093 62.9124 54.3421 63.0248 55.1699Z" fill="#793C12"/>
<path d="M10.4899 29.1989C10.4848 29.1478 10.4797 29.0967 10.4746 29.0456C11.2155 28.8872 11.9665 29.0047 12.7125 28.9741C13.1008 28.9588 13.1008 29.296 13.1162 29.5668C13.1519 30.1595 13.1059 30.7521 13.1519 31.3448C13.1468 31.4368 13.1059 31.5083 13.0344 31.5696C12.3753 31.6105 11.7111 31.5543 11.052 31.5952C10.6075 31.6259 10.5155 31.447 10.5206 31.0434C10.5308 30.4303 10.5768 29.812 10.4899 29.1989Z" fill="#783C10"/>
<path d="M54.2982 0.0498794C54.0887 0.264473 53.823 0.172504 53.5829 0.172504C43.1137 0.177614 32.6446 0.177614 22.1755 0.177614C21.9354 0.177614 21.6697 0.269582 21.4551 0.0600972C25.7981 0.0498785 30.141 0.0396597 34.484 0.0345503C40.8401 0.0243316 47.191 0.0243322 53.5471 0.0192228C53.7975 0.0141134 54.0478 0.0396607 54.2982 0.0498794Z" fill="#532D1E"/>
<path d="M21.3113 0.049876C21.1019 0.26447 20.8362 0.172501 20.596 0.172501C16.6567 0.17761 12.7174 0.177611 8.77803 0.177611C8.46125 0.177611 8.13425 0.116298 7.84812 0.330892C7.77148 0.269579 7.7817 0.17761 7.7817 0.0958601C9.04883 -0.0727494 10.3211 0.0345479 11.5933 0.0243291C14.5567 -0.0114365 17.5253 0.0141098 20.4887 0.0141098C20.7646 0.0141098 21.0354 0.0396573 21.3113 0.049876Z" fill="#532D1E"/>
<path d="M65.5998 0.0805377C65.559 0.131631 65.513 0.218492 65.4721 0.218492C61.9671 0.208273 58.4671 0.192945 54.9621 0.177617C54.7833 0.177617 54.5891 0.218491 54.4512 0.0549908C58.0788 0.0396627 61.7116 0.0294448 65.3393 0.0192261C65.421 0.0192261 65.5079 0.0601002 65.5998 0.0805377Z" fill="#532D1E"/>
<path d="M7.78137 0.0958557C7.80181 0.172496 7.82735 0.254247 7.84779 0.330887C7.82735 0.366653 7.82735 0.397309 7.84779 0.433075C7.93465 1.16883 7.97552 1.90458 7.83246 2.64033C7.83246 3.51403 7.83757 4.38263 7.83757 5.25633C7.81203 5.26144 7.78137 5.26144 7.75582 5.26655C7.7456 4.39795 7.73538 3.53447 7.72517 2.66587C7.78137 1.8075 7.62809 0.949122 7.78137 0.0958557Z" fill="#F9B857"/>
<path d="M10.4903 29.1989C10.7202 29.7252 10.5874 30.2821 10.5823 30.8186C10.5771 31.3346 10.6844 31.5799 11.2618 31.5288C11.8545 31.4777 12.4523 31.5134 13.045 31.5083C13.0807 31.5339 13.091 31.5645 13.0858 31.5952C13.0756 31.6259 13.0654 31.6412 13.0552 31.6412C12.1713 31.6514 11.2873 31.6565 10.4034 31.6667C10.3625 31.6667 10.3268 31.6565 10.291 31.6361C10.6282 31.12 10.3779 30.5478 10.4494 30.0062C10.4852 29.7405 10.4801 29.4697 10.4903 29.1989Z" fill="#9F5D18"/>
<path d="M7.73559 68.3316C7.73559 67.509 7.73048 66.6813 7.73048 65.8587C7.74581 65.0207 7.66916 64.1828 7.79179 63.35C7.81223 64.193 7.83266 65.0309 7.85821 65.874C7.84799 66.7119 7.84288 67.5499 7.83266 68.3878C7.7969 68.3674 7.76113 68.352 7.73559 68.3316Z" fill="#FAB757"/>
<path d="M13.0541 31.3857C12.8038 30.8441 12.9315 30.2667 12.952 29.7149C12.9673 29.158 12.7731 28.9996 12.2469 29.0354C11.6593 29.0763 11.0666 29.0456 10.4739 29.0456C10.4586 29.0149 10.4433 28.9894 10.433 28.9587C10.4279 28.9434 10.4381 28.9281 10.4433 28.9076C11.1841 28.8974 11.925 28.8923 12.6709 28.8821C12.8855 28.8003 13.0746 28.8055 13.187 29.0456C13.2738 29.2857 13.2738 29.5361 13.2687 29.7865C13.1819 30.3229 13.4373 30.9003 13.0541 31.3857Z" fill="#9F5D18"/>
<path d="M13.0748 60.6573C13.0595 60.6267 13.0492 60.596 13.0441 60.5654C12.7325 58.8077 12.6916 57.0501 13.0595 55.2925L13.0543 55.2976C13.9229 54.9604 14.7966 54.9961 15.6755 55.2721C15.8287 55.4304 15.8747 55.6297 15.8747 55.8341C15.8747 57.3362 15.9616 58.8333 15.8339 60.3354C15.8083 60.4172 15.7725 60.4887 15.7214 60.5552C14.8529 60.8362 13.9638 60.7493 13.0748 60.6573Z" fill="#FAB857"/>
<path d="M13.0589 55.2874C13.0538 57.045 13.0487 58.8026 13.0436 60.5603C12.1801 60.55 11.3166 60.5347 10.4531 60.5245C10.4531 58.7822 10.4531 57.0399 10.4531 55.2976C11.3217 55.2925 12.1903 55.2925 13.0589 55.2874Z" fill="#EB9638"/>
<path d="M60.5115 60.5398C60.4961 61.2245 60.4502 61.9091 60.4757 62.5938C60.491 63.0587 60.3122 63.1712 59.8779 63.1712C58.0692 63.1763 56.2656 63.2376 54.4569 63.2376C41.7958 63.2427 29.1297 63.2376 16.4686 63.2325C16.2183 63.2325 15.973 63.1967 15.7227 63.1763C15.9015 62.9004 16.1978 62.931 16.4635 62.9259C17.0562 62.9157 17.6489 62.9004 18.2416 62.9259C18.5635 62.9055 18.8803 62.9004 19.2021 62.9004C30.8924 62.9004 42.5827 62.9004 54.2729 62.9004C54.5693 62.9004 54.8656 62.8952 55.162 62.9259C55.7291 62.9106 56.3013 62.9106 56.8685 62.9259C57.3743 62.9361 57.548 62.7113 57.548 62.2259C57.548 61.6843 57.4663 61.1325 57.64 60.596C57.6809 60.5194 57.7371 60.4581 57.8137 60.4172C58.7079 60.2741 59.5969 60.1668 60.4757 60.4989L60.5115 60.5398Z" fill="#EC9637"/>
<path d="M13.076 60.6573C13.9344 60.4274 14.8081 60.5551 15.6716 60.5347C15.9679 61.4237 16.1008 62.3128 15.5592 63.166C14.8132 63.3704 14.0672 63.1456 13.3264 63.1558C13.0249 63.1609 13.0556 62.9055 13.0556 62.7062C13.0607 62.0215 13.0709 61.3369 13.076 60.6573Z" fill="#EB9638"/>
<path d="M15.5625 63.166C15.7975 62.2974 15.6391 61.4084 15.6749 60.5347L15.6851 60.5245C16.4515 60.1515 17.2435 60.3048 18.0303 60.407C18.1683 60.4274 18.2705 60.5347 18.3471 60.6522C18.6537 61.0916 18.5362 62.6806 18.1683 63.1201C17.3508 63.1405 16.5333 63.166 15.7158 63.1865C15.6647 63.1763 15.6136 63.1711 15.5625 63.166Z" fill="#F8B857"/>
<path d="M60.7715 60.5143C61.5021 60.315 62.2328 60.2946 62.9583 60.5296C62.2328 60.5245 61.5021 60.5194 60.7715 60.5143Z" fill="#F9B757"/>
<path d="M65.6909 7.87744C65.6909 8.74604 65.6909 9.61463 65.6858 10.4883C65.3486 10.4883 65.0114 10.4934 64.6742 10.4934C46.0607 10.4934 27.4472 10.4934 8.83377 10.4986C8.47611 10.4986 8.03159 10.3402 7.84766 10.892C7.84766 9.02194 7.84766 7.1468 7.84766 5.27677C8.71114 5.28188 9.57974 5.28188 10.4432 5.28699C10.8009 5.75194 10.6323 6.29354 10.6527 6.79936C10.6885 7.6373 10.6987 7.67307 11.5571 7.67307C12.9264 7.67307 12.8497 7.77526 12.86 6.39061C12.8651 6.01252 12.7782 5.60888 13.0694 5.28188C13.938 5.28188 14.8015 5.28188 15.6701 5.28699C16.0278 5.75194 15.8592 6.29354 15.8796 6.79936C15.9154 7.6373 15.9256 7.67307 16.7789 7.67307C18.1482 7.67307 18.0766 7.77526 18.0869 6.39061C18.092 6.01252 18.0051 5.60888 18.2963 5.28188C18.981 5.28188 19.6657 5.27677 20.3554 5.27677C20.9532 5.26655 21.1065 5.61399 21.1065 6.15047C21.1116 7.79569 20.8102 7.69351 22.7313 7.67307C23.37 7.66796 23.4721 7.53001 23.4108 6.86579C23.3597 6.31397 23.3189 5.77238 23.6612 5.28188C24.4378 5.28188 25.2144 5.28188 25.9911 5.27677C26.3078 5.43005 26.3385 5.7315 26.3743 6.02274C26.3947 6.18113 26.364 6.33952 26.3589 6.49791C26.3436 7.55044 26.4662 7.67818 27.5034 7.67818C27.6874 7.67818 27.8662 7.67307 28.0501 7.67818C28.4742 7.6884 28.6735 7.48402 28.6786 7.05994C28.6837 6.69718 28.6735 6.33441 28.6888 5.97165C28.7041 5.69574 28.7093 5.41472 29.0158 5.27677C29.7924 5.27677 30.5691 5.27677 31.3508 5.28188C31.8311 5.5629 31.6778 6.04318 31.688 6.45193C31.7136 7.67818 31.7034 7.68329 32.9347 7.67307C33.8748 7.66796 33.8646 7.64752 33.9106 6.72272C33.931 6.23222 33.696 5.65486 34.2427 5.27677C35.0653 5.27677 35.8879 5.27677 36.7105 5.27677C37.0682 5.76727 36.8894 6.3293 36.9149 6.86579C36.9558 7.61687 36.9813 7.66796 37.7477 7.67307C39.2295 7.67818 39.1119 7.76504 39.1273 6.31397C39.1324 5.9461 39.0353 5.52202 39.4645 5.28188C40.2871 5.28188 41.1097 5.28188 41.9323 5.28188C42.2491 5.65997 42.1214 6.11471 42.1316 6.53879C42.1623 7.60665 42.2185 7.67818 43.2608 7.67818C43.3732 7.67818 43.4907 7.67818 43.6031 7.67818C44.3133 7.65774 44.4206 7.56066 44.4717 6.83002C44.4921 6.53368 44.4819 6.23733 44.4564 5.93588C44.4359 5.71107 44.3695 5.47604 44.5534 5.28188C45.422 5.28188 46.2906 5.27677 47.1541 5.27677C47.6293 5.56289 47.4811 6.03807 47.4913 6.45193C47.5169 7.68329 47.5067 7.68329 48.738 7.67307C49.6781 7.66796 49.673 7.64752 49.7139 6.72272C49.7344 6.22711 49.5044 5.65486 50.046 5.27677C50.8227 5.27677 51.6044 5.27677 52.381 5.27677C52.8562 5.56289 52.708 6.03807 52.7182 6.45193C52.7438 7.68329 52.7336 7.68329 53.9649 7.67818C54.905 7.67307 54.8999 7.65263 54.9408 6.72783C54.9612 6.23733 54.7262 5.65997 55.2729 5.28188C56.0955 5.28188 56.9181 5.28188 57.7407 5.28188C58.0984 5.75194 57.9247 6.29354 57.9451 6.80447C57.9809 7.62197 58.0013 7.66796 58.7933 7.66796C60.4538 7.67307 60.2852 7.78036 60.2801 6.21179C60.2801 5.67019 60.3874 5.26655 61.0363 5.27677C61.675 5.27677 62.3188 5.27677 62.9574 5.27677C63.3917 5.5118 63.2844 5.93588 63.2895 6.30376C63.3049 7.79569 63.1976 7.66796 64.6333 7.68329C64.9961 7.68329 65.3639 7.66796 65.6909 7.87744Z" fill="#F9B857"/>
<path d="M65.692 70.9732C65.6971 71.8827 65.7022 72.7972 65.7073 73.7067C65.503 73.7118 65.2935 73.722 65.0891 73.722C46.3223 73.722 27.5505 73.722 8.78374 73.722C7.8385 73.722 7.83339 73.722 7.8385 72.7564C7.8385 72.3425 7.84872 71.9337 7.85383 71.5199C7.91514 71.0907 8.16039 70.8914 8.59469 70.8914C8.93702 70.8914 9.27935 70.8863 9.62679 70.8863C28.0716 70.8863 46.5165 70.8914 64.9563 70.8863C65.2015 70.8812 65.457 70.8454 65.692 70.9732Z" fill="#EB9638"/>
<path d="M65.6909 70.9732C65.4048 71.1827 65.0727 71.106 64.761 71.106C46.1118 71.1111 27.4575 71.106 8.80822 71.106C8.43013 71.106 8.01627 71.0192 7.85277 71.5199C7.85277 71.2951 7.84766 71.0651 7.84766 70.8403C8.144 70.2323 7.93452 69.5885 7.9805 68.9601C8.00605 68.6075 7.97539 68.3112 8.49144 68.4798C8.72136 68.5513 8.99216 68.5002 9.24252 68.5002C27.718 68.5002 46.1987 68.5002 64.6742 68.49C65.0063 68.49 65.3946 68.7302 65.6909 68.3674C65.6909 69.2309 65.6909 70.0995 65.6909 70.9732Z" fill="#FAB757"/>
<path d="M65.4421 76.3431C65.4983 76.7672 65.3042 76.9001 64.8903 76.8898C63.8838 76.8643 62.867 76.8081 61.8707 76.9001C60.2714 77.0431 58.6875 76.8541 57.0934 76.8898C56.8941 76.8949 56.5569 76.7621 56.5518 77.1147C56.5467 77.4672 56.8788 77.4314 57.1241 77.4314C57.5839 77.4365 58.0386 77.4263 58.4985 77.4365C58.6313 77.4417 58.8613 77.3344 58.8613 77.5949C58.8613 77.7533 58.7386 77.9526 58.5751 77.9373C57.8905 77.8759 57.1292 78.3205 56.5416 77.5898C56.3015 77.2884 54.7891 77.3752 54.4672 77.646C53.9 78.1365 52.7096 78.1263 52.1884 77.6256C51.8716 77.3241 50.3848 77.3395 50.068 77.6511C49.5877 78.1212 48.2899 78.1161 47.8046 77.6409C47.4878 77.3344 45.9498 77.2935 45.6995 77.646C45.4645 77.973 45.1886 77.9781 44.8667 77.9781C39.5069 77.9781 34.1523 77.9781 28.7926 77.973C28.6137 77.973 28.4298 77.9526 28.251 77.9117C28.1386 77.8811 28.0721 77.7687 28.0772 77.6409C28.0823 77.503 28.1794 77.4417 28.3021 77.4365C28.486 77.4263 28.6699 77.4263 28.8488 77.4263C34.1165 77.4263 39.3843 77.4263 44.647 77.4263C44.8053 77.4263 44.9688 77.4314 45.1272 77.4263C45.3725 77.4161 45.7148 77.4723 45.7199 77.13C45.725 76.7315 45.3469 76.8847 45.1375 76.8847C39.5018 76.8745 33.8713 76.8183 28.2407 76.9205C26.897 76.946 25.5583 76.7519 24.2248 76.8847C23.9897 76.9103 23.5657 76.6957 23.5657 77.1147C23.5657 77.5387 24 77.411 24.2759 77.4212C24.6897 77.4365 25.0985 77.4161 25.5123 77.4314C25.6401 77.4365 25.8751 77.3241 25.87 77.6C25.8649 77.7635 25.7474 77.9526 25.5788 77.9373C24.8941 77.8759 24.1328 78.3102 23.5503 77.5796C23.3102 77.2833 21.7978 77.3752 21.4759 77.6511C20.9139 78.1365 19.7234 78.1212 19.1971 77.6205C18.8752 77.319 17.3935 77.3497 17.0767 77.6614C16.6322 78.1008 15.268 78.1212 14.8491 77.6971C14.4659 77.3088 13.025 77.2935 12.6622 77.7124C12.4885 77.9117 12.3199 77.9832 12.0747 77.9832C10.9506 77.9781 9.83165 77.9832 8.70758 77.9781C8.51343 77.9781 8.23241 78.0395 8.21708 77.7482C8.20686 77.4417 8.47255 77.4263 8.7178 77.4263C9.8623 77.4314 11.0068 77.4314 12.1513 77.4263C12.3966 77.4263 12.7389 77.4672 12.7389 77.1249C12.7338 76.7314 12.3608 76.8898 12.1462 76.8847C11.0681 76.8694 9.99515 76.8694 8.91707 76.8796C8.52875 76.8847 8.21708 76.8285 8.24774 76.338C19.8511 76.3329 31.4494 76.3329 43.0528 76.3329C50.5227 76.3329 57.9824 76.338 65.4421 76.3431Z" fill="#7A3E11"/>
<path d="M65.5632 77.8504C64.8325 78.1263 64.0712 77.9373 63.3252 77.9781C62.7121 78.0088 62.0888 77.9884 61.4757 77.9781C61.2815 77.9781 61.1078 77.9066 61.0822 77.6818C61.0618 77.503 61.1895 77.4365 61.3377 77.4417C62.7479 77.5081 64.1632 77.2679 65.5632 77.5694C65.5632 77.6614 65.5632 77.7533 65.5632 77.8504Z" fill="#7A3E11"/>
<path d="M61.0428 5.27676C60.5779 5.39939 60.4706 5.70084 60.4808 6.17091C60.5115 7.87744 60.491 7.88255 58.7794 7.87744C57.6247 7.87233 57.7575 8.00517 57.7473 6.86067C57.7422 6.33441 57.7422 5.80814 57.7422 5.28187C58.8407 5.27676 59.9392 5.27676 61.0428 5.27676Z" fill="#FBD26B"/>
<path d="M23.662 5.28189C23.6416 5.95632 23.5189 6.62054 23.6467 7.30009C23.7182 7.6884 23.5087 7.88767 23.0948 7.87745C22.5226 7.86212 21.9555 7.86212 21.3832 7.87745C21.0307 7.88767 20.8876 7.74972 20.9029 7.39717C20.9183 6.98842 20.8723 6.57456 20.9183 6.16581C20.9693 5.69575 20.8212 5.3994 20.3613 5.27167C21.4598 5.27678 22.5584 5.27678 23.662 5.28189Z" fill="#FDD16D"/>
<path d="M29.0162 5.27678C28.7301 5.91034 28.9089 6.58478 28.8885 7.23367C28.8731 7.69862 28.7198 7.91322 28.2396 7.87745C27.9688 7.85701 27.6929 7.87234 27.417 7.87234C26.2929 7.87234 25.9914 7.56578 26.1498 6.45193C26.2111 6.02275 26.1549 5.64976 25.9863 5.27167C26.998 5.27678 28.0045 5.27678 29.0162 5.27678Z" fill="#FBD26D"/>
<path d="M44.554 5.28187C44.6664 6.0023 44.7992 6.71761 44.5744 7.44314C44.5386 7.55044 44.5386 7.73949 44.4824 7.75992C43.7773 8.00517 43.0314 7.91831 42.3212 7.83145C41.8766 7.78036 41.9482 7.23366 41.938 6.85556C41.9277 6.3293 41.9328 5.80303 41.9277 5.27676C42.8065 5.28187 43.6803 5.28187 44.554 5.28187Z" fill="#FCD16B"/>
<path d="M55.2677 5.27678C54.9815 5.91034 55.145 6.58478 55.145 7.23367C55.145 7.75482 54.9764 7.92854 54.4706 7.87745C53.8626 7.82125 53.0911 8.11759 52.6772 7.75993C52.2378 7.38695 52.575 6.6001 52.5239 5.99209C52.5035 5.74173 52.529 5.49137 52.3809 5.26656C53.3414 5.27677 54.3071 5.27678 55.2677 5.27678Z" fill="#FCD26C"/>
<path d="M50.047 5.27676C49.7608 5.91544 49.9192 6.58476 49.9243 7.23366C49.9243 7.75481 49.7608 7.92853 49.255 7.88255C48.647 7.82634 47.8755 8.12269 47.4565 7.77014C47.012 7.39716 47.3543 6.61031 47.3032 6.0023C47.2828 5.75194 47.3083 5.49647 47.1602 5.27676C48.1207 5.27676 49.0864 5.27676 50.047 5.27676Z" fill="#FDD16D"/>
<path d="M34.2372 5.27676C33.9561 5.91033 34.1094 6.58476 34.1145 7.23366C34.1145 7.75481 33.9459 7.92853 33.4452 7.88255C32.8372 7.82634 32.0657 8.12269 31.6518 7.77014C31.2073 7.39716 31.5496 6.61031 31.4985 6.0074C31.4781 5.75705 31.5036 5.50669 31.3555 5.28187C32.3109 5.27676 33.2766 5.27676 34.2372 5.27676Z" fill="#FDD16B"/>
<path d="M39.4647 5.27678C39.1837 5.93589 39.3523 6.62565 39.3421 7.29498C39.3319 7.7395 39.199 7.90811 38.7494 7.88256C38.2487 7.8519 37.748 7.8519 37.2473 7.88256C36.8181 7.90811 36.6954 7.72928 36.7057 7.32053C36.7261 6.64098 36.7108 5.95632 36.7057 5.27167C37.6253 5.27678 38.545 5.27678 39.4647 5.27678Z" fill="#FDD16D"/>
<path d="M65.6921 7.87745C64.9716 7.87745 64.2563 7.86212 63.5359 7.87745C63.1425 7.88767 63.1169 7.66286 63.1016 7.35629C63.0556 6.66142 63.2498 5.95121 62.9688 5.27678C63.8782 5.27167 64.7826 5.26656 65.6921 5.26656C65.6869 6.13515 65.6869 7.00885 65.6921 7.87745Z" fill="#FBD26F"/>
<path d="M18.2969 5.27676C18.2969 5.96142 18.2713 6.64608 18.2969 7.33074C18.3122 7.75481 18.1487 7.86722 17.74 7.88255C15.6809 7.94386 15.6809 7.95408 15.6809 5.895C15.6809 5.69062 15.6758 5.48625 15.6758 5.27676C16.5495 5.28187 17.4232 5.27676 18.2969 5.27676Z" fill="#FCD26B"/>
<path d="M13.0754 5.27676C13.0754 5.96142 13.0499 6.64608 13.0754 7.33074C13.0908 7.75481 12.9273 7.87233 12.5185 7.88255C10.4645 7.94386 10.4645 7.95408 10.4594 5.895C10.4594 5.69062 10.4543 5.48625 10.4492 5.27676C11.3229 5.28187 12.2017 5.27676 13.0754 5.27676Z" fill="#FBD26E"/>
<path d="M7.83203 2.64034C7.83714 1.90459 7.84225 1.16884 7.84736 0.43309C8.10283 0.780528 7.95466 1.17906 7.96998 1.55204C7.98531 1.91481 7.99042 2.27247 8.11816 2.6199C8.02619 2.63012 7.92911 2.63523 7.83203 2.64034Z" fill="#532D1E"/>
<path d="M23.6513 18.4743C26.3286 18.4692 29.0111 18.459 31.6884 18.4539C37.4824 18.4488 43.2764 18.4539 49.0756 18.4539C49.3975 18.4539 49.7143 18.4692 50.0362 18.4794C50.2303 19.0363 50.1026 19.6137 50.123 20.1808C50.1383 20.6356 50.3172 20.8553 50.7821 20.8502C51.196 20.8502 51.6047 20.8399 52.0186 20.8757C52.4529 20.9115 52.6879 21.1363 52.7186 21.5706C52.7543 22.0969 52.7441 22.6231 52.7237 23.1494C52.7032 23.6603 52.4171 23.88 51.9266 23.8902C51.5128 23.9005 51.104 23.8954 50.6902 23.9056C50.3274 23.9158 50.1435 24.0844 50.1383 24.4523C50.1179 26.5369 50.123 28.6215 50.1383 30.7062C50.1435 31.1047 50.3478 31.2835 50.7361 31.2937C51.104 31.304 51.4668 31.2937 51.8347 31.3142C52.3763 31.3397 52.6879 31.6003 52.7186 32.1572C52.7492 32.6835 52.7492 33.2098 52.7186 33.736C52.693 34.201 52.4478 34.4411 51.9828 34.4667C51.569 34.4922 51.1602 34.482 50.7464 34.4871C50.3683 34.4922 50.1383 34.6353 50.1383 35.0542C50.123 37.1133 50.123 39.1775 50.1383 41.2366C50.1435 41.6556 50.3376 41.865 50.7668 41.8753C51.1091 41.8804 51.4566 41.8702 51.7989 41.8906C52.55 41.9264 52.7084 42.0847 52.7339 42.8512C52.7595 43.5818 52.7441 44.3175 52.739 45.0482C52.739 46.4431 52.7543 47.843 52.7339 49.2379C52.7186 50.1065 52.55 50.27 51.6712 50.2853C50.0668 50.3109 50.1332 50.1474 50.1332 51.8896C50.1332 53.5144 50.1281 55.1443 50.1332 56.7691C50.1383 57.6173 50.1997 57.6735 51.0223 57.6888C52.7135 57.7246 52.7492 57.7603 52.7441 59.4413C52.7441 59.6457 52.739 59.8552 52.7339 60.0595C52.7186 60.5705 52.4835 60.7646 51.9522 60.7646C43.067 60.7084 34.1766 60.7493 25.2914 60.7391C23.4163 60.7391 23.4316 60.7646 23.4367 58.9559C23.4418 58.2151 23.355 58.1486 22.5988 58.1282C22.2105 58.118 21.8222 58.1333 21.4287 58.1078C20.9996 58.0771 20.7339 57.8676 20.7185 57.4282C20.6674 56.0078 20.6726 54.5874 20.7134 53.167C20.7288 52.7276 20.9842 52.513 21.4185 52.4823C21.8784 52.4517 22.3331 52.467 22.7929 52.4568C23.2119 52.4466 23.4214 52.2524 23.4265 51.8283C23.4418 50.6583 23.4418 49.4933 23.4265 48.3233C23.4214 47.8992 23.2221 47.7 22.7981 47.6846C22.3842 47.6744 21.9754 47.6846 21.5616 47.6591C21.0506 47.6233 20.7339 47.373 20.7134 46.8518C20.6623 45.4569 20.6572 44.057 20.7185 42.6621C20.739 42.1716 21.0455 41.9315 21.5258 41.8957C21.9601 41.8599 22.3944 41.8804 22.8287 41.8702C23.217 41.8599 23.4214 41.6862 23.4265 41.2877C23.4418 40.0717 23.4418 38.8607 23.4265 37.6447C23.4214 37.2768 23.2375 37.1082 22.8747 37.098C22.4404 37.0878 22.0061 37.098 21.5718 37.0776C21.02 37.052 20.7236 36.7608 20.7083 36.2141C20.6725 34.8652 20.6726 33.5112 20.7134 32.1623C20.7288 31.6105 21.0455 31.3397 21.5871 31.3091C22.001 31.2835 22.4097 31.2988 22.8236 31.2886C23.2068 31.2784 23.4265 31.12 23.4316 30.7113C23.4469 29.4952 23.4469 28.2843 23.4316 27.0683C23.4265 26.7055 23.2579 26.5267 22.89 26.5165C22.4557 26.5011 22.0214 26.5165 21.5871 26.496C21.0455 26.4654 20.7288 26.2048 20.7134 25.6479C20.6828 24.3194 20.6879 22.991 20.7083 21.6626C20.7185 21.1261 21.0047 20.8808 21.5258 20.8604C21.9141 20.8502 22.3076 20.8348 22.6959 20.8502C23.263 20.8757 23.4521 20.6151 23.4572 20.0684C23.4469 19.5371 23.2886 18.9699 23.6513 18.4743Z" fill="#FBF6A4"/>
<path d="M23.652 18.4743C23.652 19.1385 23.6214 19.8027 23.6571 20.467C23.6827 20.9626 23.4936 21.1107 23.0236 21.0801C22.4973 21.0494 21.971 21.0954 21.4448 21.0647C21.0105 21.0392 20.8981 21.2231 20.9032 21.6268C20.9236 22.9552 20.9236 24.2837 20.9032 25.6121C20.893 26.1077 21.0616 26.3325 21.5776 26.3019C22.0783 26.2712 22.5842 26.3121 23.09 26.2916C23.4885 26.2712 23.6673 26.3887 23.6571 26.8281C23.6367 28.223 23.6418 29.623 23.6571 31.0178C23.6622 31.4112 23.509 31.5441 23.1309 31.5288C22.5842 31.5083 22.0324 31.5339 21.4805 31.5185C21.0769 31.5083 20.8981 31.6718 20.9032 32.0857C20.9134 33.4805 20.9134 34.8805 20.9032 36.2754C20.8981 36.725 21.0922 36.8885 21.5265 36.8783C22.0732 36.8578 22.625 36.8885 23.1769 36.8681C23.5294 36.8578 23.6622 36.9958 23.6571 37.3535C23.6418 38.7739 23.6418 40.1943 23.6571 41.6147C23.6622 42.0285 23.4681 42.1154 23.1104 42.1052C22.5842 42.0898 22.0579 42.1154 21.5316 42.095C21.0973 42.0745 20.9032 42.238 20.9083 42.6876C20.9236 44.0825 20.9185 45.4825 20.9083 46.8773C20.9032 47.281 21.0616 47.4649 21.4754 47.4547C22.0017 47.4394 22.528 47.4649 23.0542 47.4496C23.4476 47.4394 23.6571 47.5722 23.652 47.9963C23.6418 49.3707 23.6418 50.7451 23.652 52.1196C23.6571 52.5385 23.4681 52.6918 23.0696 52.6816C22.5177 52.6663 21.971 52.6867 21.4192 52.6765C21.0973 52.6714 20.9032 52.7429 20.9083 53.1312C20.9185 54.5721 20.9185 56.018 20.9083 57.4589C20.9083 57.7808 21.0309 57.9136 21.3528 57.9085C21.9506 57.8983 22.5433 57.9238 23.1411 57.9034C23.5243 57.8881 23.6776 58.026 23.6622 58.4194C23.6367 58.9457 23.6725 59.472 23.652 59.9982C23.6367 60.3712 23.7593 60.5654 24.1579 60.5245C24.3162 60.5092 24.4797 60.5245 24.6381 60.5245C33.5489 60.5245 42.4596 60.5245 51.3704 60.5245C52.5302 60.5245 52.5302 60.5245 52.5302 59.334C52.5251 57.7092 52.6835 57.9238 51.0945 57.9034C49.7558 57.8881 49.9296 58.0924 49.9193 56.7487C49.9091 54.7764 49.9347 52.8093 49.904 50.8371C49.8938 50.2291 50.1033 49.9838 50.696 50.0605C50.7164 50.0656 50.742 50.0605 50.7624 50.0605C52.5251 50.0503 52.5251 50.0503 52.5251 48.3233C52.5251 46.4686 52.5098 44.6139 52.5353 42.7592C52.5405 42.2585 52.4178 42.0847 51.8865 42.0847C49.9142 42.0847 49.9142 42.0643 49.9142 40.1125C49.9142 38.3958 49.9296 36.6739 49.904 34.9572C49.8938 34.436 50.0113 34.1907 50.5836 34.2469C51.0587 34.2929 51.5441 34.2469 52.0244 34.2623C52.3616 34.2725 52.5353 34.1703 52.5251 33.7973C52.5047 33.2251 52.5098 32.6528 52.5251 32.0806C52.5353 31.6667 52.3463 31.5032 51.9427 31.5134C51.4164 31.5288 50.8901 31.5083 50.3639 31.5185C50.042 31.5236 49.9142 31.3959 49.9142 31.074C49.9193 28.7595 49.9193 26.4449 49.9091 24.1355C49.9091 23.7574 50.0828 23.6654 50.415 23.6756C50.9412 23.691 51.4675 23.6654 51.9938 23.6859C52.3616 23.7012 52.5456 23.5888 52.5302 23.1851C52.5098 22.6384 52.5098 22.0866 52.5302 21.5348C52.5405 21.1669 52.3821 21.0545 52.0346 21.0647C51.5084 21.0801 50.9821 21.0443 50.4558 21.075C50.0266 21.1005 49.8734 20.9217 49.9142 20.5129C49.9755 19.8334 49.7865 19.1385 50.042 18.4743C51.8302 18.4743 53.6134 18.4743 55.4017 18.4743C55.4119 19.0619 55.3097 19.6443 55.3251 20.2319C55.3353 20.702 55.5294 20.8706 55.9842 20.8757C56.5462 20.8859 57.1185 20.7735 57.6703 20.983C57.6958 21.0085 57.7265 21.0341 57.752 21.0647C57.752 22.807 57.7571 24.5545 57.7571 26.2968C57.1951 26.6135 56.5615 26.5267 55.9586 26.5778C55.5243 26.6135 55.3404 26.7413 55.3404 27.1756C55.3455 28.3609 55.3506 29.5463 55.3404 30.7266C55.3353 31.2171 55.5601 31.3346 56.0148 31.3295C56.5922 31.3244 57.2002 31.1507 57.7418 31.5185C57.7878 31.5645 57.8338 31.6105 57.8798 31.6565C57.9973 32.5047 58.0024 33.3477 57.8542 34.1907C57.8184 34.2674 57.7571 34.3236 57.6856 34.3594C57.1542 34.5433 56.5973 34.4513 56.0557 34.4615C55.5754 34.4667 55.3455 34.6557 55.3455 35.1564C55.3506 36.3009 55.3506 37.4403 55.3455 38.5848C55.3404 39.0804 55.5652 39.2746 56.0506 39.2848C56.5973 39.295 57.1491 39.203 57.6856 39.3819C57.7622 39.4228 57.8184 39.479 57.8593 39.5556C58.0586 40.2045 57.9513 40.8738 57.9615 41.5329C57.9768 42.3811 57.9717 43.2241 57.9615 44.0723C57.9564 44.6394 57.6856 44.9102 57.1185 44.9153C56.7301 44.9204 56.3418 44.9204 55.9535 44.9307C55.5601 44.946 55.3762 45.1402 55.3659 45.5285C55.32 47.4292 55.2944 47.2248 56.8426 47.2452C57.8133 47.2605 57.9768 47.4087 57.9615 48.3642C57.9411 49.759 58.033 51.1539 57.89 52.5436C57.8593 52.6203 57.8133 52.6867 57.752 52.7378C57.2104 52.9882 56.6331 52.8655 56.071 52.8706C55.5499 52.8809 55.3557 53.0955 55.3404 53.6115C55.2944 55.083 55.2791 55.0779 56.7404 55.0881C57.0571 55.0881 57.379 55.0626 57.6856 55.1699C57.7622 55.2056 57.8287 55.2567 57.8798 55.3231C58.0637 55.645 57.9666 55.9925 57.9666 56.3297C57.9717 57.4231 57.9717 58.5114 57.9666 59.6048C57.9666 59.9216 57.9871 60.2486 57.7673 60.5143C57.3382 60.8208 56.8426 60.6829 56.3725 60.7033C55.4783 60.7442 55.3762 60.8515 55.3404 61.7559C55.32 62.2004 55.5039 62.6602 55.2791 63.0945C54.5025 63.0996 53.7207 63.1098 52.9441 63.1098C41.7699 63.1098 30.6008 63.1098 19.4266 63.1098C19.0127 63.1098 18.604 63.0996 18.1901 63.0894C18.4405 62.3588 18.2821 61.6077 18.2923 60.8668C18.2974 60.5398 18.0113 60.4989 17.7456 60.4989C17.066 60.4989 16.3865 60.4938 15.7018 60.4938C15.7018 58.7566 15.6967 57.0143 15.6967 55.2772C15.7274 55.2516 15.7529 55.221 15.7836 55.1954C16.3098 54.9757 16.8617 55.0881 17.4033 55.0779C17.8886 55.0677 18.1083 54.8684 18.1032 54.3779C18.0981 53.2181 18.0981 52.0531 18.1032 50.8933C18.1083 50.4181 17.8733 50.2597 17.4288 50.2546C16.8872 50.2495 16.3354 50.3313 15.7989 50.1678C15.7223 50.132 15.661 50.0809 15.6099 50.0094C15.4106 49.1408 15.4464 48.2671 15.5843 47.3934C15.6201 47.3167 15.6763 47.2605 15.7529 47.2197C16.2996 47.1175 16.8412 47.2554 17.393 47.2452C17.8682 47.235 18.1135 47.0919 18.1083 46.5708C18.093 45.3598 18.0981 44.1438 18.1083 42.9329C18.1135 42.4628 17.8989 42.284 17.4441 42.2789C16.8974 42.2738 16.3456 42.3555 15.804 42.1971C15.7274 42.1614 15.6661 42.1103 15.615 42.0388C15.4106 41.2161 15.4566 40.3935 15.5792 39.5658C15.6099 39.4892 15.6661 39.4279 15.7325 39.3819C16.3047 39.1673 16.9025 39.2848 17.4901 39.2695C17.9091 39.2593 18.093 39.1111 18.1186 38.6666C18.2054 37.0775 18.2054 37.0673 16.6266 37.052C16.3303 37.0469 16.0339 37.0724 15.7529 36.9447C15.6763 36.8987 15.6252 36.8425 15.5894 36.7659C15.4106 35.1053 15.4566 33.4397 15.5639 31.7791C15.5894 31.7025 15.6354 31.6309 15.6916 31.5747C16.1515 31.2426 16.6879 31.3039 17.2091 31.2937C18.0777 31.2784 18.1083 31.2529 18.1135 30.42C18.1237 29.0865 18.1237 29.0865 16.7595 29.0763C16.4171 29.0763 16.0748 29.1171 15.7478 28.969C15.6763 28.923 15.6201 28.8617 15.5843 28.785C15.4259 27.1143 15.431 25.4435 15.5792 23.7676C15.615 23.6859 15.6661 23.6245 15.7376 23.5735C16.1719 23.3742 16.6368 23.4559 17.0865 23.4508C18.0879 23.4355 18.1032 23.4304 18.1032 22.4034C18.1032 21.3304 18.1032 20.2575 18.1032 19.1896C18.1032 18.9392 18.0521 18.6889 18.185 18.4539C19.9937 18.4743 21.8229 18.4743 23.652 18.4743Z" fill="#FED16D"/>
<path d="M18.1646 18.4743C18.3639 18.8115 18.2923 19.1845 18.2923 19.5422C18.3026 20.6816 18.2668 21.8158 18.3077 22.9552C18.323 23.5019 18.185 23.7421 17.5975 23.6961C16.9639 23.645 16.3252 23.6859 15.6866 23.6859C15.4975 23.5173 15.4822 23.2822 15.4771 23.0523C15.4566 21.637 15.4669 20.2217 15.472 18.8064C15.472 18.6889 15.5026 18.5816 15.5639 18.4794C16.4274 18.4794 17.296 18.4794 18.1646 18.4743Z" fill="#F9B857"/>
<path d="M15.5581 18.4794C15.7625 18.8626 15.6757 19.2765 15.6757 19.6801C15.6859 21.0137 15.6808 22.3523 15.6808 23.6859C14.8173 24.0282 13.9538 24.0129 13.0852 23.7012L13.0494 23.6654C12.7786 23.1698 12.7786 22.6742 13.0443 22.1786C13.0546 21.1312 13.0801 20.0837 13.0597 19.0363C13.0494 18.5867 13.1976 18.4283 13.6421 18.4539C14.2808 18.4845 14.9195 18.4743 15.5581 18.4794Z" fill="#EB9638"/>
<path d="M13.0452 22.1786C13.0452 22.6742 13.0503 23.1698 13.0503 23.6654C12.2328 23.6654 11.4204 23.6705 10.6029 23.6705C10.5978 22.1377 10.6131 20.5998 10.5825 19.067C10.5722 18.5714 10.746 18.413 11.216 18.4539C11.5328 18.4845 11.8649 18.5101 12.1766 18.4488C12.8766 18.3159 12.9634 18.6276 12.9583 19.2458C12.943 20.2217 12.8153 21.2078 13.0452 22.1786Z" fill="#7A3D10"/>
<path d="M60.377 21.0545C59.4981 21.0596 58.6244 21.0648 57.7456 21.0648C57.3982 20.2013 57.4033 19.3327 57.7405 18.4641C58.4201 18.459 59.0996 18.4743 59.7792 18.4436C60.2135 18.4232 60.3923 18.5561 60.3719 19.0108C60.3412 19.6954 60.3718 20.375 60.377 21.0545Z" fill="#EB9638"/>
<path d="M57.7402 18.4692C57.7402 19.3378 57.7453 20.2013 57.7453 21.0699C57.0351 21.0699 56.3249 21.075 55.6147 21.0699C55.441 21.0699 55.1651 21.1107 55.1702 20.8757C55.1855 20.0735 54.8841 19.2356 55.395 18.4794C56.1768 18.4743 56.9585 18.4743 57.7402 18.4692Z" fill="#F9B858"/>
<path d="M62.8207 21.0597C62.0441 21.0545 61.2674 21.0443 60.4908 21.0392C60.4908 20.375 60.5113 19.7159 60.4857 19.0517C60.4704 18.6225 60.5828 18.4539 61.0528 18.4488C62.8258 18.4232 62.8258 18.4028 62.8258 20.1706C62.8309 20.467 62.8258 20.7633 62.8207 21.0597Z" fill="#793D14"/>
<path d="M65.442 78.673C65.2376 78.8978 64.9719 78.8059 64.7318 78.8059C46.1439 78.811 27.5611 78.811 8.97313 78.8059C8.73299 78.8059 8.46219 78.8927 8.25781 78.6781C8.67167 78.392 9.14174 78.5657 9.58625 78.5402C10.2045 78.5095 10.8227 78.5248 11.441 78.5351C11.9212 78.5402 12.3504 78.4124 12.8154 78.2489C13.4643 78.0241 14.1745 77.9833 14.8949 78.3665C15.554 78.719 16.3664 78.6935 17.0459 78.3051C17.8226 77.8606 18.5481 78.0599 19.2839 78.3562C19.9889 78.6424 20.7605 78.7343 21.3736 78.3562C22.1962 77.8504 22.9166 78.0854 23.6728 78.3358C24.4494 78.5913 25.1903 78.7139 25.9465 78.2592C26.5596 77.8913 27.28 78.019 27.8625 78.2285C28.5778 78.484 29.2982 78.4227 30.0033 78.5044C31.669 78.7088 33.3347 78.3307 35.0259 78.4738C36.0171 78.5555 37.0798 78.4533 38.1017 78.4533C39.19 78.4533 40.2885 78.3971 41.3819 78.4891C42.6337 78.5964 43.9008 78.5759 45.1526 78.4993C45.6636 78.4686 46.1132 78.0139 46.7059 78.111C47.1402 78.1825 47.5336 78.2234 47.973 78.4175C48.5964 78.6935 49.4088 78.719 50.073 78.2847C50.7934 77.8146 51.524 78.0395 52.1934 78.3154C52.8014 78.5657 53.9817 78.627 54.5181 78.2592C55.2079 77.7891 55.9283 78.065 56.5823 78.2898C57.4152 78.5759 58.1611 78.6935 58.9735 78.2285C59.5509 77.8964 60.256 78.0241 60.8333 78.2081C61.61 78.4584 62.3917 78.3869 63.1683 78.4891C63.9245 78.5862 64.7011 78.3971 65.442 78.673Z" fill="#7A3E11"/>
<path d="M5.0843 72.8841C4.82883 72.5111 4.96678 72.0921 4.977 71.7038C4.99233 71.2184 4.80328 71.0753 4.34344 71.0958C3.73542 71.1264 3.12741 71.1009 2.51428 71.0958C2.50406 70.2272 2.48873 69.3586 2.47852 68.49C3.16317 68.4849 3.85294 68.5053 4.5376 68.4747C4.97189 68.4542 5.13539 68.5718 5.12007 69.0418C5.0843 70.3243 5.09452 71.6067 5.0843 72.8841Z" fill="#FAB856"/>
<path d="M26.8857 77.2679C27.3598 77.2679 27.7441 77.2496 27.7441 77.227C27.7441 77.2045 27.3598 77.1862 26.8857 77.1862C26.4117 77.1862 26.0273 77.2045 26.0273 77.227C26.0273 77.2496 26.4117 77.2679 26.8857 77.2679Z" fill="#7A3E11"/>
<path d="M59.872 77.2679C60.3461 77.2679 60.7304 77.2496 60.7304 77.227C60.7304 77.2045 60.3461 77.1862 59.872 77.1862C59.398 77.1862 59.0137 77.2045 59.0137 77.227C59.0137 77.2496 59.398 77.2679 59.872 77.2679Z" fill="#7A3E11"/>
<path d="M68.348 7.87234C69.2012 7.94387 70.0698 7.7446 70.918 7.99496C70.9282 8.82779 70.9333 9.66062 70.9435 10.4883C70.2384 10.4934 69.5282 10.4883 68.8231 10.5139C68.4246 10.5292 68.3122 10.3657 68.3275 9.99273C68.348 9.28763 68.3377 8.58254 68.348 7.87234Z" fill="#EB9737"/>
<path d="M2.50797 7.87233C3.14664 7.87744 3.78531 7.88766 4.42399 7.87744C4.68967 7.87233 4.9196 7.91321 5.0831 8.13802C5.09331 8.77158 5.09332 9.40514 5.11886 10.0387C5.13419 10.3861 5.01667 10.5343 4.65391 10.5241C3.92838 10.4986 3.20795 10.5037 2.48242 10.4986C2.49264 9.61463 2.49775 8.74603 2.50797 7.87233Z" fill="#EA9738"/>
<path d="M70.9435 68.4951C70.9384 69.9104 70.9281 71.3308 70.923 72.7461C70.4836 72.6184 70.6165 72.2352 70.6114 71.9542C70.6011 71.4841 70.3968 71.3257 69.942 71.3053C69.4107 71.2848 68.8435 71.4637 68.353 71.106C68.3479 70.4009 68.3581 69.6907 68.3275 68.9856C68.3121 68.6024 68.4297 68.4593 68.8282 68.4747C69.5282 68.5053 70.2333 68.49 70.9435 68.4951Z" fill="#FAB758"/>
<path d="M68.3476 71.106C68.9352 71.106 69.5228 71.1469 70.1053 71.0958C70.6928 71.0498 70.8512 71.2848 70.8155 71.8315C70.795 72.1279 70.698 72.4651 70.9228 72.7461C70.9279 73.0731 70.933 73.395 70.9381 73.722C70.233 73.722 69.5279 73.7067 68.8228 73.7322C68.4294 73.7475 68.3068 73.5994 68.317 73.2213C68.3476 72.5162 68.3425 71.8111 68.3476 71.106Z" fill="#EB9638"/>
<path d="M57.747 52.6918C57.747 51.159 57.7317 49.6211 57.7521 48.0883C57.7572 47.6182 57.6244 47.4598 57.1339 47.4496C55.0544 47.4292 55.0646 47.4087 55.1208 45.365C55.131 44.9051 55.2741 44.6854 55.7595 44.711C56.2397 44.7365 56.72 44.6956 57.2003 44.7212C57.6295 44.7467 57.7521 44.5679 57.747 44.1591C57.7317 42.6008 57.7419 41.0475 57.7419 39.4892C58.6105 39.1468 59.4842 39.1468 60.3528 39.4943C60.3886 39.4994 60.4243 39.5096 60.4601 39.5198C60.4754 41.0833 60.5674 42.6468 60.4141 44.2051C60.3988 44.3789 60.4703 44.5577 60.501 44.7314C60.4601 44.7774 60.4192 44.8183 60.3783 44.8642C59.7908 45.0124 59.1981 44.8796 58.6054 44.9051C58.1558 44.9256 57.9105 45.0891 57.9361 45.5642C57.9667 46.0854 57.8492 46.6168 58.0382 47.1277C58.5441 47.5467 58.7689 48.0269 58.3857 48.6605C58.2937 48.8138 58.2988 49.0233 58.3346 49.197C58.5236 50.1831 58.1251 51.1386 58.1813 52.1196C58.1915 52.3239 58.074 52.5079 57.9361 52.6663C57.885 52.7225 57.8185 52.7276 57.747 52.6918Z" fill="#F8B857"/>
<path d="M60.3527 39.4943C59.4841 39.4943 58.6104 39.4892 57.7418 39.4892C57.5579 39.2899 57.5273 39.0447 57.5273 38.7892C57.517 37.517 57.5119 36.2447 57.5273 34.9674C57.5324 34.717 57.5579 34.4667 57.747 34.2674C58.6156 33.92 59.479 33.9251 60.3527 34.2572C60.3527 36.0046 60.3527 37.752 60.3527 39.4943Z" fill="#EC9538"/>
<path d="M57.7354 31.5237C57.0098 31.5492 56.2792 31.4419 55.5537 31.585C55.2215 31.6514 55.1398 31.4623 55.1347 31.2069C55.1296 29.7252 55.1296 28.2434 55.1347 26.7617C55.1347 26.5062 55.2318 26.2559 55.523 26.3274C56.2741 26.5216 57.0047 26.1588 57.7507 26.2968C57.7456 28.0442 57.7405 29.7865 57.7354 31.5237Z" fill="#F9B857"/>
<path d="M59.0847 27.4413C59.0489 26.8946 59.2533 26.6135 59.7796 26.7311C60.3314 26.8537 60.3569 27.1705 60.265 27.7018C60.1423 28.4325 60.127 29.2091 60.2854 29.9448C60.3723 30.3536 60.2905 30.558 59.9584 30.7879C59.4883 31.1149 59.0336 31.3806 58.4511 31.2018C58.2621 31.1456 58.2774 30.9361 58.3132 30.7879C58.5738 29.6843 58.3694 28.5602 58.4409 27.4515C58.4562 27.2267 58.3081 26.8639 58.6504 26.8281C58.9416 26.7924 58.9467 27.1551 59.0847 27.4413Z" fill="#EC9537"/>
<path d="M60.3518 34.2623C59.4832 34.2674 58.6146 34.2725 57.746 34.2725C57.8124 33.4039 57.5978 32.5251 57.8737 31.6667C59.2431 31.6667 60.6124 31.6667 62.0328 31.6667C61.8642 31.8609 61.7007 31.7893 61.5627 31.7893C60.362 31.8149 60.5102 31.6258 60.4846 32.9134C60.4744 33.363 60.597 33.8331 60.3518 34.2623Z" fill="#F9B856"/>
<path d="M57.8788 52.6867C57.8737 52.329 58.1701 51.9816 57.889 51.6137C57.8482 51.5575 57.8533 51.3991 57.8993 51.3531C58.5124 50.7502 58.0525 50.0196 58.1445 49.3605C58.2007 48.962 58.1445 48.5736 58.3898 48.1853C58.7014 47.6846 58.1445 47.5722 57.8788 47.3423C58.773 47.0102 59.6518 46.9795 60.505 47.4598V47.4547C60.3926 48.9926 60.6277 50.5408 60.3824 52.0787C60.3518 52.2677 60.4437 52.4772 60.4795 52.6765L60.4693 52.6816C59.6109 53.0392 58.7423 53.0341 57.8788 52.6867Z" fill="#F9B857"/>
<path d="M13.0595 47.3168C13.0544 45.5847 13.0493 43.8577 13.0391 42.1256C13.9179 41.7373 14.7967 41.7731 15.6755 42.1052C15.8594 42.3045 15.8901 42.5497 15.8901 42.8052C15.9054 44.0774 15.9003 45.3548 15.8901 46.627C15.8901 46.8825 15.8594 47.1277 15.6806 47.3321C15.5529 47.4598 15.4149 47.608 15.2259 47.5927C14.6179 47.5416 14.015 47.5467 13.4069 47.5824C13.2639 47.5927 13.1668 47.4751 13.0902 47.3576L13.0595 47.3168Z" fill="#EB9637"/>
<path d="M15.6813 42.1052C14.8025 42.1103 13.9237 42.1205 13.0449 42.1256C12.9222 42.1103 12.7945 42.1001 12.6719 42.0847C12.9682 41.9519 13.1011 41.7526 13.0806 41.4001C13.0449 40.7614 13.0653 40.1176 13.0653 39.479C13.939 39.1571 14.8178 39.1315 15.6915 39.4892C15.6813 40.3629 15.6813 41.2366 15.6813 42.1052Z" fill="#F9B857"/>
<path d="M15.6755 31.6514C15.6755 33.3937 15.6806 35.136 15.6806 36.8783C14.8069 37.2359 13.9332 37.2104 13.0544 36.8885C13.0544 35.136 13.0544 33.3886 13.0493 31.6361C13.0595 31.5901 13.0544 31.5492 13.0391 31.5083C13.0544 31.4675 13.0595 31.4266 13.0493 31.3857C13.0595 30.839 13.0748 30.2974 13.085 29.7507C13.5142 29.9193 13.3661 30.3025 13.3967 30.6091C13.4223 30.9003 13.412 31.1967 13.3303 31.4419C14.112 31.5339 14.9193 31.258 15.6755 31.6514Z" fill="#FBB757"/>
<path d="M15.6809 55.3027C14.8072 55.2976 13.9335 55.2976 13.0547 55.2925C13.0547 53.5604 13.0547 51.8283 13.0547 50.0911L13.0905 50.0554C13.959 49.7488 14.8225 49.7335 15.686 50.0707C15.8648 50.27 15.8955 50.5203 15.8955 50.7758C15.9057 52.048 15.9057 53.3254 15.8955 54.5976C15.8955 54.8531 15.8648 55.0983 15.6809 55.3027Z" fill="#EC9637"/>
<path d="M13.085 23.7012C13.9485 23.6961 14.812 23.691 15.6805 23.6859C15.6805 25.4282 15.6754 27.1704 15.6754 28.9127C14.8273 29.2704 13.9536 29.1273 13.085 29.0354C12.9777 28.8872 12.8142 28.9127 12.666 28.8923C13.0083 28.7544 13.0748 28.4938 13.0697 28.1412C13.0594 26.6595 13.0799 25.1829 13.085 23.7012Z" fill="#FAB857"/>
<path d="M57.7512 60.5296C57.7512 58.7873 57.7461 57.0399 57.7461 55.2976C58.6607 54.9655 59.5701 54.9502 60.4796 55.3078H60.4847C60.4796 57.0399 60.4745 58.772 60.4694 60.5041C59.565 60.5143 58.6556 60.5245 57.7512 60.5296Z" fill="#F9B757"/>
<path d="M15.6854 50.0707C14.8219 50.0656 13.9533 50.0605 13.0898 50.0554C13.0898 49.1561 13.0898 48.2569 13.0898 47.3576C13.9533 47.3627 14.8219 47.4394 15.6803 47.3321C15.6854 48.2467 15.6854 49.1612 15.6854 50.0707Z" fill="#F9B857"/>
<path d="M13.0605 36.8885C13.9343 36.8834 14.808 36.8834 15.6868 36.8783C16.0291 37.7469 16.0291 38.6206 15.6868 39.4892C14.8131 39.4841 13.9394 39.4841 13.0605 39.479C13.0605 38.6206 13.0605 37.7571 13.0605 36.8885Z" fill="#EB9638"/>
<path d="M60.5114 47.4547C59.6428 47.2963 58.7589 47.327 57.8852 47.3372C57.5991 46.5861 57.8034 45.8095 57.7728 45.0482C57.7677 44.8745 57.9107 44.7365 58.0845 44.7416C58.8509 44.7569 59.6326 44.5781 60.3888 44.8693C60.5778 45.7226 60.3786 46.5963 60.5114 47.4547Z" fill="#EC9638"/>
<path d="M60.4804 55.3078C59.571 55.3027 58.6564 55.2976 57.7469 55.2976C57.3995 54.429 57.3995 53.5604 57.7469 52.6918C57.7929 52.6918 57.8389 52.6867 57.8797 52.6867C58.7432 52.6867 59.6067 52.6816 60.4702 52.6816C60.4753 53.5553 60.4804 54.429 60.4804 55.3078Z" fill="#EC9537"/>
<path d="M13.0859 29.0354C13.9392 28.7697 14.8129 28.9792 15.6764 28.9128C16.0238 29.8273 16.0238 30.7419 15.6764 31.6514C15.518 31.6514 15.3596 31.6565 15.2012 31.6514C14.5932 31.6258 13.8881 31.866 13.4078 31.5441C12.8918 31.2018 13.321 30.4711 13.1932 29.9244C13.1779 29.8631 13.1268 29.8069 13.0962 29.7507C13.091 29.5157 13.091 29.2755 13.0859 29.0354Z" fill="#EC9538"/>
<path d="M55.2575 63.115C55.048 62.4763 55.145 61.8172 55.1348 61.1683C55.1297 60.6471 55.518 60.5449 55.9166 60.5296C56.5246 60.5092 57.1377 60.5296 57.7457 60.5296C57.7457 61.2092 57.7202 61.8887 57.7508 62.5682C57.7713 63.0281 57.5873 63.1609 57.1581 63.1405C56.5246 63.1098 55.891 63.1201 55.2575 63.115Z" fill="#F7B857"/>
<path d="M15.6867 47.3321C15.6867 45.5898 15.6816 43.8475 15.6816 42.1052C16.3663 42.1052 17.051 42.1205 17.7356 42.1001C18.1341 42.0847 18.3079 42.2023 18.3028 42.6365C18.2823 44.0723 18.2874 45.508 18.3028 46.9489C18.3079 47.327 18.1852 47.4854 17.7918 47.4751C17.0867 47.4445 16.3816 47.5058 15.6867 47.3321Z" fill="#F9B857"/>
<path d="M15.6816 55.2976C15.6816 53.5553 15.6867 51.813 15.6867 50.0707C16.3918 50.0707 17.102 50.0809 17.8071 50.0707C18.1495 50.0656 18.3028 50.1831 18.2976 50.5459C18.2874 51.9356 18.2823 53.3305 18.2976 54.7202C18.3028 55.1801 18.0882 55.318 17.6641 55.3027C17.005 55.2874 16.3459 55.2976 15.6816 55.2976Z" fill="#F9B856"/>
<path d="M57.747 34.2725C57.747 36.0097 57.747 37.752 57.747 39.4892C57.0827 39.4892 56.4185 39.479 55.7594 39.4943C55.3353 39.5045 55.1258 39.3563 55.131 38.9016C55.1463 37.5527 55.1463 36.2039 55.131 34.855C55.1258 34.4002 55.3353 34.2521 55.7594 34.2623C56.4185 34.2827 57.0827 34.2725 57.747 34.2725Z" fill="#F8B957"/>
<path d="M15.6758 31.6514C15.6758 30.7368 15.6758 29.8222 15.6758 28.9128C16.34 28.9128 17.0042 28.923 17.6633 28.9077C18.0874 28.8974 18.3122 29.0405 18.2918 29.4952C18.2662 30.1135 18.4808 30.8594 18.1998 31.3091C17.8779 31.8302 17.0655 31.4317 16.478 31.5237C16.2123 31.5645 15.9466 31.6105 15.6758 31.6514Z" fill="#F9B857"/>
<path d="M15.6816 39.4943C15.6816 38.6257 15.6816 37.752 15.6816 36.8834C16.3408 36.8834 17.005 36.8987 17.6641 36.8783C18.1444 36.8629 18.3181 37.0673 18.2976 37.5323C18.2772 38.0074 18.2721 38.4928 18.2976 38.968C18.3232 39.4023 18.129 39.5147 17.7305 39.5045C17.051 39.4789 16.3663 39.4943 15.6816 39.4943Z" fill="#F9B857"/>
<path d="M57.7465 52.6918C57.7465 53.5604 57.7465 54.429 57.7465 55.2976C57.0618 55.2976 56.3772 55.2771 55.6925 55.3078C55.2225 55.3282 55.0947 55.1341 55.1254 54.7049C55.1509 54.2502 55.1509 53.7903 55.1254 53.3356C55.105 52.8706 55.2787 52.6663 55.759 52.6816C56.4232 52.7071 57.0823 52.6918 57.7465 52.6918Z" fill="#F7B957"/>
<rect x="27" y="27" width="20" height="2" fill="#7A3D12"/>
<rect x="27" y="32" width="20" height="2" fill="#7A3D12"/>
<rect x="27" y="37" width="20" height="2" fill="#7A3D12"/>
<rect x="27" y="42" width="20" height="2" fill="#7A3D12"/>
<rect x="27" y="47" width="20" height="2" fill="#7A3D12"/>
<rect x="27" y="52" width="20" height="2" fill="#7A3D12"/>
</svg>
