<svg width="74" height="79" viewBox="0 0 74 79" fill="none" xmlns="http://www.w3.org/2000/svg">
<path d="M63.0142 60.652C62.9989 61.3571 62.9887 62.0622 62.9631 62.7673C62.9529 63.0943 63.096 63.2067 63.4179 63.2016C64.0105 63.1914 64.6032 63.2373 65.1959 63.2118C65.5944 63.1965 65.7069 63.3446 65.6966 63.7278C65.6762 64.4125 65.7017 65.0972 65.7069 65.7818C65.5536 66.0168 65.3083 66.0731 65.0529 66.0935C64.7769 66.1139 64.5061 66.1088 64.2302 66.1088C45.8773 66.1088 27.5245 66.1088 9.17156 66.1037C8.74238 66.1037 8.29786 66.1803 7.89422 65.9555C7.65919 65.092 7.83802 64.2183 7.79203 63.3498C8.49202 63.079 9.21755 63.2373 9.93286 63.2067C10.3416 63.1863 10.5 63.079 10.4745 62.66C10.4387 61.9549 10.4489 61.2498 10.4438 60.5498C10.4745 60.5192 10.5 60.4885 10.5307 60.4527C11.3635 60.2381 12.2014 60.2535 13.0394 60.4476C13.1109 60.4936 13.162 60.56 13.1926 60.6367C13.3408 61.1425 13.2795 61.6688 13.2693 62.1848C13.2642 62.6702 13.4072 62.9308 13.9386 62.9819C14.4802 63.033 15.0167 63.0738 15.5583 63.0841C15.6451 63.0841 15.7269 63.0841 15.8138 63.0841C29.5733 63.0892 43.338 63.0841 57.0975 63.0841C57.9661 63.0841 58.8194 62.8593 59.6931 62.9052C60.0968 62.9257 60.2449 62.6855 60.2705 62.3023C60.3062 61.7352 60.1734 61.1527 60.4084 60.606C60.4851 60.4885 60.5975 60.4221 60.7303 60.3812C61.4558 60.3505 62.1865 60.2535 62.912 60.4476C62.9836 60.4885 63.0193 60.56 63.0142 60.652Z" fill="#7C3E12"/>
<path d="M65.6864 13.1963C65.6864 14.7087 65.6915 16.216 65.6762 17.7283C65.6762 17.9276 65.8448 18.2648 65.4207 18.3006C64.8076 18.1984 64.1894 18.2393 63.5763 18.2648C63.0858 18.2853 62.9172 18.0604 62.8967 17.6261C62.8814 17.3043 62.8814 16.9875 62.8763 16.6656C62.8712 16.2671 62.6821 16.0831 62.2887 16.078C62.0843 16.078 61.8748 16.0678 61.6705 16.0678C45.0956 16.0678 28.5259 16.0678 11.9511 16.0678C11.8131 16.0678 11.6752 16.0678 11.5372 16.0678C10.7657 16.0882 10.7146 16.1393 10.6789 16.8853C10.6737 17.0437 10.6737 17.2072 10.6584 17.3656C10.592 18.1473 10.4796 18.2597 9.68764 18.2444C9.0694 18.2342 8.45628 18.3006 7.83804 18.1984C7.80739 18.1831 7.79206 18.1524 7.79206 18.1218C7.74607 16.5889 7.79717 15.051 7.7614 13.5182C7.75118 13.1095 7.93001 12.997 8.28767 13.0022C8.65554 13.0073 9.01831 13.0073 9.38618 13.0073C27.8924 13.0022 46.4036 13.0124 64.9098 13.0022C65.1908 13.0073 65.477 12.946 65.6864 13.1963Z" fill="#7A3D14"/>
<path d="M65.6865 13.1963C46.7716 13.1963 27.8515 13.2014 8.9366 13.2014C7.83298 13.2014 7.83809 13.2014 7.83298 14.2846C7.82787 15.567 7.80743 16.8443 7.79721 18.1268C7.6286 16.4611 7.81254 14.7904 7.72057 13.1247C7.54174 12.9255 7.49576 12.6853 7.49576 12.4298C7.48554 10.2481 7.48043 8.06644 7.49576 5.88473C7.49576 5.72634 7.52131 5.56795 7.58262 5.41978C7.62349 5.33292 7.6848 5.27161 7.77166 5.23584C7.86363 5.2665 7.92495 5.32781 7.96582 5.41467C8.18552 7.08033 8.0118 8.74598 8.05268 10.4014C8.34391 10.2686 8.70668 10.2737 9.06434 10.2737C27.5143 10.2737 45.9592 10.2737 64.4091 10.2737C64.8639 10.2737 65.3288 10.2533 65.7478 10.4934C66.0135 11.3824 66.0748 12.2663 65.7018 13.1452L65.7171 13.186L65.6865 13.1963Z" fill="#EC9638"/>
<path d="M70.9081 74.0133C70.9183 74.606 70.9081 75.1987 70.9489 75.7914C70.9745 76.2104 70.8365 76.3432 70.4125 76.333C69.0431 76.3074 67.6738 76.3432 66.3045 76.3126C65.8293 76.3023 65.6863 76.4352 65.6863 76.9155C65.6914 77.5848 65.8447 78.2694 65.5994 78.9286C65.5177 78.8519 65.4564 78.7548 65.4308 78.6424C65.3848 78.387 65.4053 78.1264 65.395 77.8658C65.3899 77.7585 65.3899 77.6512 65.395 77.5439C65.3082 77.2169 65.6403 76.752 65.0834 76.5731C64.8075 76.5425 64.5316 76.5527 64.2556 76.5527C45.9641 76.5527 27.6776 76.5527 9.38603 76.5527C9.01815 76.5527 8.65539 76.5782 8.29262 76.5067C7.87876 76.4096 7.71015 76.1082 7.64373 75.7199C7.53643 75.1323 7.49556 74.5447 7.50067 73.9469C7.51089 72.4141 7.50067 70.8864 7.50578 69.3536C7.50578 69.0368 7.47512 68.7098 7.64884 68.4186C7.71015 68.3368 7.78679 68.3164 7.87876 68.347C8.19554 68.8682 8.00138 69.4455 8.04737 69.9922C8.07292 70.2579 8.04737 70.5338 8.0627 70.7995C8.06781 71.0652 8.03715 71.3258 8.07803 71.5915C8.09335 72.0053 8.08825 72.4141 8.08825 72.828C8.08825 73.2929 8.30795 73.4922 8.76268 73.4871C9.05903 73.4871 9.35537 73.4922 9.65682 73.4922C27.882 73.4922 46.1071 73.4922 64.3323 73.4973C64.787 73.4973 65.252 73.4258 65.6863 73.6301C66.049 73.9827 65.9315 74.4425 65.9366 74.8615C65.9571 75.9804 65.9469 75.9804 67.0914 75.9804C67.914 75.9804 68.7366 75.9804 69.5592 75.9804C70.5862 75.9753 70.576 75.9753 70.6117 74.9637C70.6117 74.6316 70.4635 74.2177 70.9081 74.0133Z" fill="#A25F23"/>
<path d="M7.84312 70.8351C7.83801 70.0176 7.8329 69.2001 7.82779 68.3826C7.57232 67.5396 7.52634 66.7017 7.85334 65.8688C8.24165 65.8637 8.62996 65.8484 9.01827 65.8484C27.642 65.8484 46.2605 65.8484 64.8842 65.8433C65.155 65.8433 65.4258 65.7973 65.7017 65.7769L65.7069 65.8228C66.1003 66.6557 65.9572 67.5089 65.8244 68.3622C65.6915 68.6585 65.4361 68.7199 65.1448 68.7199C64.7105 68.7147 64.2762 68.7147 63.8368 68.7147C45.6014 68.7147 27.3661 68.7147 9.13068 68.7147C8.22632 68.7147 8.24676 68.7199 8.20077 69.6344C8.17523 70.0534 8.41026 70.5746 7.84312 70.8351Z" fill="#FDD16C"/>
<path d="M65.6914 2.55882C65.7118 2.57415 65.7169 2.5997 65.7016 2.62014C66.1002 3.4734 65.9571 4.342 65.814 5.22081C65.6454 5.50182 65.3695 5.48139 65.0987 5.48139C64.3834 5.47117 63.663 5.47628 62.9477 5.47117C62.3039 5.48139 61.6601 5.4865 61.0214 5.47117C59.9331 5.46095 58.8448 5.51204 57.7565 5.46606C56.9288 5.4865 56.1011 5.4865 55.2734 5.47117C54.3128 5.48139 53.3574 5.49161 52.3968 5.47117C51.6151 5.49161 50.8282 5.4865 50.0465 5.47117C49.0859 5.48139 48.1305 5.4865 47.1699 5.47117C46.2962 5.4865 45.4276 5.49161 44.5539 5.46606C43.6853 5.4865 42.8116 5.49161 41.943 5.46606C41.1153 5.4865 40.2927 5.4865 39.465 5.47117C38.5504 5.47628 37.6358 5.49672 36.7212 5.46606C35.8935 5.4865 35.0658 5.4865 34.2381 5.47117C33.2775 5.48139 32.322 5.49161 31.3615 5.47117C30.5798 5.49161 29.7929 5.4865 29.0112 5.47117C28.0097 5.48139 27.0032 5.49161 26.0017 5.47117C25.22 5.49161 24.4332 5.49161 23.6514 5.46606C22.558 5.50694 21.4697 5.46606 20.3763 5.47117C19.6814 5.4865 18.9866 5.4865 18.2917 5.46606C17.4231 5.4865 16.5545 5.49161 15.6859 5.46606C14.8173 5.4865 13.9436 5.49161 13.075 5.46606C12.2013 5.4865 11.3276 5.49161 10.459 5.46606C9.82545 5.49672 9.18678 5.48139 8.55322 5.47628C8.30286 5.47628 8.0525 5.45584 7.85323 5.2719L7.84302 5.25658C7.53645 4.39309 7.58244 3.52961 7.81236 2.6559C7.90433 2.5435 8.03206 2.49751 8.17002 2.47196C8.50724 2.40043 8.85467 2.42598 9.197 2.42598C27.6725 2.42598 46.1429 2.42598 64.6184 2.42598C64.9761 2.43109 65.3491 2.36977 65.6914 2.55882Z" fill="#FAF6A4"/>
<path d="M65.6915 2.55877C65.482 2.69162 65.247 2.64563 65.0222 2.64563C46.2146 2.64563 27.4069 2.64563 8.60442 2.64563C8.44603 2.64563 8.28253 2.6303 8.12414 2.62519C7.85334 2.45148 7.85334 2.18068 7.84823 1.90477C7.83801 1.40916 7.89421 0.908443 7.80225 0.407724C7.81246 0.320865 7.85334 0.249333 7.92487 0.19313C8.18034 0.050067 8.46136 0.116489 8.73215 0.116489C12.6766 0.11138 16.6261 0.116489 20.5706 0.111379C20.8158 0.111379 21.0713 0.167582 21.3114 0.0551758C21.3625 0.0551758 21.4085 0.0602855 21.4596 0.0602855C21.6793 0.162473 21.9092 0.116489 22.1341 0.116489C32.6287 0.116489 43.1285 0.121598 53.6232 0.116489C53.848 0.116489 54.083 0.167582 54.2976 0.0551758C54.3487 0.0551758 54.3947 0.0602855 54.4458 0.0602855C54.6195 0.152254 54.8034 0.116489 54.9823 0.116489C58.4515 0.126708 61.9259 0.106271 65.3952 0.126708C65.4667 0.126708 65.528 0.10627 65.5944 0.0858324C65.8141 0.898224 65.62 1.73616 65.6915 2.55877Z" fill="#7A3D12"/>
<path d="M7.84302 18.2033C8.52767 18.1982 9.21744 18.1777 9.9021 18.1879C10.2444 18.1931 10.4079 18.0755 10.413 17.723C10.413 17.2427 10.4539 16.7624 10.4488 16.2822C10.4488 15.9603 10.5816 15.8172 10.8984 15.8427C11.0108 15.853 11.1283 15.8427 11.2408 15.8427C28.2141 15.8427 45.1926 15.8427 62.1659 15.8427C63.0958 15.8427 63.0958 15.8427 63.0958 16.7624C63.0958 18.1777 63.0958 18.1726 64.4907 18.1879C64.7973 18.1931 65.1345 18.0704 65.4155 18.2952C64.7768 18.3055 64.1382 18.3361 63.5046 18.3259C63.1469 18.3208 62.9528 18.3923 62.9732 18.8113C63.009 19.5624 63.009 20.3134 63.0243 21.0645C62.9528 21.1105 62.8761 21.1105 62.8046 21.0696C62.498 20.5587 62.6615 19.9967 62.636 19.4551C62.6002 18.7244 62.5594 18.6631 61.8543 18.6478C61.6959 18.6427 61.5324 18.658 61.374 18.6478C60.863 18.612 60.6893 18.8675 60.6893 19.3478C60.6893 19.874 60.7609 20.4003 60.6127 20.9215C60.5769 20.9981 60.5258 21.0543 60.4543 21.0952C60.3674 21.0952 60.301 21.0543 60.2601 20.9777C60.0813 20.5383 60.1631 20.0784 60.1528 19.6237C60.1375 18.6733 60.1273 18.658 59.2076 18.6478C58.7069 18.6427 58.2062 18.658 57.7003 18.6427C56.9288 18.6682 56.1522 18.6631 55.3807 18.6478C53.5975 18.6682 51.8143 18.6733 50.0312 18.6478C41.616 18.6836 33.1958 18.6529 24.7806 18.6631C24.4127 18.6631 24.05 18.6784 23.6821 18.6427C21.8529 18.6682 20.0187 18.6682 18.1895 18.6427C17.3209 18.6682 16.4472 18.658 15.5786 18.6427C15.0319 18.6682 14.4852 18.658 13.9385 18.6478C13.4787 18.6376 13.2743 18.8266 13.2845 19.2967C13.2947 19.9558 13.2947 20.62 13.2845 21.2791C13.2794 21.5704 13.3101 21.8769 13.1159 22.1324C12.6305 22.1273 12.7634 21.7339 12.748 21.4886C12.702 20.7784 12.702 20.0682 12.7429 19.3631C12.7787 18.7755 12.5436 18.566 11.9867 18.6529C11.8743 18.6682 11.7568 18.6529 11.6444 18.658C10.8933 18.6784 10.8269 18.7347 10.8167 19.4908C10.8065 20.5689 10.8167 21.6419 10.8116 22.72C10.8116 23.0163 10.8371 23.3178 10.6992 23.5988C10.6532 23.6805 10.5816 23.7112 10.4948 23.6959C10.4846 22.2601 10.4692 20.8295 10.4641 19.3938C10.459 18.331 10.459 18.3566 9.36561 18.3157C8.84956 18.3106 8.3233 18.5098 7.84302 18.2033Z" fill="#A16024"/>
<path d="M65.5638 77.8506C65.5638 78.1265 65.5587 78.3973 65.5587 78.6732C65.4923 78.7192 65.4156 78.7448 65.3339 78.7397C64.1025 78.7243 62.8712 78.6784 61.6398 78.5966C61.042 78.5557 60.4953 78.2594 59.8873 78.3054C59.6114 78.3258 59.3406 78.3003 59.0851 78.4331C58.2319 78.8776 57.3837 78.7908 56.4998 78.4842C55.8304 78.2492 55.156 78.1572 54.4458 78.5302C53.756 78.8878 52.9743 78.8316 52.2488 78.5608C51.467 78.2645 50.7466 78.1879 49.9393 78.5557C49.2496 78.8674 48.4576 78.8725 47.7372 78.5455C47.0679 78.2389 46.4036 78.2492 45.7445 78.5097C45.3511 78.663 44.9577 78.7346 44.5438 78.7346C42.541 78.7499 40.5381 78.6068 38.5352 78.6375C37.4724 78.6528 36.3995 78.5149 35.3367 78.7141C34.8769 78.801 34.4324 78.6068 33.9725 78.6017C32.6952 78.5762 31.4229 78.8419 30.1456 78.6988C29.3792 78.6119 28.5975 78.6579 27.8362 78.4535C27.1515 78.2696 26.4771 78.2236 25.7771 78.5813C25.1537 78.8981 24.4282 78.8214 23.7691 78.5864C22.9516 78.2952 22.1903 78.1674 21.3319 78.5915C20.7035 78.9032 19.9422 78.8419 19.2575 78.5711C18.4809 78.2645 17.7554 78.1981 16.9481 78.5608C16.2532 78.8725 15.4663 78.8878 14.751 78.5455C14.1481 78.2594 13.5197 78.2236 12.9525 78.4484C12.2832 78.7141 11.619 78.7346 10.9343 78.7397C10.0198 78.7448 9.10517 78.6988 8.19059 78.7805C7.82783 78.7141 7.93512 78.4229 7.91469 78.193C7.8687 77.6207 8.00666 77.0434 7.82783 76.4813C7.63367 76.2463 7.36287 76.3383 7.12273 76.3383C5.91692 76.328 4.706 76.3331 3.50018 76.3331C2.48852 76.3331 2.48852 76.3331 2.5294 75.2959C2.59071 74.9127 2.57028 74.5244 2.54984 74.1463C2.52429 73.7274 2.72867 73.5741 3.10165 73.5485C3.46442 73.523 3.82718 73.523 4.18995 73.5332C4.66001 73.5485 4.9257 73.3748 4.90015 72.869C4.93592 71.7347 4.86439 70.5953 4.89504 69.461C4.91037 68.8939 4.66512 68.6997 4.12353 68.71C3.60748 68.7151 3.0761 68.807 2.57539 68.5924C2.54473 68.5618 2.51918 68.5362 2.48853 68.5056C2.49874 67.826 2.53962 67.1414 2.51407 66.4618C2.49363 66.002 2.66735 65.8896 3.10165 65.8947C4.64468 65.91 6.18772 65.8794 7.73075 65.8691C7.8125 66.6918 7.80228 67.5195 7.73586 68.3421C7.72053 70.8406 7.59791 73.3442 7.83805 75.8426C7.86359 76.1339 7.95045 76.3229 8.26212 76.3536C8.52781 76.6806 8.90591 76.6704 9.26867 76.6755C10.1168 76.6908 10.965 76.6755 11.808 76.6806C12.038 76.6806 12.2679 76.6755 12.4927 76.7317C12.6766 76.7777 12.8452 76.8492 12.8708 77.074C12.8963 77.2886 12.7584 77.4163 12.6 77.5134C12.3343 77.6769 12.0277 77.6514 11.7314 77.6565C10.7555 77.6769 9.7745 77.6258 8.79861 77.7331C9.86647 77.7791 10.9394 77.8098 12.0073 77.7536C12.1861 77.7433 12.3701 77.7127 12.5285 77.6054C13.3817 77.0229 14.2197 77.12 15.0934 77.5952C15.6605 77.9017 16.289 77.9017 16.8663 77.5747C17.7145 77.0893 18.5524 77.0893 19.4006 77.5492C20.0341 77.8966 20.6677 77.8711 21.2962 77.5441C22.1239 77.1149 22.9363 77.0536 23.7589 77.5747C24.2596 77.8915 24.8165 77.7638 25.3581 77.7127C24.9698 77.6411 24.5713 77.682 24.1829 77.6412C23.8304 77.6054 23.437 77.5236 23.4574 77.0842C23.4779 76.6908 23.8713 76.7061 24.1574 76.701C24.888 76.6857 25.6238 76.6295 26.3493 76.7674C27.0442 76.9003 27.7186 76.6908 28.4033 76.6857C33.901 76.6806 39.3936 76.6806 44.8913 76.6857C44.9832 76.6857 44.8708 76.6755 44.9577 76.6857C45.3 76.7368 45.8263 76.5988 45.8365 77.0944C45.8467 77.636 45.3204 77.6463 44.9066 77.6463C39.7768 77.6565 34.647 77.6514 29.5223 77.6565C29.2515 77.6565 28.9755 77.6156 28.6741 77.7076C28.9551 77.8251 29.2208 77.7791 29.4763 77.7791C34.3762 77.7842 39.2761 77.7842 44.176 77.7791C44.7686 77.7791 45.3102 77.7025 45.8723 77.3959C46.4905 77.0587 47.2518 77.1047 47.9109 77.493C48.6058 77.9017 49.2751 77.8864 49.9802 77.5032C50.7517 77.0842 51.5641 77.0791 52.3305 77.5185C52.9947 77.8915 53.6334 77.8711 54.2823 77.539C55.11 77.1149 55.9224 77.0536 56.745 77.5747C57.2457 77.8915 57.8078 77.7638 58.3494 77.6974C58.0632 77.6514 57.7771 77.6565 57.491 77.6514C57.2611 77.6463 57.0312 77.6565 56.8166 77.5645C56.5969 77.4674 56.4027 77.3346 56.4385 77.0587C56.4742 76.8032 56.6888 76.7521 56.8932 76.7163C57.256 76.655 57.629 76.6499 57.9917 76.6857C60.0252 76.8799 62.0588 76.5988 64.0923 76.6806C64.3222 76.6908 64.5522 76.6806 64.777 76.6653C65.0375 76.6448 65.2675 76.5682 65.4361 76.3536C65.7069 76.7368 65.5229 77.166 65.5587 77.5747C64.6288 77.7382 63.6938 77.6003 62.7639 77.6412C62.3858 77.6565 62.0077 77.6207 61.6347 77.7076C62.9427 77.8711 64.2609 77.6718 65.5638 77.8506Z" fill="#7A3E12"/>
<path d="M65.6864 5.26167C65.6915 4.38285 65.6966 3.49893 65.7017 2.62012C67.2499 2.63545 68.798 2.67121 70.3461 2.66099C70.7753 2.66099 70.9644 2.74785 70.9286 3.21792C70.8826 3.89746 70.898 4.58212 70.8928 5.26678C70.5812 5.53757 70.2031 5.46093 69.8454 5.46093C68.4199 5.47626 68.5374 5.36385 68.5272 6.81492C68.5272 7.15725 68.5425 7.49958 68.517 7.8419C68.5323 8.23022 68.5221 8.61342 68.5221 9.00173C68.5221 10.2791 68.5221 10.2791 69.7688 10.2842C70.106 10.2842 70.4534 10.2484 70.7804 10.3608C70.8571 10.3915 70.9133 10.4477 70.9542 10.5192C70.9388 11.1119 70.8826 11.7097 70.9235 12.3024C70.9644 12.9053 70.8162 13.1301 70.152 13.1097C68.6652 13.0637 67.1783 13.1199 65.6915 13.1301C65.6864 12.2462 65.6762 11.3674 65.6711 10.4835C65.3236 9.89076 65.5433 9.24187 65.4871 8.62364C65.4616 8.37328 65.4973 8.12803 65.4973 7.87767C65.5484 7.00396 65.3389 6.11493 65.6864 5.26167Z" fill="#7A3D13"/>
<path d="M7.75621 5.26661C7.74599 7.88772 7.73066 10.5088 7.72044 13.1248C6.19274 13.1146 4.65992 13.0891 3.13222 13.1044C2.66727 13.1095 2.48333 12.992 2.50377 12.4964C2.53442 11.8373 2.47822 11.1731 2.46289 10.5139C2.48844 10.4833 2.51398 10.4526 2.53953 10.422C2.94828 10.2074 3.38769 10.2942 3.81177 10.284C4.88985 10.2687 4.88474 10.2789 4.88985 9.17529C4.88985 8.83296 4.87963 8.49063 4.88985 8.1483C4.90006 7.46876 4.87452 6.79432 4.88985 6.11477C4.90006 5.65492 4.69569 5.45566 4.24095 5.46588C3.90374 5.4761 3.56141 5.4761 3.22419 5.45566C2.9585 5.44033 2.67238 5.45055 2.51398 5.15932C2.51398 4.54619 2.54464 3.92796 2.50377 3.31483C2.468 2.809 2.62128 2.6455 3.14244 2.65572C4.67014 2.69149 6.19785 2.66083 7.72555 2.66083C7.82263 3.52942 7.77154 4.39802 7.75621 5.26661Z" fill="#7A3D13"/>
<path d="M65.6914 68.3624C65.6965 67.5193 65.7016 66.6763 65.7067 65.8281C67.1374 65.9661 68.568 65.8588 69.9986 65.8843C71.0971 65.9048 70.903 65.7924 70.9234 66.7734C70.9336 67.3405 70.9387 67.9128 70.949 68.4799C70.9234 68.5106 70.8928 68.5361 70.8672 68.5668C70.3716 68.7916 69.8402 68.674 69.3293 68.6945C68.6089 68.7251 68.5527 68.766 68.5373 69.466C68.5271 70.0076 68.5475 70.5492 68.5271 71.0959C68.5475 71.6835 68.5424 72.2711 68.5322 72.8586C68.5271 73.3185 68.7213 73.5024 69.1811 73.5126C69.7431 73.528 70.3154 73.4104 70.857 73.6302C70.8876 73.6557 70.9132 73.6864 70.9439 73.717C70.9336 73.8141 70.9234 73.9112 70.9081 74.0082C70.6833 74.5345 70.8314 75.0863 70.8161 75.6279C70.8059 76.0213 70.7241 76.2053 70.2796 76.2002C68.9308 76.1797 67.5819 76.1746 66.233 76.2002C65.7834 76.2104 65.6965 76.006 65.7067 75.6228C65.7221 74.9841 65.7067 74.3455 65.7016 73.7017C65.344 73.1652 65.5483 72.5623 65.5024 71.9849C65.4717 71.6477 65.5126 71.3105 65.5075 70.9682C65.5279 70.1047 65.3746 69.2156 65.6914 68.3624Z" fill="#7B3D13"/>
<path d="M60.5157 26.4346C60.5157 27.901 60.531 29.3623 60.5003 30.8287C60.4901 31.3345 60.6383 31.5184 61.1595 31.498C62.2529 31.452 63.3463 31.5031 64.4397 31.6206C64.3784 31.7279 64.2762 31.7688 64.1689 31.8097C63.9032 31.9068 63.4944 31.7484 63.382 32.1009C63.2236 32.6067 63.2594 33.1432 63.3667 33.6593C63.4178 33.9096 63.6682 33.9045 63.8725 33.9199C64.2149 33.9403 64.5623 33.9096 64.8995 33.9403C65.1345 33.9607 65.4207 33.8994 65.5484 34.2009C64.7002 34.3439 63.8521 34.2366 63.0039 34.2622C62.6974 34.5279 62.3193 34.4768 61.9565 34.4819C60.6996 34.4972 60.72 34.4921 60.6945 35.7746C60.6741 36.9599 60.7967 38.1504 60.6179 39.3358C60.5821 39.4175 60.5259 39.484 60.4492 39.53C60.3522 39.5248 60.2857 39.484 60.2398 39.3971C60.0354 38.7738 60.1376 38.13 60.1376 37.5015C60.1325 36.4337 60.0814 35.3607 60.1733 34.2928C60.296 33.7053 60.2602 33.1075 60.2806 32.5148C60.3062 31.8097 60.3828 31.7381 61.0777 31.733C61.3383 31.733 61.5989 31.7279 61.8594 31.733C61.2157 31.7381 60.577 31.7688 59.9383 31.8454C59.269 31.9272 58.569 31.9476 57.8894 31.7892C57.7617 31.7382 57.6697 31.6462 57.6135 31.5184C57.4654 29.817 57.4603 28.1156 57.6135 26.4142C57.6493 26.3324 57.7055 26.266 57.7821 26.2149C58.5588 25.985 59.3456 26.0923 60.1274 26.1332C60.3113 26.1332 60.5003 26.1945 60.5157 26.4346Z" fill="#EB9637"/>
<path d="M60.5156 26.4346C59.6062 26.1332 58.6712 26.3682 57.7515 26.3018C57.5726 26.1536 57.5471 25.9441 57.5471 25.7397C57.542 24.396 57.4858 23.0471 57.588 21.7033C57.6084 21.4581 57.6033 21.1975 57.8077 21.0034C58.666 20.7836 59.5244 20.7223 60.3777 21.0493C60.4186 21.0647 60.4594 21.08 60.4952 21.1004C60.7354 21.3406 60.6945 21.6471 60.6945 21.9384C60.6945 23.0113 60.7149 24.0843 60.6791 25.1573C60.6587 25.8573 60.7302 25.9288 61.4507 25.9441C61.839 25.9543 62.2273 25.9288 62.6156 25.9492C62.7893 25.9594 63.0806 25.9032 62.963 26.2609C62.1558 26.4346 61.3178 26.1485 60.5156 26.4346Z" fill="#F9B856"/>
<path d="M65.385 52.6562C64.5879 52.6664 63.796 52.6715 62.9989 52.6818C62.1763 53.0548 61.3435 52.973 60.5107 52.7482C60.2858 52.554 60.199 52.2935 60.2245 52.0175C60.3318 50.7249 60.2501 49.4322 60.2858 48.1395C60.291 47.9147 60.3063 47.6848 60.4442 47.4906C61.2617 47.1125 62.0997 47.2198 62.9427 47.3833C62.9887 47.4191 63.0347 47.4549 63.0858 47.4957C63.3515 47.7461 63.3106 48.0782 63.3157 48.395C63.3259 49.468 63.331 50.5409 63.3157 51.6139C63.3106 52.1351 63.515 52.3752 64.0412 52.3445C64.312 52.3292 64.5931 52.319 64.8639 52.3599C65.0631 52.3854 65.3441 52.3241 65.385 52.6562Z" fill="#EA9637"/>
<path d="M10.4745 47.3679C10.4643 45.6154 10.4592 43.8629 10.449 42.1104C10.4796 42.0797 10.5103 42.049 10.5358 42.0184C11.2358 41.7834 11.9562 41.9264 12.6664 41.9111C12.8402 41.9366 13.0139 41.9724 13.1365 42.1206C13.2132 42.2381 13.2591 42.3709 13.2591 42.5089C13.2591 44.0775 13.3869 45.6512 13.1876 47.2197C13.1007 47.4241 12.9321 47.5518 12.7226 47.5672C11.9716 47.6183 11.1847 47.9248 10.4745 47.3679Z" fill="#7B3D11"/>
<path d="M10.4388 60.5451C9.68264 60.5451 8.93156 60.5349 8.17538 60.5502C7.87392 60.5553 7.78196 60.4531 7.78706 60.1568C7.79728 58.67 7.80239 57.1831 7.78706 55.6963C7.78196 55.3438 7.93524 55.2825 8.2418 55.2876C8.97244 55.2978 9.70308 55.2825 10.4388 55.2773C10.4695 55.308 10.5053 55.3387 10.541 55.3693C10.6892 55.6146 10.679 55.8905 10.679 56.1613C10.6841 57.3364 10.6841 58.5167 10.679 59.6918C10.679 59.9882 10.679 60.2845 10.4593 60.5247L10.4388 60.5451Z" fill="#7A3D12"/>
<path d="M62.9785 39.4995C63.0245 39.474 63.0654 39.4842 63.096 39.5302C63.3259 39.7397 63.3208 40.0207 63.3208 40.2966C63.331 41.5075 63.331 42.7236 63.3208 43.9345C63.3208 44.2104 63.3106 44.4914 63.0807 44.6958C63.0347 44.7366 62.9887 44.7775 62.9478 44.8184C62.1099 44.9921 61.2771 45.0279 60.4494 44.7571C60.2961 44.5987 60.2348 44.4096 60.245 44.1951C60.3267 42.8308 60.2552 41.4666 60.291 40.1024C60.2961 39.8981 60.3114 39.6937 60.4647 39.5251L60.4953 39.4944C61.3231 39.1572 62.1508 39.1521 62.9785 39.4995Z" fill="#EA9637"/>
<path d="M10.5 36.8681C10.4132 36.8221 10.3314 36.771 10.2446 36.725C10.2446 35.1922 10.2343 33.6543 10.265 32.1215C10.2701 31.9375 10.3467 31.7689 10.4591 31.6208C11.3431 31.3755 12.2219 31.3704 13.1058 31.6259C13.1416 31.7127 13.1314 31.5952 13.1416 31.6821C13.3766 33.4142 13.4226 35.1411 13.116 36.8732C12.2423 37.2206 11.3686 37.2411 10.5 36.8681Z" fill="#EC9637"/>
<path d="M10.4336 55.2821C10.454 53.5398 10.4694 51.7975 10.4898 50.0552C11.3533 49.7486 12.2168 49.7537 13.0854 50.0552C13.1824 50.1573 13.2438 50.2851 13.2489 50.423C13.2846 52.0069 13.3766 53.596 13.1978 55.1799C13.162 55.2616 13.1058 55.3331 13.0292 55.3842C12.1657 55.558 11.3022 55.6653 10.454 55.2974L10.4336 55.2821Z" fill="#7B3E12"/>
<path d="M63.0959 55.2671C63.801 55.2773 64.5061 55.3029 65.2112 55.2875C65.5586 55.2824 65.6965 55.3795 65.6914 55.7423C65.6761 57.178 65.6761 58.6086 65.6914 60.0444C65.6965 60.4122 65.5995 60.5757 65.1958 60.5553C64.5367 60.5246 63.8776 60.5553 63.2134 60.5604C62.917 60.4531 62.9017 60.1823 62.8966 59.9371C62.866 58.5678 62.8711 57.1984 62.8966 55.8291C62.9017 55.6247 62.9324 55.4204 63.0959 55.2671Z" fill="#7A3E12"/>
<path d="M70.9489 68.4848C71.6999 68.4848 72.451 68.4899 73.2021 68.4746C73.4422 68.4695 73.5904 68.5002 73.5853 68.7914C73.5802 70.3395 73.5802 71.8877 73.5904 73.4358C73.5955 73.7577 73.4065 73.7424 73.1919 73.7373C72.4408 73.727 71.6897 73.7219 70.9386 73.7168C70.6883 73.4154 70.7241 73.0577 70.7343 72.7052C70.77 71.622 70.6934 70.5388 70.7189 69.4556C70.7241 69.1184 70.6934 68.7709 70.9386 68.4899L70.9489 68.4848Z" fill="#7A3D11"/>
<path d="M63.0757 44.6905C63.0808 42.9686 63.0859 41.2468 63.091 39.5249C63.7757 39.5198 64.4654 39.5453 65.1501 39.5045C65.5895 39.4789 65.6968 39.6475 65.6866 40.0563C65.6661 41.4307 65.6661 42.8051 65.6917 44.1744C65.7019 44.6138 65.5384 44.7262 65.1348 44.7109C64.4501 44.6854 63.7654 44.6956 63.0757 44.6905Z" fill="#7B3F12"/>
<path d="M10.4794 23.7063C10.5203 23.691 10.5611 23.6808 10.602 23.6706C11.3889 23.3384 12.191 23.4509 12.9983 23.5837C13.0801 23.6246 13.1363 23.691 13.1772 23.7727C13.3866 25.3056 13.2691 26.8435 13.2487 28.3814C13.2436 28.7493 12.9881 28.9383 12.6611 29.0456C11.9151 29.0814 11.1641 29.2602 10.4436 28.9179L10.4539 28.9332C10.3057 28.7493 10.2546 28.5296 10.2495 28.2997C10.2341 26.9661 10.2393 25.6274 10.2444 24.2939C10.2444 24.1304 10.2904 23.9822 10.3772 23.8443C10.413 23.7932 10.4487 23.7472 10.4794 23.7063Z" fill="#EC9537"/>
<path d="M63.2134 21.1109C63.8725 21.1058 64.5316 21.1058 65.1907 21.0854C65.5177 21.0752 65.6966 21.1467 65.6914 21.5299C65.6761 22.9656 65.6812 24.3963 65.6914 25.832C65.6966 26.1948 65.5484 26.3072 65.2061 26.2918C64.501 26.2663 63.7959 26.2663 63.0908 26.2612C62.9222 25.8984 62.8813 25.5203 62.8864 25.1269C62.8966 24.0948 62.8813 23.0678 62.8915 22.0357C62.8966 21.6985 62.8609 21.3306 63.2134 21.1109Z" fill="#7B3F13"/>
<path d="M10.3774 23.8394C10.4029 25.5357 10.4285 27.232 10.454 28.9283C9.69781 28.9385 8.94673 28.9385 8.19054 28.9692C7.85843 28.9794 7.76135 28.8568 7.76646 28.5298C7.78179 27.1349 7.7869 25.7401 7.76135 24.3452C7.75624 23.9109 7.90953 23.7985 8.32339 23.8138C9.00293 23.8496 9.6927 23.8343 10.3774 23.8394Z" fill="#7B3E12"/>
<path d="M10.403 31.6669C10.4132 33.1895 10.4183 34.7172 10.4337 36.2398C10.4337 36.4391 10.3519 36.5821 10.2395 36.7303C9.57529 36.7354 8.91618 36.7303 8.25196 36.7559C7.89431 36.7712 7.77168 36.6435 7.77679 36.2858C7.78701 34.9165 7.78701 33.5421 7.77168 32.1727C7.76657 31.7844 7.85854 31.5903 8.30817 31.6209C8.96728 31.6669 9.6315 31.6363 10.2957 31.6414C10.3417 31.5954 10.3826 31.6056 10.403 31.6669Z" fill="#7A3E12"/>
<path d="M63.0958 55.2668C63.0958 56.8609 63.0907 58.4602 63.0907 60.0543C63.0907 60.2331 63.06 60.4222 63.2184 60.5652C63.152 60.5959 63.0856 60.6265 63.014 60.6572C62.9987 60.6163 62.9783 60.5755 62.9629 60.5346C62.2323 60.3915 61.5068 60.4324 60.7761 60.5192C60.6893 60.5295 60.6024 60.5346 60.5155 60.5448C60.4798 60.5244 60.4389 60.5039 60.4031 60.4835C60.3214 60.3966 60.2805 60.2893 60.2805 60.1718C60.2907 58.7361 60.2703 57.3003 60.2958 55.8646C60.301 55.6602 60.3316 55.4559 60.4747 55.2872C61.3126 54.9347 62.171 55.088 63.0294 55.1748C63.0498 55.2004 63.0702 55.2362 63.0958 55.2668Z" fill="#EA9635"/>
<path d="M63.2133 21.1107C63.0344 21.3253 63.0906 21.5859 63.0906 21.8311C63.0855 23.3077 63.0906 24.7843 63.0906 26.2609C63.0498 26.266 63.0038 26.2712 62.9629 26.2712C62.4979 25.9595 61.9819 26.1945 61.4965 26.169C60.4286 26.123 60.4542 26.1536 60.4797 25.0807C60.5104 23.7573 60.4899 22.4289 60.4899 21.1056V21.0392C61.2717 20.7632 62.0483 20.7377 62.8198 21.0596C62.8863 21.0647 62.9527 21.0698 63.0191 21.0698C63.0855 21.0851 63.1468 21.0954 63.2133 21.1107Z" fill="#EB9635"/>
<path d="M65.3847 52.6559C64.8482 52.4873 64.2964 52.569 63.7548 52.5946C63.1877 52.6253 63.0651 52.4158 63.0753 51.8844C63.1059 50.418 63.0855 48.9516 63.0804 47.4852C63.7855 47.4801 64.4957 47.4852 65.2008 47.4597C65.5431 47.4494 65.6913 47.5516 65.6862 47.9195C65.6708 49.3552 65.6811 50.7961 65.6811 52.2318C65.6862 52.4464 65.7066 52.6763 65.3847 52.6559Z" fill="#7B3F13"/>
<path d="M71.0358 5.36377C71.7204 5.3791 72.4051 5.40464 73.0897 5.39953C73.4219 5.39442 73.5905 5.45574 73.5854 5.84405C73.5649 7.25935 73.57 8.67976 73.5854 10.1002C73.5905 10.4221 73.4934 10.5447 73.1613 10.5345C72.4306 10.514 71.7 10.5294 70.9642 10.5294L70.9387 10.4987C70.5657 9.96221 70.7701 9.35419 70.7241 8.78194C70.7037 8.53669 70.7037 8.28122 70.7292 8.03597C70.7241 7.40241 70.7037 6.76885 70.7292 6.13528C70.7445 5.84405 70.6883 5.51705 71.0358 5.36377Z" fill="#7B3D12"/>
<path d="M62.9783 39.4993C62.1506 39.4993 61.3178 39.4942 60.4901 39.4942C60.4798 37.9205 60.4849 36.3519 60.4594 34.7782C60.4492 34.3388 60.628 34.2366 61.0265 34.2519C61.6856 34.2775 62.3499 34.2622 63.009 34.2622C62.9988 36.0044 62.9885 37.7519 62.9783 39.4993Z" fill="#783D13"/>
<path d="M2.49355 73.6197C1.83444 73.6094 1.17022 73.5737 0.511114 73.589C0.117692 73.5992 0.00017651 73.4562 0.00528589 73.073C0.020614 71.6832 0.020614 70.2883 0.00528589 68.8986C0.00017651 68.5665 0.117692 68.4592 0.439583 68.4694C1.12424 68.4898 1.80379 68.4847 2.48844 68.4898C2.86654 69.0263 2.65705 69.6395 2.70815 70.2219C2.73369 70.5183 2.71837 70.8146 2.69793 71.111C2.72859 71.7139 2.71837 72.3219 2.70815 72.9299C2.69282 73.1751 2.68771 73.4255 2.49355 73.6197Z" fill="#7A3E13"/>
<path d="M2.46289 10.5138C1.79867 10.5138 1.13956 10.5087 0.475339 10.5241C0.13301 10.5343 -0.00494411 10.427 0.000165269 10.0591C0.0206028 8.66424 0.0154934 7.27449 0.000165269 5.87962C-0.00494411 5.52708 0.107463 5.38912 0.470229 5.39934C1.1089 5.41467 1.74757 5.38913 2.38625 5.37891C2.70303 5.51686 2.67237 5.8132 2.68259 6.07378C2.70303 6.6818 2.70303 7.28471 2.68259 7.89272C2.71325 8.52628 2.69792 9.15985 2.69281 9.79341C2.69281 10.0438 2.66215 10.2941 2.47821 10.4934L2.46289 10.5138Z" fill="#7A3E11"/>
<path d="M65.441 78.6728C65.4819 78.6728 65.5176 78.6728 65.5585 78.6677C65.5687 78.7546 65.579 78.8415 65.5943 78.9334C64.225 78.9487 62.8505 78.9845 61.4812 78.9845C52.5041 78.9845 43.532 78.9743 34.5548 78.9743C25.8535 78.9743 17.1523 78.9794 8.4561 78.9998C7.9145 78.9998 7.73057 78.8619 7.77655 78.3203C7.83275 77.7072 7.81743 77.0889 7.83275 76.4707C8.15464 76.9868 7.90428 77.5539 7.98093 78.0955C8.01158 78.3203 7.88896 78.6166 8.25683 78.6831C10.086 78.6575 11.9203 78.5655 13.7443 78.632C15.7574 78.7035 17.7654 78.4327 19.7683 78.6728C20.5653 78.7648 21.3675 78.5655 22.1646 78.6013C25.0667 78.729 27.9637 78.5707 30.8658 78.6473C32.6439 78.6933 34.4271 78.6269 36.2102 78.6218C38.9233 78.6115 41.6364 78.7648 44.3444 78.6473C46.3575 78.5604 48.3604 78.8108 50.3734 78.6013C51.3085 78.5042 52.2486 78.6933 53.1836 78.6677C56.0142 78.6013 58.8499 78.6064 61.6805 78.6218C62.9272 78.6166 64.1841 78.6728 65.441 78.6728Z" fill="#562B15"/>
<path d="M10.4489 42.1152C9.73867 42.1203 9.03358 42.0999 8.32848 42.1459C7.85331 42.1765 7.73069 41.9977 7.76645 41.5634C7.81244 40.9043 7.58251 40.0357 7.91973 39.6423C8.27228 39.2335 9.16642 39.535 9.82553 39.5248C10.6175 39.6065 10.6788 39.6474 10.6635 40.47C10.6533 41.0167 10.8219 41.5992 10.4591 42.105L10.4489 42.1152Z" fill="#7B3E13"/>
<path d="M2.50887 7.87252C2.4169 7.0448 2.61106 6.20176 2.39136 5.37915C2.43223 5.30761 2.47311 5.23608 2.51398 5.16455C3.20375 5.38936 3.90884 5.24119 4.60883 5.25652C4.9767 5.26674 5.1402 5.33827 5.11977 5.74702C5.07889 6.54408 5.08911 7.34115 5.07889 8.13821C4.40956 8.09734 3.73512 8.07179 3.06579 8.07179C2.86142 8.06668 2.66215 8.03091 2.50887 7.87252Z" fill="#FDD26D"/>
<path d="M13.0547 50.0911C12.2015 50.0808 11.3431 50.0655 10.4898 50.0553C10.449 50.04 10.4387 50.0093 10.4643 49.9735C10.1117 49.156 10.1986 48.3232 10.3723 47.4853C10.4081 47.4495 10.4439 47.4086 10.4796 47.3729C11.3431 47.4546 12.2066 47.5262 13.065 47.3218C13.0956 47.3524 13.1263 47.3831 13.1569 47.4086C13.3511 48.2772 13.3511 49.1407 13.1569 50.0093C13.1161 50.0349 13.0854 50.0604 13.0547 50.0911Z" fill="#ED9638"/>
<path d="M10.4541 42.1051C10.4439 41.5073 10.3979 40.9095 10.4388 40.322C10.4745 39.8212 10.3161 39.5658 9.81543 39.5249C10.0198 39.5147 10.2242 39.5096 10.4234 39.4993C11.292 39.1213 12.1657 39.1979 13.0446 39.438C13.4533 40.184 13.2745 40.976 13.1978 41.7526C13.1672 42.0489 12.8606 41.9978 12.6614 42.0796C11.9307 42.0949 11.195 42.1 10.4541 42.1051Z" fill="#EC9638"/>
<path d="M71.036 5.36341C70.8266 6.232 71.0463 7.12104 70.9134 7.99474C70.0499 8.09693 69.1865 8.23999 68.3434 7.87211C68.3383 7.16191 68.3536 6.45682 68.3179 5.74661C68.2974 5.33786 68.4609 5.24589 68.8339 5.25611C69.5186 5.28166 70.2032 5.26633 70.8879 5.26633C70.9441 5.3021 70.9901 5.33275 71.036 5.36341Z" fill="#FDD16E"/>
<path d="M13.0598 39.4839C12.181 39.489 11.3073 39.4993 10.4285 39.5044C10.454 38.6256 10.4744 37.7468 10.5 36.873C11.3533 36.8833 12.2065 36.8884 13.0598 36.8986C13.0905 36.9293 13.1211 36.9548 13.1467 36.9855C13.3408 37.7927 13.3357 38.5949 13.1467 39.4022C13.1211 39.4226 13.0905 39.4533 13.0598 39.4839Z" fill="#7A3D11"/>
<path d="M2.49365 73.6198C2.50387 72.7819 2.50898 71.9388 2.5192 71.1009C3.22429 70.7279 3.97537 70.9067 4.70601 70.9629C4.98703 70.9834 5.02279 71.2184 5.03301 71.4688C5.04834 71.9388 4.96148 72.4191 5.08922 72.8841C5.23739 73.5125 5.05345 73.8037 4.34836 73.7373C3.81187 73.6862 3.15787 73.584 2.74912 73.8242C2.31993 74.0797 2.73379 74.8001 2.53453 75.2855C2.5192 74.7285 2.50387 74.1767 2.49365 73.6198Z" fill="#EB963A"/>
<path d="M60.5002 44.7367C61.3126 44.7878 62.1352 44.6499 62.9425 44.8134C62.9425 45.6666 62.9425 46.525 62.9425 47.3783C62.1301 47.4038 61.3228 47.4243 60.5104 47.4498C60.4798 47.4243 60.4542 47.3987 60.4236 47.3732C60.1783 46.5863 60.3623 45.7688 60.2805 44.9718C60.2958 44.8389 60.3725 44.7623 60.5002 44.7367Z" fill="#7C3F14"/>
<path d="M10.3724 47.4804C10.5257 48.3082 10.3571 49.141 10.4644 49.9687C9.73372 49.9585 9.00819 49.9227 8.27755 49.9483C7.88413 49.9585 7.78194 49.8205 7.76151 49.4424C7.66443 47.4702 7.65421 47.4702 9.62132 47.4702C9.87168 47.4702 10.122 47.4804 10.3724 47.4804Z" fill="#7B3F15"/>
<path d="M65.5533 34.2008C64.9146 34.1855 64.2759 34.1549 63.6373 34.1651C63.2336 34.1753 63.0497 34.0629 63.0803 33.6286C63.111 33.1739 63.1161 32.714 63.0803 32.2593C63.0395 31.7739 63.2081 31.5951 63.6935 31.6462C63.9387 31.6717 64.1942 31.6308 64.4446 31.6206C65.6912 31.6359 65.7066 31.6359 65.6861 32.8775C65.6759 33.3169 65.8241 33.7819 65.5533 34.2008Z" fill="#7B3E14"/>
<path d="M63.0245 55.1699C62.1917 55.456 61.3282 55.2107 60.4852 55.3078C60.4596 55.2772 60.429 55.2465 60.4034 55.2159C60.2246 54.3984 60.2246 53.5809 60.4034 52.7634C60.429 52.7327 60.4596 52.702 60.4852 52.6714C61.3231 52.6765 62.161 52.6765 62.999 52.6816C62.9581 53.5093 62.9121 54.3422 63.0245 55.1699Z" fill="#793C12"/>
<path d="M10.4897 29.1987C10.4846 29.1476 10.4795 29.0965 10.4744 29.0454C11.2152 28.8871 11.9663 29.0046 12.7123 28.9739C13.1006 28.9586 13.1006 29.2958 13.1159 29.5666C13.1517 30.1593 13.1057 30.752 13.1517 31.3447C13.1466 31.4366 13.1057 31.5082 13.0342 31.5695C12.3751 31.6104 11.7108 31.5542 11.0517 31.595C10.6072 31.6257 10.5152 31.4469 10.5204 31.0432C10.5306 30.4301 10.5766 29.8119 10.4897 29.1987Z" fill="#783C10"/>
<path d="M54.2977 0.0498794C54.0882 0.264473 53.8225 0.172504 53.5824 0.172504C43.1132 0.177614 32.6441 0.177614 22.175 0.177614C21.9349 0.177614 21.6692 0.269582 21.4546 0.0600972C25.7976 0.0498785 30.1405 0.0396597 34.4835 0.0345503C40.8396 0.0243316 47.1905 0.0243322 53.5466 0.0192228C53.797 0.0141134 54.0473 0.0396607 54.2977 0.0498794Z" fill="#532D1E"/>
<path d="M21.3113 0.049876C21.1019 0.26447 20.8362 0.172501 20.596 0.172501C16.6567 0.17761 12.7174 0.177611 8.77803 0.177611C8.46125 0.177611 8.13425 0.116298 7.84812 0.330892C7.77148 0.269579 7.7817 0.17761 7.7817 0.0958601C9.04883 -0.0727494 10.3211 0.0345479 11.5933 0.0243291C14.5567 -0.0114365 17.5253 0.0141098 20.4887 0.0141098C20.7646 0.0141098 21.0354 0.0396573 21.3113 0.049876Z" fill="#532D1E"/>
<path d="M65.5996 0.0803546C65.5587 0.131448 65.5127 0.218308 65.4719 0.218308C61.9668 0.20809 58.4669 0.192762 54.9619 0.177434C54.783 0.177434 54.5889 0.218308 54.4509 0.0548077C58.0786 0.0394796 61.7114 0.0292617 65.339 0.019043C65.4208 0.019043 65.5076 0.0599171 65.5996 0.0803546Z" fill="#532D1E"/>
<path d="M7.78161 0.0957031C7.80205 0.172344 7.8276 0.254094 7.84803 0.330735C7.8276 0.366501 7.8276 0.397157 7.84803 0.432923C7.93489 1.16867 7.97577 1.90442 7.83271 2.64017C7.83271 3.51388 7.83782 4.38247 7.83782 5.25618C7.81227 5.26129 7.78161 5.26129 7.75607 5.26639C7.74585 4.3978 7.73563 3.53432 7.72541 2.66572C7.78161 1.80734 7.62833 0.94897 7.78161 0.0957031Z" fill="#F9B857"/>
<path d="M10.4898 29.1987C10.7197 29.725 10.5869 30.2819 10.5818 30.8184C10.5767 31.3345 10.6839 31.5797 11.2613 31.5286C11.854 31.4775 12.4518 31.5133 13.0445 31.5082C13.0802 31.5337 13.0905 31.5644 13.0854 31.595C13.0751 31.6257 13.0649 31.641 13.0547 31.641C12.1708 31.6512 11.2869 31.6563 10.4029 31.6666C10.3621 31.6666 10.3263 31.6563 10.2905 31.6359C10.6277 31.1199 10.3774 30.5476 10.4489 30.006C10.4847 29.7403 10.4796 29.4695 10.4898 29.1987Z" fill="#9F5D18"/>
<path d="M7.73583 68.3317C7.73583 67.5091 7.73072 66.6814 7.73072 65.8588C7.74605 65.0209 7.66941 64.1829 7.79203 63.3501C7.81247 64.1931 7.83291 65.0311 7.85846 65.8741C7.84824 66.7121 7.84313 67.55 7.83291 68.3879C7.79714 68.3675 7.76138 68.3522 7.73583 68.3317Z" fill="#FAB757"/>
<path d="M13.0546 31.3857C12.8043 30.8441 12.932 30.2667 12.9524 29.7149C12.9678 29.158 12.7736 28.9996 12.2474 29.0354C11.6598 29.0762 11.0671 29.0456 10.4744 29.0456C10.4591 29.0149 10.4437 28.9894 10.4335 28.9587C10.4284 28.9434 10.4386 28.9281 10.4437 28.9076C11.1846 28.8974 11.9255 28.8923 12.6714 28.8821C12.886 28.8003 13.0751 28.8054 13.1875 29.0456C13.2743 29.2857 13.2743 29.5361 13.2692 29.7864C13.1824 30.3229 13.4378 30.9003 13.0546 31.3857Z" fill="#9F5D18"/>
<path d="M13.075 60.6571C13.0597 60.6265 13.0495 60.5958 13.0444 60.5652C12.7327 58.8075 12.6918 57.0499 13.0597 55.2923L13.0546 55.2974C13.9232 54.9602 14.7969 54.9959 15.6757 55.2719C15.829 55.4302 15.875 55.6295 15.875 55.8339C15.875 57.336 15.9618 58.8331 15.8341 60.3352C15.8086 60.417 15.7728 60.4885 15.7217 60.555C14.8531 60.836 13.9641 60.7491 13.075 60.6571Z" fill="#FAB857"/>
<path d="M13.0596 55.2876C13.0545 57.0452 13.0494 58.8028 13.0443 60.5605C12.1808 60.5503 11.3173 60.5349 10.4539 60.5247C10.4539 58.7824 10.4539 57.0401 10.4539 55.2978C11.3225 55.2927 12.191 55.2927 13.0596 55.2876Z" fill="#EB9638"/>
<path d="M60.5105 60.5399C60.4952 61.2245 60.4492 61.9092 60.4747 62.5938C60.4901 63.0588 60.3112 63.1712 59.8769 63.1712C58.0682 63.1763 56.2646 63.2376 54.4559 63.2376C41.7948 63.2427 29.1287 63.2376 16.4676 63.2325C16.2173 63.2325 15.972 63.1967 15.7217 63.1763C15.9005 62.9004 16.1969 62.931 16.4625 62.9259C17.0552 62.9157 17.6479 62.9004 18.2406 62.9259C18.5625 62.9055 18.8793 62.9004 19.2012 62.9004C30.8914 62.9004 42.5817 62.9004 54.2719 62.9004C54.5683 62.9004 54.8646 62.8953 55.161 62.9259C55.7281 62.9106 56.3004 62.9106 56.8675 62.9259C57.3733 62.9362 57.5471 62.7113 57.5471 62.2259C57.5471 61.6844 57.4653 61.1325 57.639 60.5961C57.6799 60.5194 57.7361 60.4581 57.8128 60.4172C58.7069 60.2742 59.5959 60.1669 60.4747 60.499L60.5105 60.5399Z" fill="#EC9637"/>
<path d="M13.075 60.6575C13.9334 60.4275 14.8071 60.5553 15.6706 60.5348C15.9669 61.4239 16.0998 62.3129 15.5582 63.1662C14.8122 63.3705 14.0662 63.1457 13.3254 63.1559C13.0239 63.1611 13.0546 62.9056 13.0546 62.7063C13.0597 62.0217 13.0699 61.337 13.075 60.6575Z" fill="#EB9638"/>
<path d="M15.5635 63.1659C15.7985 62.2973 15.6401 61.4082 15.6759 60.5345L15.6861 60.5243C16.4525 60.1513 17.2445 60.3046 18.0313 60.4068C18.1693 60.4272 18.2714 60.5345 18.3481 60.652C18.6547 61.0914 18.5371 62.6805 18.1693 63.1199C17.3518 63.1403 16.5343 63.1659 15.7168 63.1863C15.6657 63.1761 15.6146 63.171 15.5635 63.1659Z" fill="#F8B857"/>
<path d="M60.7712 60.5141C61.5019 60.3148 62.2325 60.2944 62.9581 60.5294C62.2325 60.5243 61.5019 60.5192 60.7712 60.5141Z" fill="#F9B757"/>
<path d="M65.6914 7.87726C65.6914 8.74586 65.6914 9.61445 65.6863 10.4882C65.3491 10.4882 65.0119 10.4933 64.6747 10.4933C46.0612 10.4933 27.4477 10.4933 8.83426 10.4984C8.4766 10.4984 8.03208 10.34 7.84814 10.8918C7.84814 9.02176 7.84814 7.14662 7.84814 5.27659C8.71163 5.2817 9.58023 5.2817 10.4437 5.28681C10.8014 5.75176 10.6328 6.29335 10.6532 6.79918C10.689 7.63712 10.6992 7.67289 11.5576 7.67289C12.9269 7.67289 12.8502 7.77507 12.8604 6.39043C12.8656 6.01234 12.7787 5.6087 13.0699 5.2817C13.9385 5.2817 14.802 5.2817 15.6706 5.28681C16.0283 5.75176 15.8597 6.29335 15.8801 6.79918C15.9159 7.63712 15.9261 7.67289 16.7793 7.67289C18.1487 7.67289 18.0771 7.77507 18.0873 6.39043C18.0925 6.01234 18.0056 5.6087 18.2968 5.2817C18.9815 5.2817 19.6661 5.27659 20.3559 5.27659C20.9537 5.26637 21.107 5.61381 21.107 6.15029C21.1121 7.79551 20.8106 7.69332 22.7318 7.67289C23.3704 7.66778 23.4726 7.52982 23.4113 6.8656C23.3602 6.31379 23.3193 5.7722 23.6617 5.2817C24.4383 5.2817 25.2149 5.2817 25.9916 5.27659C26.3083 5.42987 26.339 5.73132 26.3748 6.02256C26.3952 6.18095 26.3645 6.33934 26.3594 6.49773C26.3441 7.55026 26.4667 7.67799 27.5039 7.67799C27.6879 7.67799 27.8667 7.67289 28.0506 7.67799C28.4747 7.68821 28.674 7.48384 28.6791 7.05976C28.6842 6.69699 28.674 6.33423 28.6893 5.97146C28.7046 5.69556 28.7097 5.41454 29.0163 5.27659C29.7929 5.27659 30.5696 5.27659 31.3513 5.2817C31.8316 5.56271 31.6783 6.04299 31.6885 6.45174C31.7141 7.67799 31.7038 7.6831 32.9352 7.67289C33.8753 7.66778 33.8651 7.64734 33.9111 6.72254C33.9315 6.23204 33.6965 5.65468 34.2432 5.27659C35.0658 5.27659 35.8884 5.27659 36.711 5.27659C37.0687 5.76709 36.8899 6.32912 36.9154 6.8656C36.9563 7.61668 36.9818 7.66778 37.7482 7.67289C39.23 7.67799 39.1124 7.76485 39.1278 6.31379C39.1329 5.94591 39.0358 5.52184 39.465 5.2817C40.2876 5.2817 41.1102 5.2817 41.9328 5.2817C42.2496 5.65979 42.1219 6.11453 42.1321 6.5386C42.1627 7.60646 42.2189 7.67799 43.2613 7.67799C43.3737 7.67799 43.4912 7.67799 43.6036 7.67799C44.3138 7.65756 44.4211 7.56048 44.4722 6.82984C44.4926 6.53349 44.4824 6.23715 44.4569 5.9357C44.4364 5.71088 44.37 5.47585 44.5539 5.2817C45.4225 5.2817 46.2911 5.27659 47.1546 5.27659C47.6298 5.56271 47.4816 6.03788 47.4918 6.45174C47.5174 7.6831 47.5071 7.6831 48.7385 7.67289C49.6786 7.66778 49.6735 7.64734 49.7144 6.72254C49.7348 6.22693 49.5049 5.65468 50.0465 5.27659C50.8231 5.27659 51.6049 5.27659 52.3815 5.27659C52.8567 5.56271 52.7085 6.03788 52.7187 6.45174C52.7443 7.6831 52.734 7.6831 53.9654 7.67799C54.9055 7.67289 54.9004 7.65245 54.9413 6.72765C54.9617 6.23715 54.7267 5.65979 55.2734 5.2817C56.096 5.2817 56.9186 5.2817 57.7412 5.2817C58.0989 5.75176 57.9252 6.29335 57.9456 6.80429C57.9814 7.62179 58.0018 7.66778 58.7938 7.66778C60.4543 7.67288 60.2857 7.78018 60.2806 6.2116C60.2806 5.67001 60.3879 5.26637 61.0368 5.27659C61.6755 5.27659 62.3192 5.27659 62.9579 5.27659C63.3922 5.51162 63.2849 5.9357 63.29 6.30357C63.3054 7.79551 63.1981 7.66778 64.6338 7.6831C64.9966 7.6831 65.3644 7.66778 65.6914 7.87726Z" fill="#F9B857"/>
<path d="M65.6915 70.9732C65.6966 71.8827 65.7017 72.7973 65.7069 73.7068C65.5025 73.7119 65.293 73.7221 65.0886 73.7221C46.3219 73.7221 27.55 73.7221 8.78325 73.7221C7.83801 73.7221 7.8329 73.7221 7.83801 72.7564C7.83801 72.3426 7.84823 71.9338 7.85334 71.5199C7.91465 71.0908 8.1599 70.8915 8.5942 70.8915C8.93653 70.8915 9.27886 70.8864 9.6263 70.8864C28.0712 70.8864 46.516 70.8915 64.9558 70.8864C65.201 70.8813 65.4565 70.8455 65.6915 70.9732Z" fill="#EB9638"/>
<path d="M65.6914 70.973C65.4053 71.1825 65.0732 71.1058 64.7615 71.1058C46.1123 71.1109 27.4579 71.1058 8.80871 71.1058C8.43061 71.1058 8.01675 71.019 7.85325 71.5197C7.85325 71.2949 7.84814 71.0649 7.84814 70.8401C8.14449 70.2321 7.935 69.5883 7.98099 68.9599C8.00654 68.6073 7.97588 68.311 8.49193 68.4796C8.72185 68.5511 8.99265 68.5 9.24301 68.5C27.7185 68.5 46.1991 68.5 64.6747 68.4898C65.0068 68.4898 65.3951 68.73 65.6914 68.3672C65.6914 69.2307 65.6914 70.0993 65.6914 70.973Z" fill="#FAB757"/>
<path d="M65.4412 76.3432C65.4974 76.7673 65.3032 76.9002 64.8893 76.8899C63.8828 76.8644 62.866 76.8082 61.8697 76.9002C60.2705 77.0432 58.6866 76.8542 57.0924 76.8899C56.8932 76.895 56.5559 76.7622 56.5508 77.1147C56.5457 77.4673 56.8778 77.4315 57.1231 77.4315C57.5829 77.4366 58.0377 77.4264 58.4975 77.4366C58.6303 77.4417 58.8603 77.3344 58.8603 77.595C58.8603 77.7534 58.7376 77.9527 58.5741 77.9374C57.8895 77.876 57.1282 78.3206 56.5406 77.5899C56.3005 77.2885 54.7881 77.3753 54.4662 77.6461C53.8991 78.1366 52.7086 78.1264 52.1874 77.6257C51.8706 77.3242 50.3838 77.3396 50.067 77.6512C49.5868 78.1213 48.289 78.1162 47.8036 77.641C47.4868 77.3345 45.9489 77.2936 45.6985 77.6461C45.4635 77.9731 45.1876 77.9782 44.8657 77.9782C39.5059 77.9782 34.1513 77.9782 28.7916 77.9731C28.6127 77.9731 28.4288 77.9527 28.25 77.9118C28.1376 77.8812 28.0712 77.7687 28.0763 77.641C28.0814 77.5031 28.1785 77.4417 28.3011 77.4366C28.485 77.4264 28.669 77.4264 28.8478 77.4264C34.1156 77.4264 39.3833 77.4264 44.646 77.4264C44.8044 77.4264 44.9679 77.4315 45.1263 77.4264C45.3715 77.4162 45.7138 77.4724 45.7189 77.1301C45.7241 76.7315 45.346 76.8848 45.1365 76.8848C39.5008 76.8746 33.8703 76.8184 28.2398 76.9206C26.896 76.9461 25.5573 76.752 24.2238 76.8848C23.9888 76.9104 23.5647 76.6958 23.5647 77.1147C23.5647 77.5388 23.999 77.4111 24.2749 77.4213C24.6887 77.4366 25.0975 77.4162 25.5114 77.4315C25.6391 77.4366 25.8741 77.3242 25.869 77.6001C25.8639 77.7636 25.7464 77.9527 25.5778 77.9374C24.8931 77.876 24.1318 78.3103 23.5494 77.5797C23.3092 77.2834 21.7968 77.3753 21.4749 77.6512C20.9129 78.1366 19.7224 78.1213 19.1962 77.6206C18.8743 77.3191 17.3926 77.3498 17.0758 77.6614C16.6313 78.1009 15.2671 78.1213 14.8481 77.6972C14.4649 77.3089 13.024 77.2936 12.6613 77.7125C12.4875 77.9118 12.3189 77.9833 12.0737 77.9833C10.9496 77.9782 9.83067 77.9833 8.70661 77.9782C8.51245 77.9782 8.23143 78.0395 8.21611 77.7483C8.20589 77.4417 8.47157 77.4264 8.71682 77.4264C9.86133 77.4315 11.0058 77.4315 12.1503 77.4264C12.3956 77.4264 12.7379 77.4673 12.7379 77.125C12.7328 76.7315 12.3598 76.8899 12.1452 76.8848C11.0671 76.8695 9.99417 76.8695 8.91609 76.8797C8.52778 76.8848 8.21611 76.8286 8.24676 76.3381C19.8502 76.333 31.4485 76.333 43.0519 76.333C50.5218 76.333 57.9815 76.3381 65.4412 76.3432Z" fill="#7A3E11"/>
<path d="M65.5636 77.8502C64.833 78.1261 64.0717 77.9371 63.3257 77.978C62.7126 78.0086 62.0893 77.9882 61.4761 77.978C61.282 77.978 61.1083 77.9064 61.0827 77.6816C61.0623 77.5028 61.19 77.4364 61.3382 77.4415C62.7484 77.5079 64.1637 77.2678 65.5636 77.5692C65.5636 77.6612 65.5636 77.7531 65.5636 77.8502Z" fill="#7A3E11"/>
<path d="M61.0421 5.27686C60.5772 5.39948 60.4699 5.70093 60.4801 6.171C60.5107 7.87753 60.4903 7.88264 58.7787 7.87753C57.6239 7.87242 57.7568 8.00526 57.7466 6.86076C57.7415 6.3345 57.7415 5.80823 57.7415 5.28197C58.84 5.27686 59.9385 5.27686 61.0421 5.27686Z" fill="#FBD26B"/>
<path d="M23.6615 5.2817C23.6411 5.95614 23.5184 6.62036 23.6462 7.29991C23.7177 7.68822 23.5082 7.88749 23.0944 7.87727C22.5221 7.86194 21.955 7.86194 21.3827 7.87727C21.0302 7.88749 20.8871 7.74953 20.9024 7.39699C20.9178 6.98824 20.8718 6.57438 20.9178 6.16563C20.9689 5.69556 20.8207 5.39922 20.3608 5.27148C21.4594 5.27659 22.5579 5.27659 23.6615 5.2817Z" fill="#FDD16D"/>
<path d="M29.0164 5.27659C28.7303 5.91016 28.9091 6.58459 28.8887 7.23349C28.8734 7.69844 28.7201 7.91303 28.2398 7.87727C27.969 7.85683 27.6931 7.87216 27.4172 7.87216C26.2931 7.87216 25.9917 7.5656 26.1501 6.45175C26.2114 6.02256 26.1552 5.64958 25.9866 5.27148C26.9982 5.27659 28.0048 5.27659 29.0164 5.27659Z" fill="#FBD26D"/>
<path d="M44.554 5.28197C44.6664 6.00239 44.7992 6.7177 44.5744 7.44323C44.5386 7.55053 44.5386 7.73958 44.4824 7.76001C43.7773 8.00526 43.0314 7.9184 42.3212 7.83155C41.8766 7.78045 41.9482 7.23375 41.938 6.85565C41.9277 6.32939 41.9328 5.80312 41.9277 5.27686C42.8065 5.28196 43.6803 5.28197 44.554 5.28197Z" fill="#FCD16B"/>
<path d="M55.2684 5.27682C54.9823 5.91038 55.1458 6.58482 55.1458 7.23371C55.1458 7.75487 54.9772 7.92859 54.4713 7.87749C53.8633 7.82129 53.0918 8.11764 52.6779 7.75998C52.2385 7.38699 52.5758 6.60015 52.5247 5.99213C52.5042 5.74177 52.5298 5.49141 52.3816 5.2666C53.3422 5.27682 54.3078 5.27682 55.2684 5.27682Z" fill="#FCD26C"/>
<path d="M50.0465 5.27686C49.7603 5.91553 49.9187 6.58486 49.9238 7.23375C49.9238 7.7549 49.7603 7.92862 49.2545 7.88264C48.6465 7.82644 47.875 8.12278 47.456 7.77023C47.0115 7.39725 47.3538 6.6104 47.3027 6.00239C47.2823 5.75203 47.3078 5.49656 47.1597 5.27686C48.1202 5.27686 49.0859 5.27686 50.0465 5.27686Z" fill="#FDD16D"/>
<path d="M34.2381 5.27686C33.9571 5.91042 34.1104 6.58486 34.1155 7.23375C34.1155 7.7549 33.9469 7.92862 33.4462 7.88264C32.8382 7.82644 32.0666 8.12278 31.6528 7.77023C31.2083 7.39725 31.5506 6.6104 31.4995 6.0075C31.4791 5.75714 31.5046 5.50678 31.3564 5.28197C32.3119 5.27686 33.2776 5.27686 34.2381 5.27686Z" fill="#FDD16B"/>
<path d="M39.4652 5.27659C39.1842 5.9357 39.3528 6.62547 39.3426 7.2948C39.3324 7.73932 39.1995 7.90792 38.7499 7.88238C38.2492 7.85172 37.7485 7.85172 37.2477 7.88238C36.8186 7.90792 36.6959 7.7291 36.7061 7.32035C36.7266 6.6408 36.7113 5.95614 36.7061 5.27148C37.6258 5.27659 38.5455 5.27659 39.4652 5.27659Z" fill="#FDD16D"/>
<path d="M65.6913 7.8775C64.9709 7.8775 64.2556 7.86217 63.5352 7.8775C63.1417 7.88771 63.1162 7.6629 63.1009 7.35634C63.0549 6.66146 63.249 5.95126 62.968 5.27682C63.8775 5.27171 64.7818 5.2666 65.6913 5.2666C65.6862 6.1352 65.6862 7.0089 65.6913 7.8775Z" fill="#FBD26F"/>
<path d="M18.2967 5.27686C18.2967 5.96151 18.2711 6.64617 18.2967 7.33083C18.312 7.75491 18.1485 7.86731 17.7397 7.88264C15.6806 7.94395 15.6806 7.95417 15.6806 5.89509C15.6806 5.69072 15.6755 5.48634 15.6755 5.27686C16.5492 5.28196 17.4229 5.27686 18.2967 5.27686Z" fill="#FCD26B"/>
<path d="M13.0752 5.27686C13.0752 5.96151 13.0496 6.64617 13.0752 7.33083C13.0905 7.75491 12.927 7.87242 12.5183 7.88264C10.4643 7.94395 10.4643 7.95417 10.4592 5.89509C10.4592 5.69072 10.4541 5.48634 10.449 5.27686C11.3227 5.28196 12.2015 5.27686 13.0752 5.27686Z" fill="#FBD26E"/>
<path d="M7.83276 2.64036C7.83787 1.90461 7.84298 1.16886 7.84809 0.433105C8.10356 0.780543 7.95539 1.17907 7.97072 1.55206C7.98604 1.91483 7.99115 2.27248 8.11889 2.61992C8.02692 2.63014 7.92984 2.63525 7.83276 2.64036Z" fill="#532D1E"/>
<path d="M23.6513 18.4744C26.3286 18.4693 29.0111 18.459 31.6884 18.4539C37.4824 18.4488 43.2764 18.4539 49.0756 18.4539C49.3975 18.4539 49.7143 18.4693 50.0362 18.4795C50.2303 19.0364 50.1026 19.6138 50.123 20.1809C50.1383 20.6356 50.3172 20.8553 50.7821 20.8502C51.196 20.8502 51.6047 20.84 52.0186 20.8758C52.4529 20.9115 52.6879 21.1364 52.7186 21.5707C52.7543 22.0969 52.7441 22.6232 52.7237 23.1494C52.7032 23.6604 52.4171 23.8801 51.9266 23.8903C51.5128 23.9005 51.104 23.8954 50.6902 23.9056C50.3274 23.9159 50.1435 24.0845 50.1383 24.4523C50.1179 26.537 50.123 28.6216 50.1383 30.7062C50.1435 31.1048 50.3478 31.2836 50.7361 31.2938C51.104 31.304 51.4668 31.2938 51.8347 31.3142C52.3763 31.3398 52.6879 31.6004 52.7186 32.1573C52.7492 32.6835 52.7492 33.2098 52.7186 33.7361C52.693 34.201 52.4478 34.4412 51.9828 34.4667C51.569 34.4923 51.1602 34.4821 50.7464 34.4872C50.3683 34.4923 50.1383 34.6353 50.1383 35.0543C50.123 37.1134 50.123 39.1776 50.1383 41.2367C50.1435 41.6556 50.3376 41.8651 50.7668 41.8753C51.1091 41.8804 51.4566 41.8702 51.7989 41.8907C52.55 41.9264 52.7084 42.0848 52.7339 42.8512C52.7595 43.5819 52.7441 44.3176 52.739 45.0483C52.739 46.4431 52.7543 47.8431 52.7339 49.2379C52.7186 50.1065 52.55 50.27 51.6712 50.2854C50.0668 50.3109 50.1332 50.1474 50.1332 51.8897C50.1332 53.5145 50.1281 55.1444 50.1332 56.7692C50.1383 57.6173 50.1997 57.6735 51.0223 57.6889C52.7135 57.7246 52.7492 57.7604 52.7441 59.4414C52.7441 59.6457 52.739 59.8552 52.7339 60.0596C52.7186 60.5705 52.4835 60.7647 51.9522 60.7647C43.067 60.7085 34.1766 60.7494 25.2914 60.7392C23.4163 60.7392 23.4316 60.7647 23.4367 58.956C23.4418 58.2151 23.355 58.1487 22.5988 58.1283C22.2105 58.118 21.8222 58.1334 21.4287 58.1078C20.9996 58.0772 20.7339 57.8677 20.7185 57.4283C20.6674 56.0079 20.6726 54.5875 20.7134 53.1671C20.7288 52.7276 20.9842 52.5131 21.4185 52.4824C21.8784 52.4517 22.3331 52.4671 22.7929 52.4569C23.2119 52.4466 23.4214 52.2525 23.4265 51.8284C23.4418 50.6583 23.4418 49.4934 23.4265 48.3234C23.4214 47.8993 23.2221 47.7 22.7981 47.6847C22.3842 47.6745 21.9754 47.6847 21.5616 47.6591C21.0506 47.6234 20.7339 47.373 20.7134 46.8519C20.6623 45.457 20.6572 44.057 20.7185 42.6622C20.739 42.1717 21.0455 41.9315 21.5258 41.8958C21.9601 41.86 22.3944 41.8804 22.8287 41.8702C23.217 41.86 23.4214 41.6863 23.4265 41.2877C23.4418 40.0717 23.4418 38.8608 23.4265 37.6448C23.4214 37.2769 23.2375 37.1083 22.8747 37.0981C22.4404 37.0878 22.0061 37.0981 21.5718 37.0776C21.02 37.0521 20.7236 36.7608 20.7083 36.2141C20.6725 34.8653 20.6726 33.5113 20.7134 32.1624C20.7288 31.6106 21.0455 31.3398 21.5871 31.3091C22.001 31.2836 22.4097 31.2989 22.8236 31.2887C23.2068 31.2785 23.4265 31.1201 23.4316 30.7113C23.4469 29.4953 23.4469 28.2844 23.4316 27.0683C23.4265 26.7056 23.2579 26.5268 22.89 26.5165C22.4557 26.5012 22.0214 26.5165 21.5871 26.4961C21.0455 26.4654 20.7288 26.2049 20.7134 25.6479C20.6828 24.3195 20.6879 22.9911 20.7083 21.6626C20.7185 21.1261 21.0047 20.8809 21.5258 20.8604C21.9141 20.8502 22.3076 20.8349 22.6959 20.8502C23.263 20.8758 23.4521 20.6152 23.4572 20.0685C23.4469 19.5371 23.2886 18.97 23.6513 18.4744Z" fill="#FBF6A4"/>
<path d="M23.6515 18.4745C23.6515 19.1388 23.6209 19.803 23.6566 20.4672C23.6822 20.9628 23.4931 21.111 23.0231 21.0803C22.4968 21.0497 21.9705 21.0956 21.4443 21.065C21.01 21.0394 20.8976 21.2234 20.9027 21.627C20.9231 22.9555 20.9231 24.2839 20.9027 25.6123C20.8925 26.108 21.0611 26.3328 21.5771 26.3021C22.0778 26.2715 22.5837 26.3123 23.0895 26.2919C23.488 26.2715 23.6669 26.389 23.6566 26.8284C23.6362 28.2232 23.6413 29.6232 23.6566 31.0181C23.6618 31.4115 23.5085 31.5443 23.1304 31.529C22.5837 31.5086 22.0319 31.5341 21.48 31.5188C21.0764 31.5086 20.8976 31.6721 20.9027 32.0859C20.9129 33.4808 20.9129 34.8808 20.9027 36.2756C20.8976 36.7252 21.0917 36.8887 21.526 36.8785C22.0727 36.8581 22.6246 36.8887 23.1764 36.8683C23.5289 36.8581 23.6618 36.996 23.6566 37.3537C23.6413 38.7741 23.6413 40.1945 23.6566 41.6149C23.6618 42.0288 23.4676 42.1156 23.1099 42.1054C22.5837 42.0901 22.0574 42.1156 21.5311 42.0952C21.0968 42.0748 20.9027 42.2383 20.9078 42.6879C20.9231 44.0827 20.918 45.4827 20.9078 46.8776C20.9027 47.2812 21.0611 47.4652 21.4749 47.4549C22.0012 47.4396 22.5275 47.4652 23.0537 47.4498C23.4472 47.4396 23.6566 47.5725 23.6515 47.9965C23.6413 49.371 23.6413 50.7454 23.6515 52.1198C23.6566 52.5388 23.4676 52.6921 23.0691 52.6818C22.5173 52.6665 21.9705 52.6869 21.4187 52.6767C21.0968 52.6716 20.9027 52.7431 20.9078 53.1315C20.918 54.5723 20.918 56.0183 20.9078 57.4591C20.9078 57.781 21.0304 57.9138 21.3523 57.9087C21.9501 57.8985 22.5428 57.9241 23.1406 57.9036C23.5238 57.8883 23.6771 58.0262 23.6618 58.4197C23.6362 58.9459 23.672 59.4722 23.6515 59.9985C23.6362 60.3715 23.7588 60.5656 24.1574 60.5247C24.3158 60.5094 24.4793 60.5247 24.6376 60.5247C33.5484 60.5247 42.4592 60.5247 51.3699 60.5247C52.5297 60.5247 52.5297 60.5247 52.5297 59.3342C52.5246 57.7095 52.683 57.9241 51.094 57.9036C49.7554 57.8883 49.9291 58.0927 49.9189 56.7489C49.9086 54.7767 49.9342 52.8096 49.9035 50.8373C49.8933 50.2293 50.1028 49.9841 50.6955 50.0607C50.7159 50.0658 50.7415 50.0607 50.7619 50.0607C52.5246 50.0505 52.5246 50.0505 52.5246 48.3235C52.5246 46.4688 52.5093 44.6141 52.5349 42.7594C52.54 42.2587 52.4173 42.085 51.886 42.085C49.9137 42.085 49.9137 42.0645 49.9137 40.1128C49.9137 38.396 49.9291 36.6742 49.9035 34.9574C49.8933 34.4362 50.0108 34.191 50.5831 34.2472C51.0582 34.2932 51.5436 34.2472 52.0239 34.2625C52.3611 34.2727 52.5349 34.1706 52.5246 33.7976C52.5042 33.2253 52.5093 32.6531 52.5246 32.0808C52.5349 31.667 52.3458 31.5035 51.9422 31.5137C51.4159 31.529 50.8896 31.5086 50.3634 31.5188C50.0415 31.5239 49.9137 31.3962 49.9137 31.0743C49.9188 28.7597 49.9189 26.4452 49.9086 24.1357C49.9086 23.7576 50.0824 23.6657 50.4145 23.6759C50.9407 23.6912 51.467 23.6657 51.9933 23.6861C52.3611 23.7014 52.5451 23.589 52.5297 23.1854C52.5093 22.6387 52.5093 22.0869 52.5297 21.5351C52.54 21.1672 52.3816 21.0548 52.0341 21.065C51.5079 21.0803 50.9816 21.0446 50.4553 21.0752C50.0262 21.1008 49.8729 20.9219 49.9137 20.5132C49.9751 19.8336 49.786 19.1388 50.0415 18.4745C51.8298 18.4745 53.6129 18.4745 55.4012 18.4745C55.4114 19.0621 55.3092 19.6446 55.3246 20.2322C55.3348 20.7022 55.529 20.8708 55.9837 20.8759C56.5457 20.8862 57.118 20.7738 57.6698 20.9832C57.6953 21.0088 57.726 21.0343 57.7515 21.065C57.7515 22.8073 57.7566 24.5547 57.7566 26.297C57.1946 26.6138 56.561 26.5269 55.9581 26.578C55.5238 26.6138 55.3399 26.7415 55.3399 27.1758C55.345 28.3612 55.3501 29.5466 55.3399 30.7268C55.3348 31.2173 55.5596 31.3348 56.0143 31.3297C56.5917 31.3246 57.1997 31.1509 57.7413 31.5188C57.7873 31.5648 57.8333 31.6108 57.8793 31.6567C57.9968 32.5049 58.0019 33.3479 57.8537 34.191C57.818 34.2676 57.7566 34.3238 57.6851 34.3596C57.1537 34.5435 56.5968 34.4516 56.0552 34.4618C55.5749 34.4669 55.345 34.6559 55.345 35.1567C55.3501 36.3012 55.3501 37.4406 55.345 38.5851C55.3399 39.0807 55.5647 39.2748 56.0501 39.285C56.5968 39.2953 57.1486 39.2033 57.6851 39.3821C57.7618 39.423 57.818 39.4792 57.8588 39.5558C58.0581 40.2047 57.9508 40.8741 57.961 41.5332C57.9763 42.3813 57.9712 43.2244 57.961 44.0725C57.9559 44.6397 57.6851 44.9105 57.118 44.9156C56.7297 44.9207 56.3413 44.9207 55.953 44.9309C55.5596 44.9462 55.3757 45.1404 55.3655 45.5287C55.3195 47.4294 55.2939 47.225 56.8421 47.2455C57.8128 47.2608 57.9763 47.409 57.961 48.3644C57.9406 49.7593 58.0326 51.1541 57.8895 52.5439C57.8588 52.6205 57.8128 52.6869 57.7515 52.738C57.2099 52.9884 56.6326 52.8658 56.0705 52.8709C55.5494 52.8811 55.3552 53.0957 55.3399 53.6117C55.2939 55.0832 55.2786 55.0781 56.7399 55.0884C57.0567 55.0884 57.3786 55.0628 57.6851 55.1701C57.7618 55.2059 57.8282 55.257 57.8793 55.3234C58.0632 55.6453 57.9661 55.9927 57.9661 56.3299C57.9712 57.4233 57.9712 58.5116 57.9661 59.605C57.9661 59.9218 57.9866 60.2488 57.7669 60.5145C57.3377 60.8211 56.8421 60.6831 56.372 60.7036C55.4779 60.7444 55.3757 60.8517 55.3399 61.7561C55.3195 62.2006 55.5034 62.6605 55.2786 63.0947C54.502 63.0999 53.7202 63.1101 52.9436 63.1101C41.7694 63.1101 30.6003 63.1101 19.4261 63.1101C19.0122 63.1101 18.6035 63.0999 18.1896 63.0896C18.44 62.359 18.2816 61.6079 18.2918 60.8671C18.2969 60.5401 18.0108 60.4992 17.7451 60.4992C17.0655 60.4992 16.386 60.4941 15.7013 60.4941C15.7013 58.7569 15.6962 57.0146 15.6962 55.2774C15.7269 55.2519 15.7524 55.2212 15.7831 55.1957C16.3094 54.9759 16.8612 55.0884 17.4028 55.0781C17.8882 55.0679 18.1079 54.8686 18.1027 54.3782C18.0976 53.2183 18.0976 52.0534 18.1027 50.8936C18.1079 50.4184 17.8728 50.26 17.4283 50.2549C16.8867 50.2498 16.3349 50.3315 15.7984 50.168C15.7218 50.1323 15.6605 50.0812 15.6094 50.0096C15.4101 49.141 15.4459 48.2673 15.5838 47.3936C15.6196 47.317 15.6758 47.2608 15.7524 47.2199C16.2991 47.1177 16.8407 47.2557 17.3925 47.2455C17.8677 47.2352 18.113 47.0922 18.1079 46.571C18.0925 45.3601 18.0976 44.1441 18.1079 42.9331C18.113 42.4631 17.8984 42.2842 17.4436 42.2791C16.8969 42.274 16.3451 42.3558 15.8035 42.1974C15.7269 42.1616 15.6656 42.1105 15.6145 42.039C15.4101 41.2164 15.4561 40.3938 15.5787 39.5661C15.6094 39.4894 15.6656 39.4281 15.732 39.3821C16.3042 39.1675 16.902 39.285 17.4896 39.2697C17.9086 39.2595 18.0925 39.1113 18.1181 38.6668C18.2049 37.0778 18.2049 37.0676 16.6261 37.0522C16.3298 37.0471 16.0334 37.0727 15.7524 36.9449C15.6758 36.899 15.6247 36.8428 15.5889 36.7661C15.4101 35.1056 15.4561 33.4399 15.5634 31.7794C15.5889 31.7027 15.6349 31.6312 15.6911 31.575C16.151 31.2429 16.6874 31.3042 17.2086 31.294C18.0772 31.2786 18.1079 31.2531 18.113 30.4203C18.1232 29.0867 18.1232 29.0867 16.759 29.0765C16.4167 29.0765 16.0743 29.1174 15.7473 28.9692C15.6758 28.9232 15.6196 28.8619 15.5838 28.7853C15.4254 27.1145 15.4305 25.4437 15.5787 23.7679C15.6145 23.6861 15.6656 23.6248 15.7371 23.5737C16.1714 23.3744 16.6364 23.4562 17.086 23.4511C18.0874 23.4357 18.1027 23.4306 18.1027 22.4037C18.1027 21.3307 18.1027 20.2577 18.1027 19.1899C18.1027 18.9395 18.0517 18.6891 18.1845 18.4541C19.9932 18.4745 21.8224 18.4745 23.6515 18.4745Z" fill="#FED16D"/>
<path d="M18.1639 18.4741C18.3631 18.8113 18.2916 19.1843 18.2916 19.542C18.3018 20.6814 18.2661 21.8157 18.3069 22.955C18.3223 23.5018 18.1843 23.7419 17.5967 23.6959C16.9632 23.6448 16.3245 23.6857 15.6858 23.6857C15.4968 23.5171 15.4814 23.282 15.4763 23.0521C15.4559 21.6368 15.4661 20.2215 15.4712 18.8062C15.4712 18.6887 15.5019 18.5814 15.5632 18.4792C16.4267 18.4792 17.2953 18.4792 18.1639 18.4741Z" fill="#F9B857"/>
<path d="M15.5581 18.4793C15.7625 18.8625 15.6757 19.2764 15.6757 19.68C15.6859 21.0136 15.6808 22.3523 15.6808 23.6858C14.8173 24.0281 13.9538 24.0128 13.0852 23.7011L13.0494 23.6654C12.7786 23.1698 12.7786 22.6741 13.0443 22.1785C13.0546 21.1311 13.0801 20.0837 13.0597 19.0363C13.0494 18.5866 13.1976 18.4283 13.6421 18.4538C14.2808 18.4845 14.9195 18.4742 15.5581 18.4793Z" fill="#EB9638"/>
<path d="M13.0444 22.1786C13.0444 22.6742 13.0496 23.1698 13.0496 23.6654C12.2321 23.6654 11.4197 23.6705 10.6022 23.6705C10.597 22.1377 10.6124 20.5998 10.5817 19.0669C10.5715 18.5713 10.7452 18.4129 11.2153 18.4538C11.5321 18.4845 11.8642 18.51 12.1758 18.4487C12.8758 18.3159 12.9627 18.6275 12.9576 19.2458C12.9423 20.2217 12.8145 21.2078 13.0444 22.1786Z" fill="#7A3D10"/>
<path d="M60.3779 21.0543C59.4991 21.0594 58.6254 21.0645 57.7466 21.0645C57.3992 20.201 57.4043 19.3324 57.7415 18.4638C58.421 18.4587 59.1006 18.4741 59.7801 18.4434C60.2144 18.423 60.3933 18.5558 60.3728 19.0105C60.3422 19.6952 60.3728 20.3747 60.3779 21.0543Z" fill="#EB9638"/>
<path d="M57.7412 18.4692C57.7412 19.3378 57.7463 20.2013 57.7463 21.0699C57.0361 21.0699 56.3259 21.075 55.6157 21.0699C55.442 21.0699 55.1661 21.1108 55.1712 20.8758C55.1865 20.0736 54.8851 19.2356 55.396 18.4795C56.1777 18.4743 56.9595 18.4743 57.7412 18.4692Z" fill="#F9B858"/>
<path d="M62.82 21.0597C62.0433 21.0546 61.2667 21.0443 60.4901 21.0392C60.4901 20.375 60.5105 19.7159 60.485 19.0517C60.4696 18.6225 60.5821 18.4539 61.0521 18.4488C62.8251 18.4232 62.8251 18.4028 62.8251 20.1706C62.8302 20.467 62.8251 20.7633 62.82 21.0597Z" fill="#793D14"/>
<path d="M65.4413 78.6728C65.2369 78.8976 64.9712 78.8057 64.7311 78.8057C46.1431 78.8108 27.5603 78.8108 8.97239 78.8057C8.73225 78.8057 8.46146 78.8925 8.25708 78.6779C8.67094 78.3918 9.141 78.5655 9.58552 78.54C10.2038 78.5093 10.822 78.5247 11.4402 78.5349C11.9205 78.54 12.3497 78.4123 12.8146 78.2488C13.4635 78.0239 14.1737 77.9831 14.8942 78.3663C15.5533 78.7188 16.3657 78.6933 17.0452 78.305C17.8218 77.8604 18.5474 78.0597 19.2831 78.3561C19.9882 78.6422 20.7597 78.7342 21.3729 78.3561C22.1955 77.8502 22.9159 78.0853 23.6721 78.3356C24.4487 78.5911 25.1896 78.7137 25.9458 78.259C26.5589 77.8911 27.2793 78.0188 27.8618 78.2283C28.5771 78.4838 29.2975 78.4225 30.0026 78.5042C31.6683 78.7086 33.3339 78.3305 35.0251 78.4736C36.0163 78.5553 37.0791 78.4531 38.101 78.4531C39.1893 78.4531 40.2878 78.3969 41.3812 78.4889C42.633 78.5962 43.9001 78.5758 45.1519 78.4991C45.6628 78.4685 46.1125 78.0137 46.7052 78.1108C47.1395 78.1823 47.5329 78.2232 47.9723 78.4174C48.5956 78.6933 49.408 78.7188 50.0722 78.2845C50.7927 77.8145 51.5233 78.0393 52.1926 78.3152C52.8007 78.5655 53.9809 78.6269 54.5174 78.259C55.2072 77.7889 55.9276 78.0648 56.5816 78.2896C57.4144 78.5758 58.1604 78.6933 58.9728 78.2283C59.5501 77.8962 60.2552 78.0239 60.8326 78.2079C61.6092 78.4582 62.391 78.3867 63.1676 78.4889C63.9238 78.586 64.7004 78.3969 65.4413 78.6728Z" fill="#7A3E11"/>
<path d="M5.08405 72.8842C4.82859 72.5113 4.96654 72.0923 4.97676 71.704C4.99209 71.2186 4.80304 71.0755 4.34319 71.096C3.73518 71.1266 3.12716 71.1011 2.51404 71.096C2.50382 70.2274 2.48849 69.3588 2.47827 68.4902C3.16293 68.4851 3.8527 68.5055 4.53735 68.4748C4.97165 68.4544 5.13515 68.5719 5.11982 69.042C5.08406 70.3244 5.09427 71.6069 5.08405 72.8842Z" fill="#FAB856"/>
<path d="M26.8857 77.2678C27.3598 77.2678 27.7441 77.2495 27.7441 77.2269C27.7441 77.2043 27.3598 77.186 26.8857 77.186C26.4117 77.186 26.0273 77.2043 26.0273 77.2269C26.0273 77.2495 26.4117 77.2678 26.8857 77.2678Z" fill="#7A3E11"/>
<path d="M59.872 77.2678C60.3461 77.2678 60.7304 77.2495 60.7304 77.2269C60.7304 77.2043 60.3461 77.186 59.872 77.186C59.398 77.186 59.0137 77.2043 59.0137 77.2269C59.0137 77.2495 59.398 77.2678 59.872 77.2678Z" fill="#7A3E11"/>
<path d="M68.3482 7.87252C69.2015 7.94405 70.0701 7.74478 70.9182 7.99514C70.9284 8.82797 70.9336 9.6608 70.9438 10.4885C70.2387 10.4936 69.5285 10.4885 68.8234 10.5141C68.4248 10.5294 68.3124 10.3659 68.3278 9.99291C68.3482 9.28782 68.338 8.58272 68.3482 7.87252Z" fill="#EB9737"/>
<path d="M2.50895 7.87256C3.14762 7.87767 3.78629 7.88789 4.42496 7.87767C4.69065 7.87256 4.92057 7.91343 5.08407 8.13825C5.09429 8.77181 5.09429 9.40537 5.11984 10.0389C5.13517 10.3864 5.01765 10.5345 4.65488 10.5243C3.92935 10.4988 3.20893 10.5039 2.4834 10.4988C2.49362 9.61486 2.49873 8.74626 2.50895 7.87256Z" fill="#EA9738"/>
<path d="M70.9437 68.4952C70.9386 69.9105 70.9284 71.3309 70.9233 72.7462C70.4839 72.6184 70.6167 72.2352 70.6116 71.9542C70.6014 71.4842 70.397 71.3258 69.9423 71.3053C69.4109 71.2849 68.8438 71.4637 68.3533 71.1061C68.3482 70.401 68.3584 69.6908 68.3277 68.9857C68.3124 68.6025 68.4299 68.4594 68.8284 68.4747C69.5284 68.5054 70.2335 68.4901 70.9437 68.4952Z" fill="#FAB758"/>
<path d="M68.3484 71.1062C68.936 71.1062 69.5235 71.1471 70.106 71.096C70.6936 71.05 70.852 71.285 70.8162 71.8317C70.7958 72.1281 70.6987 72.4653 70.9235 72.7463C70.9286 73.0733 70.9337 73.3952 70.9388 73.7222C70.2337 73.7222 69.5286 73.7069 68.8236 73.7324C68.4301 73.7477 68.3075 73.5996 68.3177 73.2215C68.3484 72.5164 68.3433 71.8113 68.3484 71.1062Z" fill="#EB9638"/>
<path d="M57.7463 52.6917C57.7463 51.1588 57.7309 49.6209 57.7514 48.0881C57.7565 47.618 57.6237 47.4597 57.1332 47.4494C55.0536 47.429 55.0639 47.4086 55.1201 45.3648C55.1303 44.905 55.2733 44.6853 55.7587 44.7108C56.239 44.7364 56.7193 44.6955 57.1996 44.721C57.6288 44.7466 57.7514 44.5677 57.7463 44.159C57.7309 42.6006 57.7412 41.0474 57.7412 39.489C58.6098 39.1467 59.4835 39.1467 60.3521 39.4941C60.3878 39.4992 60.4236 39.5095 60.4594 39.5197C60.4747 41.0831 60.5667 42.6466 60.4134 44.205C60.398 44.3787 60.4696 44.5575 60.5002 44.7312C60.4594 44.7772 60.4185 44.8181 60.3776 44.8641C59.79 45.0123 59.1973 44.8794 58.6047 44.905C58.155 44.9254 57.9098 45.0889 57.9353 45.5641C57.966 46.0852 57.8485 46.6166 58.0375 47.1275C58.5433 47.5465 58.7682 48.0268 58.3849 48.6604C58.293 48.8136 58.2981 49.0231 58.3339 49.1968C58.5229 50.183 58.1244 51.1384 58.1806 52.1194C58.1908 52.3238 58.0733 52.5077 57.9353 52.6661C57.8842 52.7223 57.8178 52.7274 57.7463 52.6917Z" fill="#F8B857"/>
<path d="M60.352 39.4942C59.4834 39.4942 58.6097 39.4891 57.7411 39.4891C57.5572 39.2898 57.5265 39.0445 57.5265 38.7891C57.5163 37.5168 57.5112 36.2446 57.5265 34.9673C57.5316 34.7169 57.5572 34.4665 57.7462 34.2673C58.6148 33.9198 59.4783 33.9249 60.352 34.257C60.352 36.0045 60.352 37.7519 60.352 39.4942Z" fill="#EC9538"/>
<path d="M57.7361 31.5237C57.0106 31.5492 56.2799 31.4419 55.5544 31.585C55.2223 31.6514 55.1405 31.4624 55.1354 31.2069C55.1303 29.7252 55.1303 28.2435 55.1354 26.7617C55.1354 26.5063 55.2325 26.2559 55.5237 26.3275C56.2748 26.5216 57.0055 26.1588 57.7514 26.2968C57.7463 28.0442 57.7412 29.7865 57.7361 31.5237Z" fill="#F9B857"/>
<path d="M59.0849 27.4412C59.0492 26.8945 59.2536 26.6135 59.7798 26.731C60.3316 26.8536 60.3572 27.1704 60.2652 27.7018C60.1426 28.4324 60.1273 29.2091 60.2856 29.9448C60.3725 30.3536 60.2908 30.5579 59.9586 30.7879C59.4886 31.1149 59.0339 31.3806 58.4514 31.2017C58.2623 31.1455 58.2777 30.936 58.3134 30.7879C58.574 29.6842 58.3696 28.5602 58.4412 27.4514C58.4565 27.2266 58.3083 26.8639 58.6506 26.8281C58.9419 26.7923 58.947 27.1551 59.0849 27.4412Z" fill="#EC9537"/>
<path d="M60.352 34.2621C59.4834 34.2672 58.6148 34.2723 57.7463 34.2723C57.8127 33.4037 57.5981 32.5249 57.874 31.6665C59.2433 31.6665 60.6126 31.6665 62.033 31.6665C61.8644 31.8607 61.7009 31.7891 61.563 31.7891C60.3623 31.8147 60.5104 31.6256 60.4849 32.9132C60.4747 33.3628 60.5973 33.8329 60.352 34.2621Z" fill="#F9B856"/>
<path d="M57.8791 52.6869C57.874 52.3292 58.1703 51.9818 57.8893 51.6139C57.8484 51.5577 57.8535 51.3993 57.8995 51.3533C58.5126 50.7504 58.0528 50.0198 58.1448 49.3607C58.201 48.9621 58.1448 48.5738 58.39 48.1855C58.7017 47.6848 58.1448 47.5724 57.8791 47.3425C58.7732 47.0104 59.652 46.9797 60.5053 47.46V47.4549C60.3929 48.9928 60.6279 50.5409 60.3827 52.0789C60.352 52.2679 60.444 52.4774 60.4797 52.6767L60.4695 52.6818C59.6112 53.0394 58.7426 53.0343 57.8791 52.6869Z" fill="#F9B857"/>
<path d="M13.0597 47.3168C13.0546 45.5847 13.0495 43.8577 13.0393 42.1256C13.9181 41.7373 14.7969 41.7731 15.6757 42.1052C15.8597 42.3045 15.8903 42.5497 15.8903 42.8052C15.9057 44.0774 15.9006 45.3548 15.8903 46.627C15.8903 46.8825 15.8597 47.1277 15.6809 47.3321C15.5531 47.4598 15.4152 47.608 15.2261 47.5927C14.6181 47.5416 14.0152 47.5467 13.4072 47.5824C13.2641 47.5927 13.167 47.4751 13.0904 47.3576L13.0597 47.3168Z" fill="#EB9637"/>
<path d="M15.6811 42.105C14.8022 42.1101 13.9234 42.1203 13.0446 42.1254C12.922 42.1101 12.7943 42.0999 12.6716 42.0845C12.968 41.9517 13.1008 41.7524 13.0804 41.3999C13.0446 40.7612 13.0651 40.1174 13.0651 39.4788C13.9388 39.1569 14.8176 39.1313 15.6913 39.489C15.6811 40.3627 15.6811 41.2364 15.6811 42.105Z" fill="#F9B857"/>
<path d="M15.6757 31.6512C15.6757 33.3935 15.6809 35.1358 15.6809 36.8781C14.8072 37.2357 13.9334 37.2102 13.0546 36.8883C13.0546 35.1358 13.0546 33.3884 13.0495 31.6359C13.0597 31.5899 13.0546 31.549 13.0393 31.5081C13.0546 31.4672 13.0597 31.4264 13.0495 31.3855C13.0597 30.8388 13.0751 30.2972 13.0853 29.7505C13.5145 29.9191 13.3663 30.3023 13.397 30.6089C13.4225 30.9001 13.4123 31.1964 13.3305 31.4417C14.1123 31.5337 14.9196 31.2578 15.6757 31.6512Z" fill="#FBB757"/>
<path d="M15.6809 55.3029C14.8072 55.2978 13.9335 55.2978 13.0547 55.2926C13.0547 53.5606 13.0547 51.8285 13.0547 50.0913L13.0905 50.0555C13.959 49.749 14.8225 49.7336 15.686 50.0709C15.8648 50.2701 15.8955 50.5205 15.8955 50.776C15.9057 52.0482 15.9057 53.3255 15.8955 54.5978C15.8955 54.8532 15.8648 55.0985 15.6809 55.3029Z" fill="#EC9637"/>
<path d="M13.0852 23.7014C13.9487 23.6963 14.8122 23.6911 15.6808 23.686C15.6808 25.4283 15.6757 27.1706 15.6757 28.9129C14.8275 29.2706 13.9538 29.1275 13.0852 29.0356C12.9779 28.8874 12.8144 28.9129 12.6663 28.8925C13.0086 28.7545 13.075 28.494 13.0699 28.1414C13.0597 26.6597 13.0801 25.1831 13.0852 23.7014Z" fill="#FAB857"/>
<path d="M57.7514 60.5295C57.7514 58.7872 57.7463 57.0398 57.7463 55.2975C58.6609 54.9654 59.5704 54.9501 60.4799 55.3077H60.485C60.4799 57.0398 60.4747 58.7719 60.4696 60.504C59.5653 60.5142 58.6558 60.5244 57.7514 60.5295Z" fill="#F9B757"/>
<path d="M15.6859 50.0707C14.8224 50.0655 13.9538 50.0604 13.0903 50.0553C13.0903 49.1561 13.0903 48.2568 13.0903 47.3576C13.9538 47.3627 14.8224 47.4393 15.6808 47.332C15.6859 48.2466 15.6859 49.1612 15.6859 50.0707Z" fill="#F9B857"/>
<path d="M13.0598 36.8886C13.9335 36.8835 14.8072 36.8835 15.686 36.8784C16.0284 37.747 16.0284 38.6207 15.686 39.4893C14.8123 39.4842 13.9386 39.4842 13.0598 39.4791C13.0598 38.6207 13.0598 37.7572 13.0598 36.8886Z" fill="#EB9638"/>
<path d="M60.5107 47.4547C59.6421 47.2963 58.7582 47.3269 57.8845 47.3372C57.5983 46.5861 57.8027 45.8095 57.772 45.0482C57.7669 44.8744 57.91 44.7365 58.0837 44.7416C58.8501 44.7569 59.6319 44.5781 60.388 44.8693C60.5771 45.7226 60.3778 46.5963 60.5107 47.4547Z" fill="#EC9638"/>
<path d="M60.4797 55.3079C59.5702 55.3027 58.6556 55.2976 57.7462 55.2976C57.3987 54.429 57.3987 53.5605 57.7462 52.6919C57.7922 52.6919 57.8381 52.6867 57.879 52.6867C58.7425 52.6867 59.606 52.6816 60.4695 52.6816C60.4746 53.5553 60.4797 54.429 60.4797 55.3079Z" fill="#EC9537"/>
<path d="M13.0852 29.0354C13.9385 28.7698 14.8122 28.9792 15.6757 28.9128C16.0231 29.8274 16.0231 30.742 15.6757 31.6514C15.5173 31.6514 15.3589 31.6566 15.2005 31.6514C14.5925 31.6259 13.8874 31.866 13.4071 31.5441C12.891 31.2018 13.3202 30.4712 13.1925 29.9245C13.1772 29.8632 13.1261 29.807 13.0954 29.7508C13.0903 29.5157 13.0903 29.2756 13.0852 29.0354Z" fill="#EC9538"/>
<path d="M55.2579 63.1149C55.0485 62.4763 55.1455 61.8172 55.1353 61.1683C55.1302 60.6471 55.5185 60.5449 55.917 60.5296C56.5251 60.5092 57.1382 60.5296 57.7462 60.5296C57.7462 61.2091 57.7207 61.8887 57.7513 62.5682C57.7718 63.0281 57.5878 63.1609 57.1586 63.1405C56.5251 63.1098 55.8915 63.12 55.2579 63.1149Z" fill="#F7B857"/>
<path d="M15.686 47.3319C15.686 45.5896 15.6809 43.8473 15.6809 42.105C16.3656 42.105 17.0502 42.1204 17.7349 42.0999C18.1334 42.0846 18.3071 42.2021 18.302 42.6364C18.2816 44.0721 18.2867 45.5079 18.302 46.9487C18.3071 47.3268 18.1845 47.4852 17.7911 47.475C17.086 47.4443 16.3809 47.5057 15.686 47.3319Z" fill="#F9B857"/>
<path d="M15.6809 55.2974C15.6809 53.5551 15.686 51.8128 15.686 50.0705C16.3911 50.0705 17.1013 50.0807 17.8064 50.0705C18.1487 50.0654 18.302 50.1829 18.2969 50.5456C18.2867 51.9354 18.2816 53.3303 18.2969 54.72C18.302 55.1799 18.0874 55.3178 17.6633 55.3025C17.0042 55.2871 16.3451 55.2974 15.6809 55.2974Z" fill="#F9B856"/>
<path d="M57.7462 34.2724C57.7462 36.0096 57.7462 37.7519 57.7462 39.4891C57.082 39.4891 56.4178 39.4789 55.7587 39.4942C55.3346 39.5044 55.1251 39.3563 55.1302 38.9015C55.1455 37.5526 55.1455 36.2038 55.1302 34.8549C55.1251 34.4002 55.3346 34.252 55.7587 34.2622C56.4178 34.2826 57.082 34.2724 57.7462 34.2724Z" fill="#F8B957"/>
<path d="M15.6755 31.6515C15.6755 30.7369 15.6755 29.8223 15.6755 28.9128C16.3398 28.9128 17.004 28.9231 17.6631 28.9077C18.0872 28.8975 18.312 29.0406 18.2915 29.4953C18.266 30.1135 18.4806 30.8595 18.1996 31.3091C17.8777 31.8303 17.0653 31.4318 16.4777 31.5237C16.212 31.5646 15.9463 31.6106 15.6755 31.6515Z" fill="#F9B857"/>
<path d="M15.6809 39.4942C15.6809 38.6256 15.6809 37.7519 15.6809 36.8833C16.34 36.8833 17.0042 36.8987 17.6633 36.8782C18.1436 36.8629 18.3173 37.0673 18.2969 37.5322C18.2765 38.0074 18.2714 38.4928 18.2969 38.968C18.3225 39.4023 18.1283 39.5147 17.7298 39.5045C17.0502 39.4789 16.3656 39.4942 15.6809 39.4942Z" fill="#F9B857"/>
<path d="M57.7463 52.6917C57.7463 53.5603 57.7463 54.4289 57.7463 55.2975C57.0616 55.2975 56.3769 55.277 55.6923 55.3077C55.2222 55.3281 55.0945 55.134 55.1251 54.7048C55.1507 54.25 55.1507 53.7902 55.1251 53.3355C55.1047 52.8705 55.2784 52.6661 55.7587 52.6815C56.4229 52.707 57.082 52.6917 57.7463 52.6917Z" fill="#F7B957"/>
<rect x="27" y="27" width="20" height="2" fill="#7A3D12"/>
<rect x="27" y="32" width="20" height="2" fill="#7A3D12"/>
<rect x="27" y="37" width="20" height="2" fill="#7A3D12"/>
<rect x="27" y="42" width="20" height="2" fill="#7A3D12"/>
<rect x="27" y="47" width="20" height="2" fill="#7A3D12"/>
<rect x="27" y="52" width="20" height="2" fill="#7A3D12"/>
</svg>
