<svg width="1920" height="375" viewBox="0 0 1920 375" fill="none" xmlns="http://www.w3.org/2000/svg">
<rect width="1920" height="375" fill="#5FDBFD"/>
<g clip-path="url(#clip0_1256_6076)">
<path d="M1336.04 948.876H1466.93V938.808H1507.2V928.74H1537.4V918.671H1557.54V908.603H1577.68V898.535H1587.75V888.466H1607.88V878.398H1617.95V868.33H1638.09V858.261H1648.16V848.193H1658.22V838.125H1668.29V817.988H1678.36V807.92H1688.43V787.783H1698.5V777.715H1708.57V757.578H1718.63V737.441H1728.7V707.236H1738.77V666.963H1748.84V536.075H1738.77V495.801H1728.7V465.596H1718.63V445.46H1708.57V425.323H1698.5V415.255H1688.43V395.118H1678.36V385.05H1668.29V364.913H1658.22V354.845H1648.16V344.776H1638.09V334.708H1617.95V324.64H1607.88V314.571H1587.75V304.503H1577.68V294.435H1557.54V284.366H1537.4V274.298H1507.2V264.23H1466.93V254.161H1336.04V264.23H1295.76V274.298H1265.56V284.366H1245.42V294.435H1225.29V304.503H1215.22V314.571H1195.08V324.64H1185.01V334.708H1164.88V344.776H1154.81V354.845H1144.74V364.913H1134.67V385.05H1124.6V395.118H1114.53V415.255H1104.47V425.323H1094.4V445.46H1084.33V465.596H1074.26V495.801H1064.19V536.075H1054.12V666.963H1064.19V707.236H1074.26V737.441H1084.33V757.578H1094.4V777.715H1104.47V787.783H1114.53V807.92H1124.6V817.988H1134.67V838.125H1144.74V848.193H1154.81V858.261H1164.88V868.33H1185.01V878.398H1195.08V888.466H1215.22V898.535H1225.29V908.603H1245.42V918.671H1265.56V928.74H1295.76V938.808H1336.04V948.876Z" fill="#068940"/>
<path fill-rule="evenodd" clip-rule="evenodd" d="M1366.24 334.708H1376.31V344.777H1386.38V354.845H1356.17V344.777H1366.24V334.708ZM1346.1 354.845H1396.45V364.914H1346.1V354.845ZM1336.04 385.05H1346.1V374.982H1356.17V364.914H1386.38V374.982H1396.45V385.05H1406.52V395.118H1336.04V385.05Z" fill="#0B5027"/>
<path d="M1336.12 360.071H1346.19V352.936H1356.25V345.801H1376.39V338.666H1396.52V331.526H1416.66V324.391H1436.79V317.256H1467V310.121H1487.13V302.986H1517.32V295.85H1557.59V288.71H1607.93V281.575H1678.39V274.44H1799.2V281.575H1869.67V288.71H1920V295.85V495.66H510.641H500.576H-12.8362V295.85H27.433V302.986H57.6294V310.121H77.7675V317.256H107.964V324.391H128.102V331.526H148.233V338.666H168.364V345.801H188.502V352.936H198.567V360.071H218.698V367.207H238.837V374.347H248.902V381.481H258.967V388.616H279.098L279.103 388.617V395.751H289.171V402.887H299.237V410.022H309.302V410.025H309.303V417.161H319.37V424.297L329.433 424.297L329.437 424.297V431.432H339.498V431.433H349.571L349.571 438.567L349.571 438.569H369.704V445.705H409.972V452.842H460.306V445.707H510.64V438.567H550.909V431.432H581.106V424.297H601.244V417.162H631.44V410.027L631.441 410.023H651.579L651.578 402.892L651.579 402.888H671.71L671.709 395.751H681.776V388.618H691.84V388.616H701.914V381.483H711.978V381.481H722.044V374.346L722.045 374.342H742.175V367.211H742.183V367.207H762.314L762.313 360.073L792.517 360.072V352.937H812.648V345.802H842.845V338.667H883.114V331.526H933.448V324.391H1003.91V317.256H1124.72V324.391H1195.19V331.526H1245.52V338.667H1285.79V345.802H1315.99V352.937H1336.12V360.071Z" fill="#8DD122"/>
<path fill-rule="evenodd" clip-rule="evenodd" d="M1748.84 213.889H1758.91V223.957H1768.97V234.025H1779.04V244.094H1728.7V234.025H1738.77V223.957H1748.84V213.889ZM1718.63 264.23H1789.11V274.299H1718.63V264.23ZM1779.04 254.162H1728.7V264.23H1779.04V254.162ZM1738.77 244.094H1768.97V254.162H1738.77V244.094Z" fill="#068940"/>
<path fill-rule="evenodd" clip-rule="evenodd" d="M1648.15 223.957H1658.22V234.025H1668.29V244.093H1638.09V234.025H1648.15V223.957ZM1628.02 244.093H1678.36V254.162H1628.02V244.093ZM1617.95 274.298H1628.02V264.23H1678.36V274.298H1688.43V284.366H1617.95V274.298ZM1638.09 254.162H1668.29V264.23H1638.09V254.162Z" fill="#068940"/>
<path fill-rule="evenodd" clip-rule="evenodd" d="M1074.26 274.298H1084.33V284.367H1074.26V274.298ZM1094.4 284.367H1064.19V294.435H1054.12V304.503H1064.19V314.572H1094.4V304.503H1104.46V294.435H1094.4V284.367ZM1044.06 324.64H1114.53V334.709H1044.06V324.64ZM1104.46 314.572H1054.12V324.64H1104.46V314.572Z" fill="#068940"/>
<path fill-rule="evenodd" clip-rule="evenodd" d="M963.509 284.367H973.577V294.435H983.645V304.503H993.713V314.571H943.372V304.503H953.44V294.435H963.509V284.367ZM933.303 334.708H943.372V324.64H993.713V334.708H1003.78V344.777H933.303V334.708ZM953.44 314.571H983.645V324.64H953.44V314.571Z" fill="#068940"/>
<path fill-rule="evenodd" clip-rule="evenodd" d="M1487.06 234.025H1476.99V264.23H1487.06V264.23H1497.13V254.162H1487.06V254.162H1497.13V244.093H1487.06V234.025ZM1476.99 254.162H1466.93V264.23H1476.99V254.162Z" fill="#0B5027"/>
<path fill-rule="evenodd" clip-rule="evenodd" d="M1376.31 223.957H1366.24V234.025H1356.17V244.093H1366.24V244.093H1356.17V254.162H1366.24V254.162H1376.31V223.957ZM1386.38 244.093H1376.31V254.162H1386.38V244.093ZM1346.11 244.093H1356.17V254.162H1346.11V244.093Z" fill="#0B5027"/>
<path fill-rule="evenodd" clip-rule="evenodd" d="M1396.45 223.957H1406.52V244.093H1416.58V254.162H1406.52V254.162H1396.45V223.957ZM1396.45 234.025H1386.38V244.093H1396.45V234.025ZM1386.38 244.093H1396.45V254.162H1386.38V244.093Z" fill="#0B5027"/>
</g>
<defs>
<clipPath id="clip0_1256_6076">
<rect width="1921" height="292" fill="white" transform="matrix(-1 0 0 1 1920 83)"/>
</clipPath>
</defs>
</svg>
