<svg width="216" height="60" viewBox="0 0 216 60" fill="none" xmlns="http://www.w3.org/2000/svg">
<g clip-path="url(#clip0_468_6079)">
<rect width="216" height="60" rx="10" fill="#F88125"/>
<path d="M54.3073 26.6152C54.2492 26.0424 54.0044 25.5978 53.5728 25.2815C53.1413 24.9652 52.5562 24.8079 51.8175 24.8095C51.3156 24.8106 50.892 24.8825 50.5467 25.0253C50.2014 25.1634 49.9366 25.3557 49.7525 25.6023C49.5731 25.8489 49.4838 26.1285 49.4844 26.441C49.4755 26.7014 49.5305 26.9286 49.6493 27.1224C49.7728 27.3163 49.9412 27.484 50.1546 27.6256C50.368 27.7624 50.6145 27.8826 50.894 27.9862C51.1736 28.085 51.4721 28.1696 51.7895 28.2399L53.097 28.5496C53.7318 28.6903 54.3145 28.8784 54.8454 29.114C55.3762 29.3496 55.8361 29.6398 56.2251 29.9846C56.6141 30.3294 56.9157 30.7359 57.1297 31.2042C57.3486 31.6725 57.461 32.2096 57.467 32.8157C57.4642 33.7058 57.2387 34.4781 56.7903 35.1325C56.3466 35.7821 55.7038 36.2878 54.8617 36.6495C54.0244 37.0064 53.0139 37.1862 51.8302 37.1887C50.656 37.1913 49.6329 37.0136 48.7609 36.6556C47.8936 36.2977 47.2154 35.7665 46.7262 35.062C46.2417 34.3529 45.9864 33.4751 45.9605 32.4288L48.9363 32.4223C48.9705 32.9099 49.1111 33.3168 49.358 33.643C49.6097 33.9644 49.944 34.2075 50.361 34.3723C50.7828 34.5324 51.2588 34.6118 51.7891 34.6107C52.31 34.6096 52.762 34.5328 53.1452 34.3805C53.5331 34.2281 53.8333 34.0168 54.0458 33.7464C54.2583 33.4761 54.3641 33.1657 54.3633 32.8153C54.3626 32.4886 54.265 32.2142 54.0704 31.9921C53.8805 31.77 53.6007 31.5812 53.2311 31.4257C52.8661 31.2703 52.4184 31.1292 51.8878 31.0025L50.3031 30.6082C49.0762 30.3126 48.1069 29.8483 47.3953 29.2154C46.6837 28.5825 46.3291 27.7286 46.3315 26.6538C46.3248 25.7731 46.5575 25.0032 47.0296 24.344C47.5064 23.6848 48.161 23.1697 48.9936 22.7986C49.8261 22.4274 50.7727 22.2407 51.8333 22.2384C52.9128 22.2361 53.8554 22.4187 54.6612 22.7862C55.4716 23.1538 56.1025 23.6662 56.5537 24.3233C57.005 24.9805 57.2386 25.7423 57.2547 26.6087L54.3073 26.6152ZM66.4734 32.3061L66.4598 26.0419L69.4854 26.0353L69.5091 36.9444L66.6043 36.9507L66.5999 34.9691L66.4863 34.9694C66.2415 35.6091 65.833 36.1238 65.261 36.5133C64.6936 36.9027 64.0004 37.0984 63.1813 37.1002C62.4521 37.1017 61.8102 36.9374 61.2555 36.6072C60.7008 36.2769 60.2665 35.8068 59.9527 35.1967C59.6436 34.5865 59.4858 33.8553 59.4792 33.0031L59.4641 26.0571L62.4897 26.0505L62.5036 32.4567C62.5097 33.1007 62.6836 33.6093 63.0254 33.9826C63.3671 34.3559 63.8244 34.5419 64.3973 34.5407C64.7619 34.5399 65.1026 34.4563 65.4195 34.2899C65.7364 34.1187 65.9915 33.8672 66.1849 33.5354C66.383 33.2035 66.4792 32.7937 66.4734 32.3061ZM71.986 36.939L71.9544 22.3936L74.9799 22.387L74.9918 27.8557L75.0842 27.8555C75.2161 27.5617 75.4072 27.263 75.6575 26.9594C75.9125 26.6511 76.2434 26.3947 76.6501 26.1902C77.0616 25.981 77.5728 25.8757 78.1836 25.8744C78.979 25.8726 79.7134 26.0794 80.3866 26.4946C81.0599 26.905 81.5986 27.5265 82.0029 28.359C82.4071 29.1867 82.6106 30.2255 82.6133 31.4755C82.616 32.6924 82.4217 33.7203 82.0306 34.5592C81.6441 35.3934 81.1152 36.0266 80.4438 36.459C79.7771 36.8865 79.0294 37.1012 78.2008 37.103C77.6137 37.1043 77.114 37.0083 76.7016 36.8151C76.294 36.6219 75.9597 36.3787 75.6986 36.0857C75.4376 35.788 75.238 35.4878 75.1001 35.1851L74.9651 35.1853L74.9689 36.9325L71.986 36.939ZM74.9358 31.478C74.9372 32.1267 75.0284 32.6923 75.2093 33.1749C75.3903 33.6574 75.6516 34.0333 75.9931 34.3024C76.3345 34.5668 76.7491 34.6985 77.2368 34.6975C77.7292 34.6964 78.1456 34.5605 78.4859 34.2899C78.8262 34.0146 79.0835 33.6352 79.2576 33.1519C79.4365 32.6638 79.5252 32.1025 79.5238 31.468C79.5225 30.8383 79.4337 30.2845 79.2574 29.8067C79.0812 29.3289 78.8223 28.9554 78.4809 28.6862C78.1394 28.4171 77.72 28.283 77.2229 28.2841C76.7305 28.2852 76.3141 28.4163 75.9737 28.6775C75.6381 28.9386 75.3809 29.3085 75.202 29.7871C75.0231 30.2657 74.9344 30.8293 74.9358 31.478ZM84.644 36.9115L84.6203 26.0024L87.5038 25.9962L87.508 27.9209L87.6358 27.9206C87.8617 27.2809 88.2394 26.7758 88.7689 26.4053C89.2984 26.0349 89.9325 25.8488 90.6711 25.8472C91.4192 25.8456 92.0564 26.0312 92.5828 26.4042C93.1092 26.7723 93.4607 27.2735 93.6372 27.9075L93.7509 27.9073C93.972 27.2818 94.3734 26.7814 94.955 26.4061C95.5413 26.026 96.2345 25.8351 97.0347 25.8334C98.0527 25.8312 98.8796 26.1537 99.5155 26.801C100.156 27.4436 100.478 28.3567 100.48 29.5404L100.496 36.877L97.4778 36.8836L97.4631 30.1436C97.4618 29.5375 97.2998 29.0833 96.9772 28.781C96.6546 28.4786 96.2518 28.328 95.7688 28.3291C95.2196 28.3302 94.7915 28.5064 94.4845 28.8574C94.1774 29.2037 94.0246 29.661 94.0258 30.2292L94.0403 36.8911L91.107 36.8974L91.0923 30.0935C91.0911 29.5584 90.9363 29.1326 90.6278 28.8161C90.3241 28.4995 89.9237 28.3418 89.4265 28.3428C89.0903 28.3436 88.7875 28.4294 88.518 28.6005C88.2532 28.7668 88.043 29.0016 87.8874 29.305C87.7318 29.6036 87.6544 29.9542 87.6553 30.3566L87.6695 36.9049L84.644 36.9115ZM102.886 36.8718L102.862 25.9628L105.888 25.9562L105.912 36.8653L102.886 36.8718ZM104.379 24.5532C103.929 24.5542 103.543 24.4059 103.221 24.1083C102.903 23.806 102.743 23.4441 102.742 23.0227C102.741 22.606 102.899 22.2482 103.216 21.9492C103.537 21.6455 103.923 21.4931 104.373 21.4922C104.822 21.4912 105.206 21.6419 105.524 21.9442C105.847 22.2418 106.009 22.5989 106.009 23.0156C106.01 23.437 105.85 23.7996 105.529 24.1033C105.212 24.4023 104.829 24.5523 104.379 24.5532ZM114.114 25.9383L114.119 28.2111L107.55 28.2253L107.545 25.9526L114.114 25.9383ZM109.03 23.3357L112.056 23.3292L112.078 33.4996C112.079 33.779 112.122 33.9967 112.207 34.1527C112.293 34.3041 112.411 34.4103 112.563 34.4716C112.719 34.5328 112.899 34.5632 113.103 34.5627C113.245 34.5624 113.387 34.5503 113.529 34.5263C113.671 34.4976 113.78 34.476 113.856 34.4616L114.336 36.712C114.185 36.7597 113.972 36.8146 113.698 36.8768C113.423 36.9437 113.089 36.9846 112.696 36.9997C111.967 37.0297 111.328 36.934 110.778 36.7127C110.233 36.4913 109.809 36.1466 109.505 35.6785C109.201 35.2104 109.05 34.6189 109.053 33.9039L109.03 23.3357ZM120.794 36.8329L120.763 22.2875L126.587 22.2749C127.657 22.2725 128.55 22.4292 129.265 22.7449C129.981 23.0606 130.519 23.4998 130.88 24.0624C131.241 24.6203 131.423 25.2639 131.424 25.9931C131.426 26.5612 131.313 27.061 131.087 27.4924C130.86 27.919 130.549 28.2701 130.151 28.5455C129.759 28.8163 129.31 29.009 128.803 29.1238L128.804 29.2658C129.358 29.2883 129.876 29.4434 130.36 29.7312C130.848 30.0189 131.245 30.4229 131.549 30.9431C131.853 31.4585 132.006 32.0737 132.007 32.7887C132.009 33.5605 131.819 34.2498 131.437 34.8567C131.059 35.4588 130.499 35.9359 129.756 36.2879C129.014 36.6399 128.098 36.8171 127.009 36.8194L120.794 36.8329ZM123.864 34.3121L126.371 34.3066C127.228 34.3048 127.853 34.14 128.245 33.8125C128.638 33.4802 128.833 33.0394 128.832 32.4902C128.831 32.0877 128.733 31.7328 128.538 31.4255C128.344 31.1181 128.066 30.8773 127.706 30.7029C127.35 30.5284 126.926 30.4418 126.434 30.4428L123.856 30.4484L123.864 34.3121ZM123.851 28.3675L126.131 28.3625C126.553 28.3616 126.926 28.2874 127.253 28.1399C127.584 27.9877 127.844 27.774 128.033 27.499C128.226 27.224 128.323 26.8947 128.322 26.5112C128.321 25.9856 128.133 25.5622 127.758 25.2411C127.388 24.9199 126.862 24.7601 126.18 24.7616L123.844 24.7666L123.851 28.3675ZM138.89 37.0067C137.786 37.0091 136.832 36.7768 136.026 36.3098C135.225 35.838 134.605 35.1812 134.168 34.3394C133.731 33.4928 133.511 32.5108 133.508 31.3934C133.506 30.2665 133.721 29.2812 134.155 28.4374C134.589 27.5889 135.205 26.9294 136.005 26.459C136.808 25.9837 137.762 25.7449 138.865 25.7425C139.968 25.7401 140.921 25.9748 141.722 26.4465C142.528 26.9135 143.15 27.5703 143.587 28.4169C144.024 29.2588 144.244 30.2432 144.247 31.37C144.249 32.4875 144.034 33.4704 143.6 34.3189C143.166 35.1626 142.547 35.8221 141.743 36.2974C140.944 36.7679 139.993 37.0043 138.89 37.0067ZM138.899 34.6629C139.401 34.6618 139.819 34.5189 140.155 34.2341C140.491 33.9445 140.743 33.551 140.912 33.0534C141.086 32.5559 141.173 31.9899 141.171 31.3554C141.17 30.721 141.081 30.1553 140.905 29.6586C140.733 29.1618 140.479 28.7693 140.142 28.4812C139.806 28.1931 139.386 28.0496 138.884 28.0507C138.378 28.0518 137.952 28.1972 137.607 28.4867C137.267 28.7763 137.01 29.1699 136.835 29.6674C136.666 30.1649 136.582 30.7309 136.583 31.3654C136.585 31.9999 136.671 32.5655 136.843 33.0623C137.019 33.559 137.278 33.9515 137.619 34.2396C137.966 34.5229 138.392 34.664 138.899 34.6629ZM151.155 36.98C150.052 36.9824 149.097 36.7501 148.292 36.2831C147.49 35.8114 146.871 35.1546 146.434 34.3127C145.996 33.4662 145.776 32.4841 145.774 31.3667C145.771 30.2398 145.987 29.2545 146.421 28.4108C146.855 27.5623 147.471 26.9028 148.27 26.4323C149.074 25.9571 150.028 25.7183 151.131 25.7159C152.234 25.7135 153.186 25.9481 153.987 26.4199C154.793 26.8869 155.415 27.5437 155.853 28.3903C156.29 29.2321 156.51 30.2165 156.512 31.3434C156.515 32.4608 156.299 33.4438 155.865 34.2923C155.432 35.136 154.813 35.7955 154.009 36.2707C153.21 36.7412 152.259 36.9777 151.155 36.98ZM151.164 34.6363C151.666 34.6352 152.085 34.4922 152.421 34.2074C152.756 33.9179 153.009 33.5243 153.178 33.0268C153.352 32.5292 153.438 31.9632 153.437 31.3288C153.436 30.6943 153.347 30.1287 153.171 29.6319C152.999 29.1351 152.745 28.7427 152.408 28.4546C152.071 28.1665 151.652 28.023 151.15 28.0241C150.643 28.0252 150.218 28.1705 149.873 28.4601C149.532 28.7497 149.275 29.1432 149.101 29.6407C148.932 30.1383 148.848 30.7043 148.849 31.3387C148.85 31.9732 148.937 32.5388 149.108 33.0356C149.285 33.5324 149.544 33.9248 149.885 34.2129C150.231 34.4963 150.658 34.6374 151.164 34.6363ZM161.226 33.6059L161.225 29.9766L161.666 29.9757L165.151 25.8275L168.624 25.8199L163.941 31.3131L163.224 31.3146L161.226 33.6059ZM158.491 36.751L158.46 22.2056L161.485 22.199L161.517 36.7445L158.491 36.751ZM165.31 36.7362L162.089 31.9918L164.101 29.8496L168.854 36.7285L165.31 36.7362Z" fill="white"/>
<rect x="75.0703" y="-36.7617" width="20" height="154" transform="rotate(35.0791 75.0703 -36.7617)" fill="white" fill-opacity="0.15"/>
<rect x="108.07" y="-36.7617" width="14.1191" height="154" transform="rotate(35.0791 108.07 -36.7617)" fill="white" fill-opacity="0.15"/>
</g>
<defs>
<clipPath id="clip0_468_6079">
<rect width="216" height="60" rx="10" fill="white"/>
</clipPath>
</defs>
</svg>
