<svg width="233" height="52" viewBox="0 0 233 52" fill="none" xmlns="http://www.w3.org/2000/svg">
<g clip-path="url(#clip0_591_7854)">
<rect width="233" height="52" fill="#F88125"/>
<path d="M55.6827 23.629C55.6304 23.1135 55.4101 22.7134 55.0217 22.4288C54.6333 22.1441 54.1067 22.0025 53.4419 22.0039C52.9902 22.0049 52.609 22.0697 52.2981 22.1982C51.9873 22.3224 51.7491 22.4955 51.5834 22.7175C51.4219 22.9394 51.3415 23.191 51.3421 23.4723C51.3341 23.7067 51.3835 23.9111 51.4905 24.0856C51.6016 24.2601 51.7532 24.411 51.9453 24.5384C52.1373 24.6616 52.3591 24.7698 52.6108 24.863C52.8624 24.9519 53.131 25.0281 53.4167 25.0914L54.5934 25.3701C55.1647 25.4967 55.6892 25.666 56.1669 25.878C56.6447 26.09 57.0586 26.3512 57.4087 26.6615C57.7588 26.9718 58.0302 27.3377 58.2229 27.7592C58.4198 28.1806 58.521 28.6641 58.5265 29.2095C58.5239 30.0107 58.3209 30.7057 57.9174 31.2947C57.5181 31.8793 56.9395 32.3344 56.1817 32.6599C55.4281 32.9812 54.5187 33.143 53.4533 33.1453C52.3965 33.1476 51.4757 32.9876 50.6909 32.6655C49.9104 32.3433 49.3 31.8652 48.8597 31.2312C48.4236 30.593 48.1939 29.803 48.1706 28.8613L50.8488 28.8555C50.8796 29.2943 51.0061 29.6605 51.2283 29.9541C51.4548 30.2434 51.7557 30.4622 52.1311 30.6105C52.5106 30.7546 52.9391 30.8261 53.4163 30.825C53.8851 30.824 54.2919 30.755 54.6368 30.6178C54.9859 30.4807 55.2561 30.2905 55.4473 30.0472C55.6385 29.8039 55.7338 29.5245 55.7331 29.2092C55.7325 28.9152 55.6446 28.6682 55.4694 28.4683C55.2986 28.2684 55.0468 28.0985 54.7141 27.9586C54.3856 27.8187 53.9827 27.6917 53.5052 27.5777L52.079 27.2228C50.9747 26.9568 50.1023 26.5389 49.4619 25.9693C48.8214 25.3996 48.5023 24.6312 48.5044 23.6638C48.4985 22.8712 48.7079 22.1783 49.1327 21.585C49.5619 20.9918 50.151 20.5281 50.9003 20.1941C51.6496 19.8601 52.5015 19.6921 53.4561 19.69C54.4276 19.6879 55.276 19.8522 56.0012 20.183C56.7306 20.5138 57.2983 20.975 57.7045 21.5664C58.1106 22.1579 58.3209 22.8435 58.3353 23.6233L55.6827 23.629ZM60.3451 32.9449L60.3238 23.1268L63.0468 23.1209L63.0681 32.939L60.3451 32.9449ZM61.6889 21.8582C61.2841 21.8591 60.9365 21.7256 60.6462 21.4577C60.3601 21.1856 60.2166 20.86 60.2158 20.4807C60.215 20.1057 60.357 19.7837 60.6419 19.5146C60.9311 19.2412 61.2781 19.1041 61.683 19.1032C62.0878 19.1023 62.4333 19.2379 62.7194 19.5101C63.0097 19.7779 63.1553 20.0993 63.1561 20.4743C63.1569 20.8536 63.0128 21.1799 62.7236 21.4532C62.4387 21.7223 62.0938 21.8573 61.6889 21.8582ZM69.6811 36.811C68.799 36.8129 68.0424 36.6931 67.4112 36.4516C66.7842 36.2143 66.285 35.8894 65.9133 35.4769C65.5417 35.0643 65.2999 34.6004 65.188 34.085L67.7057 33.7407C67.7828 33.9366 67.9047 34.1196 68.0713 34.2897C68.2378 34.4597 68.4576 34.5956 68.7305 34.6973C69.0077 34.8032 69.3445 34.8558 69.7408 34.8549C70.3331 34.8536 70.8208 34.7077 71.2036 34.4171C71.5908 34.1307 71.7837 33.6509 71.7822 32.9776L71.7783 31.1815L71.6632 31.1817C71.5445 31.4547 71.3661 31.7129 71.128 31.9563C70.8899 32.1997 70.5835 32.3985 70.2088 32.5528C69.8342 32.707 69.3869 32.7847 68.867 32.7858C68.1298 32.7874 67.4583 32.6184 66.8524 32.2788C66.2508 31.9349 65.7703 31.4097 65.4108 30.7031C65.0555 29.9922 64.8767 29.0935 64.8744 28.0068C64.8719 26.8946 65.051 25.9652 65.4116 25.2187C65.7722 24.4722 66.2525 23.9129 66.8526 23.5409C67.4569 23.1688 68.1191 22.982 68.8393 22.9804C69.389 22.9792 69.8494 23.072 70.2206 23.2587C70.5917 23.4411 70.8905 23.6706 71.117 23.9471C71.3477 24.2193 71.5251 24.4874 71.6493 24.7513L71.7515 24.7511L71.748 23.102L74.4518 23.0961L74.4733 33.0101C74.4751 33.8453 74.2721 34.5447 73.8642 35.108C73.4564 35.6714 72.8905 36.0945 72.1667 36.3774C71.4472 36.6644 70.6186 36.809 69.6811 36.811ZM69.7255 30.7385C70.1644 30.7375 70.5349 30.628 70.837 30.4101C71.1433 30.1878 71.377 29.872 71.5381 29.4625C71.7033 29.0488 71.7854 28.5543 71.7841 27.979C71.7829 27.4037 71.7008 26.9053 71.538 26.4838C71.3751 26.058 71.14 25.7283 70.8327 25.4946C70.5254 25.2609 70.1522 25.1445 69.7133 25.1454C69.2659 25.1464 68.889 25.2687 68.5827 25.5122C68.2764 25.7515 68.0449 26.0844 67.8882 26.5109C67.7314 26.9374 67.6537 27.4298 67.6549 27.988C67.6561 28.5547 67.736 29.0446 67.8946 29.4576C68.0574 29.8664 68.2903 30.1833 68.5934 30.4085C68.9007 30.6295 69.278 30.7394 69.7255 30.7385ZM79.3507 27.2275L79.363 32.9036L76.64 32.9095L76.6187 23.0914L79.2138 23.0857L79.2176 24.818L79.3327 24.8177C79.5488 24.2462 79.9121 23.7937 80.4228 23.4602C80.9334 23.1225 81.5531 22.9528 82.2817 22.9512C82.9636 22.9497 83.5583 23.0976 84.0661 23.3948C84.5738 23.692 84.9689 24.1173 85.2514 24.6706C85.5338 25.2197 85.6759 25.8757 85.6775 26.6385L85.6911 32.8899L82.9681 32.8958L82.9556 27.1302C82.9586 26.5293 82.8041 26.0609 82.4923 25.7249C82.1805 25.3847 81.7519 25.2152 81.2064 25.2164C80.8399 25.2171 80.5162 25.2967 80.2353 25.455C79.9587 25.6132 79.7419 25.8438 79.5848 26.1467C79.4321 26.4454 79.354 26.8056 79.3507 27.2275ZM98.2903 28.6821L98.2781 23.0443L101.001 23.0384L101.022 32.8566L98.4081 32.8622L98.4042 31.0789L98.3019 31.0791C98.0816 31.6548 97.714 32.118 97.1991 32.4686C96.6885 32.8191 96.0646 32.9952 95.3274 32.9968C94.6711 32.9982 94.0934 32.8503 93.5942 32.5531C93.095 32.2559 92.7041 31.8327 92.4217 31.2836C92.1435 30.7345 92.0014 30.0764 91.9955 29.3094L91.9819 23.058L94.7049 23.0521L94.7175 28.8177C94.723 29.3972 94.8795 29.855 95.1871 30.191C95.4946 30.5269 95.9062 30.6944 96.4218 30.6933C96.7499 30.6925 97.0566 30.6173 97.3418 30.4675C97.627 30.3135 97.8566 30.0872 98.0307 29.7885C98.209 29.4898 98.2955 29.121 98.2903 28.6821ZM103.208 36.5336L103.179 23.0337L105.864 23.0278L105.867 24.677L105.989 24.6767C106.108 24.4123 106.28 24.1434 106.505 23.8702C106.734 23.5927 107.032 23.3619 107.398 23.1779C107.769 22.9896 108.229 22.8949 108.778 22.8937C109.494 22.8921 110.155 23.0782 110.761 23.4519C111.367 23.8213 111.852 24.3806 112.216 25.1298C112.58 25.8748 112.763 26.8097 112.765 27.9347C112.768 29.0299 112.593 29.955 112.241 30.71C111.893 31.4608 111.417 32.0307 110.813 32.4198C110.212 32.8046 109.54 32.9979 108.794 32.9995C108.265 33.0006 107.816 32.9142 107.445 32.7403C107.078 32.5664 106.777 32.3476 106.542 32.0839C106.307 31.816 106.127 31.5457 106.003 31.2733L105.92 31.2735L105.932 36.5277L103.208 36.5336ZM105.855 27.937C105.857 28.5208 105.939 29.0298 106.102 29.4641C106.264 29.8984 106.5 30.2367 106.807 30.4789C107.114 30.7169 107.487 30.8354 107.926 30.8345C108.369 30.8335 108.744 30.7112 109.05 30.4677C109.357 30.2198 109.588 29.8784 109.745 29.4434C109.906 29.0042 109.986 28.499 109.985 27.928C109.983 27.3612 109.903 26.8628 109.745 26.4328C109.586 26.0027 109.353 25.6666 109.046 25.4243C108.739 25.1821 108.361 25.0615 107.914 25.0624C107.471 25.0634 107.096 25.1814 106.789 25.4165C106.487 25.6515 106.256 25.9844 106.095 26.4151C105.934 26.8459 105.854 27.3531 105.855 27.937ZM124.016 22.9884L124.02 25.0338L117.96 25.047L117.956 23.0016L124.016 22.9884ZM119.364 32.8167L119.341 22.289C119.34 21.5774 119.477 20.9869 119.753 20.5175C120.033 20.0482 120.416 19.6958 120.901 19.4604C121.387 19.2249 121.938 19.1065 122.556 19.1052C122.974 19.1043 123.355 19.1354 123.701 19.1986C124.05 19.2618 124.31 19.3187 124.481 19.3695L123.999 21.416C123.893 21.3821 123.761 21.3505 123.603 21.321C123.449 21.2915 123.292 21.2769 123.13 21.2772C122.729 21.2781 122.45 21.3725 122.293 21.5603C122.136 21.7439 122.057 22.0019 122.058 22.3343L122.081 32.8108L119.364 32.8167ZM129.785 32.9858C128.792 32.988 127.933 32.7789 127.208 32.3586C126.487 31.934 125.93 31.3429 125.536 30.5853C125.142 29.8233 124.944 28.9395 124.942 27.9338C124.94 26.9196 125.134 26.0328 125.524 25.2735C125.915 24.5098 126.469 23.9163 127.189 23.4929C127.912 23.0652 128.77 22.8502 129.763 22.8481C130.756 22.8459 131.613 23.0571 132.334 23.4817C133.06 23.902 133.619 24.4931 134.013 25.255C134.407 26.0127 134.605 26.8986 134.607 27.9128C134.609 28.9185 134.415 29.8032 134.024 30.5668C133.634 31.3262 133.077 31.9197 132.354 32.3474C131.634 32.7709 130.778 32.9837 129.785 32.9858ZM129.794 30.8764C130.245 30.8754 130.622 30.7468 130.924 30.4905C131.226 30.2299 131.453 29.8757 131.606 29.4279C131.762 28.9801 131.84 28.4707 131.839 27.8997C131.838 27.3287 131.758 26.8196 131.599 26.3725C131.445 25.9254 131.216 25.5722 130.913 25.3129C130.61 25.0536 130.232 24.9245 129.781 24.9255C129.325 24.9264 128.941 25.0572 128.631 25.3179C128.325 25.5785 128.093 25.9327 127.936 26.3805C127.784 26.8282 127.708 27.3376 127.71 27.9087C127.711 28.4797 127.789 28.9887 127.943 29.4358C128.102 29.8829 128.335 30.2361 128.642 30.4954C128.954 30.7504 129.338 30.8774 129.794 30.8764ZM136.388 32.7797L136.367 22.9616L139.006 22.9558L139.01 24.6689L139.112 24.6687C139.29 24.0589 139.59 23.598 140.011 23.286C140.432 22.9698 140.917 22.8111 141.467 22.8099C141.603 22.8096 141.751 22.8178 141.908 22.8345C142.066 22.8512 142.204 22.8743 142.324 22.9039L142.329 25.3201C142.201 25.282 142.024 25.2483 141.798 25.2189C141.572 25.1896 141.366 25.1751 141.178 25.1755C140.778 25.1764 140.42 25.2646 140.105 25.44C139.794 25.6111 139.548 25.8503 139.365 26.1575C139.187 26.4647 139.098 26.8186 139.099 27.2191L139.111 32.7738L136.388 32.7797ZM147.97 32.7546L147.942 19.6637L156.609 19.6448L156.614 21.9268L150.715 21.9396L150.721 25.0589L156.046 25.0474L156.051 27.3293L150.726 27.3409L150.738 32.7485L147.97 32.7546ZM158.29 32.7321L158.269 22.914L160.909 22.9082L160.913 24.6213L161.015 24.6211C161.192 24.0113 161.492 23.5504 161.913 23.2384C162.334 22.9222 162.82 22.7635 163.369 22.7623C163.506 22.762 163.653 22.7702 163.811 22.7869C163.968 22.8036 164.107 22.8267 164.226 22.8563L164.231 25.2725C164.103 25.2344 163.927 25.2007 163.701 25.1714C163.475 25.142 163.268 25.1276 163.081 25.128C162.68 25.1288 162.322 25.217 162.007 25.3924C161.697 25.5635 161.45 25.8027 161.267 26.1099C161.089 26.4171 161 26.771 161.001 27.1715L161.013 32.7262L158.29 32.7321ZM169.673 32.8992C168.663 32.9014 167.794 32.6987 167.064 32.2912C166.339 31.8794 165.779 31.2968 165.385 30.5434C164.992 29.7858 164.794 28.8892 164.792 27.8537C164.789 26.8437 164.983 25.9569 165.374 25.1933C165.764 24.4297 166.315 23.834 167.025 23.4063C167.74 22.9786 168.579 22.7637 169.543 22.7616C170.19 22.7602 170.793 22.8633 171.352 23.0709C171.915 23.2742 172.406 23.5821 172.824 23.9946C173.247 24.407 173.576 24.9262 173.812 25.5521C174.048 26.1737 174.167 26.9022 174.168 27.7374L174.17 28.4853L165.88 28.5033L165.876 26.8158L171.603 26.8033C171.602 26.4113 171.516 26.0642 171.345 25.762C171.174 25.4598 170.937 25.2238 170.634 25.054C170.336 24.88 169.988 24.7934 169.592 24.7942C169.178 24.7951 168.812 24.8918 168.493 25.0842C168.178 25.2724 167.931 25.5265 167.753 25.8465C167.575 26.1622 167.484 26.514 167.481 26.9018L167.484 28.5062C167.485 28.992 167.575 29.4115 167.755 29.7648C167.939 30.1181 168.198 30.3903 168.53 30.5813C168.863 30.7724 169.258 30.8674 169.714 30.8664C170.016 30.8657 170.293 30.8225 170.544 30.7368C170.795 30.651 171.01 30.5227 171.189 30.3518C171.368 30.181 171.504 29.9719 171.597 29.7245L174.116 29.8852C173.989 30.4906 173.728 31.0196 173.333 31.4722C172.942 31.9205 172.435 32.271 171.814 32.5238C171.196 32.7723 170.483 32.8974 169.673 32.8992ZM180.431 32.8758C179.421 32.878 178.551 32.6753 177.822 32.2678C177.096 31.856 176.537 31.2735 176.143 30.52C175.75 29.7624 175.552 28.8658 175.549 27.8303C175.547 26.8203 175.741 25.9336 176.132 25.1699C176.522 24.4063 177.073 23.8106 177.783 23.3829C178.498 22.9553 179.337 22.7404 180.3 22.7383C180.948 22.7369 181.551 22.84 182.11 23.0476C182.673 23.2509 183.164 23.5588 183.582 23.9712C184.005 24.3836 184.334 24.9028 184.57 25.5287C184.806 26.1504 184.924 26.8788 184.926 27.714L184.928 28.4619L176.637 28.4799L176.634 26.7924L182.361 26.78C182.36 26.3879 182.274 26.0408 182.103 25.7386C181.932 25.4364 181.695 25.2004 181.392 25.0307C181.093 24.8566 180.746 24.77 180.349 24.7708C179.936 24.7717 179.57 24.8684 179.251 25.0609C178.936 25.2491 178.689 25.5031 178.511 25.8231C178.333 26.1389 178.242 26.4906 178.238 26.8784L178.242 28.4828C178.243 28.9686 178.333 29.3882 178.513 29.7415C178.697 30.0948 178.955 30.3669 179.288 30.558C179.621 30.749 180.015 30.844 180.471 30.843C180.774 30.8424 181.051 30.7992 181.302 30.7134C181.553 30.6276 181.768 30.4993 181.947 30.3285C182.125 30.1576 182.261 29.9485 182.355 29.7012L184.873 29.8619C184.747 30.4673 184.486 30.9962 184.091 31.4488C183.699 31.8971 183.193 32.2476 182.572 32.5004C181.954 32.7489 181.241 32.874 180.431 32.8758Z" fill="white"/>
<rect x="75.0703" y="-36.7617" width="20" height="154" transform="rotate(35.0791 75.0703 -36.7617)" fill="white" fill-opacity="0.15"/>
<rect x="108.07" y="-36.7617" width="14.1191" height="154" transform="rotate(35.0791 108.07 -36.7617)" fill="white" fill-opacity="0.15"/>
</g>
<defs>
<clipPath id="clip0_591_7854">
<rect width="233" height="52" fill="white"/>
</clipPath>
</defs>
</svg>
