<svg width="515" height="75" viewBox="0 0 515 75" fill="none" xmlns="http://www.w3.org/2000/svg">
<g clip-path="url(#clip0_814_14067)">
<rect width="515" height="75" fill="#F88125"/>
<path d="M224.899 34.1916C224.827 33.4756 224.521 32.9199 223.981 32.5245C223.442 32.1292 222.71 31.9325 221.787 31.9345C221.16 31.9359 220.63 32.0258 220.199 32.2043C219.767 32.3769 219.436 32.6173 219.206 32.9255C218.982 33.2338 218.87 33.5832 218.871 33.9739C218.86 34.2994 218.928 34.5833 219.077 34.8257C219.231 35.068 219.442 35.2777 219.708 35.4546C219.975 35.6257 220.283 35.776 220.633 35.9054C220.982 36.0289 221.355 36.1347 221.752 36.2226L223.386 36.6096C224.18 36.7855 224.908 37.0206 225.572 37.3151C226.235 37.6096 226.81 37.9724 227.297 38.4034C227.783 38.8344 228.16 39.3425 228.427 39.9279C228.701 40.5132 228.841 41.1847 228.849 41.9423C228.846 43.055 228.564 44.0203 228.003 44.8383C227.448 45.6503 226.645 46.2824 225.592 46.7345C224.546 47.1807 223.283 47.4054 221.803 47.4086C220.335 47.4118 219.056 47.1896 217.966 46.7422C216.882 46.2947 216.034 45.6307 215.423 44.7502C214.817 43.8637 214.498 42.7665 214.466 41.4586L218.186 41.4505C218.228 42.06 218.404 42.5686 218.713 42.9763C219.027 43.3781 219.445 43.682 219.966 43.888C220.494 44.0881 221.089 44.1875 221.752 44.186C222.403 44.1846 222.968 44.0887 223.447 43.8982C223.932 43.7078 224.307 43.4436 224.572 43.1057C224.838 42.7677 224.97 42.3798 224.969 41.9418C224.968 41.5334 224.846 41.1904 224.603 40.9128C224.366 40.6351 224.016 40.3991 223.554 40.2048C223.098 40.0105 222.538 39.8342 221.875 39.6758L219.894 39.1829C218.36 38.8134 217.149 38.2331 216.259 37.4419C215.37 36.6507 214.927 35.5834 214.93 34.2399C214.921 33.139 215.212 32.1766 215.802 31.3527C216.398 30.5287 217.216 29.8848 218.257 29.4208C219.298 28.9569 220.481 28.7235 221.807 28.7207C223.156 28.7177 224.334 28.946 225.342 29.4055C226.355 29.8649 227.143 30.5054 227.707 31.3268C228.271 32.1483 228.563 33.1005 228.584 34.1836L224.899 34.1916ZM240.107 41.3052L240.09 33.475L243.872 33.4668L243.902 47.1031L240.271 47.111L240.265 44.6341L240.123 44.6344C239.817 45.4341 239.306 46.0773 238.591 46.5642C237.882 47.0511 237.016 47.2956 235.992 47.2978C235.08 47.2998 234.278 47.0944 233.585 46.6816C232.891 46.2688 232.348 45.6811 231.956 44.9185C231.57 44.1558 231.372 43.2418 231.364 42.1765L231.345 33.494L235.127 33.4858L235.145 41.4936C235.152 42.2985 235.37 42.9342 235.797 43.4009C236.224 43.8675 236.796 44.1001 237.512 44.0985C237.968 44.0975 238.393 43.993 238.79 43.785C239.186 43.5711 239.505 43.2567 239.746 42.8419C239.994 42.427 240.114 41.9148 240.107 41.3052ZM246.998 47.0964L246.958 28.9146L250.74 28.9064L250.755 35.7423L250.87 35.742C251.035 35.3747 251.274 35.0014 251.587 34.6219C251.906 34.2365 252.319 33.916 252.828 33.6604C253.342 33.3988 253.981 33.2672 254.745 33.2656C255.739 33.2634 256.657 33.5218 257.498 34.0409C258.34 34.5539 259.013 35.3308 259.519 36.3713C260.024 37.406 260.278 38.7046 260.282 40.2671C260.285 41.7881 260.042 43.073 259.553 44.1216C259.07 45.1644 258.409 45.9559 257.57 46.4963C256.737 47.0308 255.802 47.2992 254.766 47.3014C254.032 47.303 253.408 47.1831 252.892 46.9415C252.383 46.7 251.965 46.3961 251.638 46.0298C251.312 45.6577 251.063 45.2824 250.89 44.904L250.722 44.9043L250.726 47.0883L246.998 47.0964ZM250.685 40.2702C250.687 41.081 250.801 41.788 251.027 42.3912C251.253 42.9944 251.58 43.4642 252.007 43.8007C252.433 44.1312 252.952 44.2958 253.561 44.2945C254.177 44.2931 254.697 44.1233 255.123 43.785C255.548 43.4408 255.87 42.9666 256.087 42.3625C256.311 41.7524 256.422 41.0508 256.42 40.2577C256.418 39.4705 256.307 38.7783 256.087 38.181C255.867 37.5837 255.543 37.1168 255.116 36.7804C254.689 36.444 254.165 36.2764 253.544 36.2778C252.928 36.2791 252.408 36.443 251.982 36.7695C251.563 37.0959 251.241 37.5582 251.018 38.1565C250.794 38.7548 250.683 39.4593 250.685 40.2702ZM262.82 47.062L262.791 33.4257L266.395 33.4178L266.4 35.8237L266.56 35.8234C266.842 35.0238 267.314 34.3924 267.976 33.9293C268.638 33.4662 269.431 33.2337 270.354 33.2317C271.289 33.2296 272.086 33.4617 272.744 33.9278C273.402 34.3881 273.841 35.0145 274.062 35.8071L274.204 35.8068C274.48 35.0249 274.982 34.3994 275.709 33.9303C276.442 33.4552 277.308 33.2166 278.309 33.2144C279.581 33.2116 280.615 33.6148 281.41 34.4239C282.21 35.2271 282.612 36.3685 282.616 37.8482L282.635 47.0189L278.862 47.0271L278.844 38.6021C278.842 37.8445 278.64 37.2768 278.237 36.8989C277.833 36.5209 277.33 36.3326 276.726 36.334C276.04 36.3355 275.505 36.5556 275.121 36.9944C274.737 37.4273 274.546 37.9989 274.547 38.7091L274.566 47.0365L270.899 47.0444L270.881 38.5395C270.879 37.8707 270.686 37.3384 270.3 36.9427C269.92 36.547 269.42 36.3498 268.798 36.3512C268.378 36.3521 268 36.4595 267.663 36.6733C267.332 36.8811 267.069 37.1747 266.874 37.5539C266.68 37.9272 266.583 38.3654 266.584 38.8684L266.602 47.0538L262.82 47.062ZM285.623 47.0125L285.593 33.3761L289.375 33.3679L289.405 47.0042L285.623 47.0125ZM287.489 31.6142C286.927 31.6154 286.444 31.43 286.041 31.058C285.644 30.6801 285.444 30.2278 285.443 29.701C285.442 29.1802 285.639 28.7329 286.035 28.3592C286.437 27.9795 286.919 27.7891 287.481 27.7878C288.043 27.7866 288.523 27.975 288.92 28.3529C289.324 28.7249 289.526 29.1713 289.527 29.6921C289.528 30.2189 289.328 30.6721 288.926 31.0518C288.531 31.4255 288.052 31.613 287.489 31.6142ZM299.658 33.3456L299.664 36.1865L291.452 36.2043L291.446 33.3634L299.658 33.3456ZM293.303 30.0923L297.085 30.0841L297.113 42.7971C297.113 43.1463 297.167 43.4185 297.274 43.6136C297.381 43.8027 297.53 43.9356 297.719 44.0121C297.915 44.0886 298.14 44.1266 298.394 44.126C298.572 44.1256 298.749 44.1105 298.927 44.0805C299.104 44.0446 299.24 44.0177 299.335 43.9997L299.936 46.8127C299.746 46.8723 299.48 46.9409 299.137 47.0186C298.794 47.1022 298.377 47.1534 297.886 47.1722C296.974 47.2097 296.175 47.0901 295.488 46.8135C294.807 46.5368 294.276 46.1059 293.896 45.5208C293.516 44.9356 293.328 44.1962 293.332 43.3025L293.303 30.0923Z" fill="white"/>
<rect x="165.928" y="-81.2539" width="44.206" height="340.386" transform="rotate(35.0791 165.928 -81.2539)" fill="white" fill-opacity="0.15"/>
<rect x="238.868" y="-81.2539" width="31.2074" height="340.386" transform="rotate(35.0791 238.868 -81.2539)" fill="white" fill-opacity="0.15"/>
</g>
<defs>
<clipPath id="clip0_814_14067">
<rect width="515" height="75" fill="white"/>
</clipPath>
</defs>
</svg>
