<svg width="216" height="60" viewBox="0 0 216 60" fill="none" xmlns="http://www.w3.org/2000/svg">
<g clip-path="url(#clip0_1411_13045)">
<rect width="216" height="60" rx="10" fill="#F88125"/>
<path d="M77.1836 26.5413C77.114 25.854 76.8202 25.3205 76.3023 24.941C75.7845 24.5614 75.0823 24.3726 74.196 24.3745C73.5937 24.3758 73.0854 24.4622 72.671 24.6335C72.2566 24.7992 71.9389 25.03 71.7179 25.3259C71.5027 25.6218 71.3954 25.9573 71.3962 26.3323C71.3856 26.6448 71.4515 26.9174 71.594 27.1501C71.7423 27.3827 71.9444 27.584 72.2005 27.7539C72.4565 27.9181 72.7523 28.0623 73.0878 28.1866C73.4233 28.3052 73.7814 28.4067 74.1623 28.4911L75.7313 28.8627C76.493 29.0315 77.1924 29.2572 77.8294 29.5399C78.4663 29.8226 79.0182 30.1709 79.4851 30.5846C79.9519 30.9984 80.3137 31.4862 80.5706 32.0482C80.8332 32.6101 80.9681 33.2547 80.9754 33.982C80.972 35.0502 80.7013 35.9769 80.1632 36.7621C79.6308 37.5417 78.8594 38.1485 77.849 38.5825C76.8443 39.0108 75.6317 39.2265 74.2112 39.2296C72.8021 39.2327 71.5744 39.0194 70.528 38.5899C69.4873 38.1603 68.6734 37.5229 68.0863 36.6776C67.5049 35.8266 67.1987 34.7733 67.1675 33.5176L70.7385 33.5099C70.7796 34.095 70.9483 34.5833 71.2446 34.9747C71.5465 35.3604 71.9477 35.6522 72.4482 35.8499C72.9543 36.042 73.5255 36.1374 74.1619 36.136C74.7869 36.1346 75.3293 36.0425 75.7891 35.8597C76.2546 35.6769 76.6149 35.4233 76.8699 35.0988C77.1248 34.7744 77.2519 34.402 77.251 33.9815C77.2501 33.5895 77.1329 33.2602 76.8994 32.9937C76.6715 32.7271 76.3358 32.5006 75.8922 32.314C75.4543 32.1275 74.917 31.9582 74.2803 31.8062L72.3787 31.333C70.9063 30.9783 69.7432 30.4211 68.8893 29.6616C68.0353 28.9021 67.6098 27.8775 67.6127 26.5877C67.6047 25.5309 67.884 24.607 68.4504 23.816C69.0226 23.025 69.8082 22.4068 70.8072 21.9614C71.8062 21.5161 72.9421 21.292 74.2148 21.2892C75.5103 21.2864 76.6415 21.5056 77.6083 21.9466C78.5809 22.3877 79.3379 23.0025 79.8794 23.7911C80.4209 24.5797 80.7013 25.4939 80.7206 26.5336L77.1836 26.5413ZM91.783 33.3704L91.7667 25.8534L95.3974 25.8455L95.4258 38.9364L91.94 38.944L91.9349 36.5661L91.7985 36.5664C91.5047 37.3341 91.0146 37.9516 90.3281 38.419C89.6473 38.8864 88.8154 39.1212 87.8325 39.1233C86.9575 39.1252 86.1871 38.928 85.5215 38.5318C84.8559 38.1355 84.3348 37.5713 83.9582 36.8391C83.5873 36.107 83.3979 35.2295 83.3899 34.2068L83.3718 25.8716L87.0025 25.8637L87.0192 33.5512C87.0266 34.3239 87.2353 34.9343 87.6454 35.3823C88.0554 35.8302 88.6042 36.0535 89.2917 36.052C89.7292 36.051 90.1381 35.9507 90.5183 35.751C90.8986 35.5456 91.2047 35.2438 91.4368 34.8456C91.6746 34.4474 91.79 33.9556 91.783 33.3704ZM98.3981 38.9299L98.3602 21.4754L101.991 21.4675L102.005 28.03L102.116 28.0298C102.274 27.6772 102.504 27.3187 102.804 26.9544C103.11 26.5844 103.507 26.2767 103.995 26.0314C104.489 25.7803 105.102 25.654 105.835 25.6524C106.79 25.6503 107.671 25.8984 108.479 26.3966C109.287 26.8892 109.933 27.6349 110.418 28.6339C110.904 29.6272 111.148 30.8738 111.151 32.3738C111.154 33.834 110.921 35.0675 110.452 36.0742C109.988 37.0752 109.353 37.8351 108.547 38.3539C107.747 38.867 106.85 39.1246 105.856 39.1268C105.151 39.1283 104.552 39.0131 104.057 38.7813C103.568 38.5494 103.167 38.2576 102.853 37.906C102.54 37.5488 102.301 37.1885 102.135 36.8252L101.973 36.8256L101.978 38.9221L98.3981 38.9299ZM101.938 32.3768C101.94 33.1552 102.049 33.8339 102.266 34.413C102.483 34.9921 102.797 35.4431 103.207 35.7661C103.616 36.0834 104.114 36.2414 104.699 36.2401C105.29 36.2388 105.79 36.0758 106.198 35.751C106.606 35.4206 106.915 34.9654 107.124 34.3854C107.339 33.7997 107.445 33.1262 107.444 32.3648C107.442 31.6091 107.335 30.9446 107.124 30.3712C106.912 29.7978 106.602 29.3496 106.192 29.0266C105.782 28.7036 105.279 28.5428 104.682 28.5441C104.091 28.5454 103.592 28.7027 103.183 29.0161C102.781 29.3295 102.472 29.7733 102.257 30.3477C102.043 30.922 101.936 31.5984 101.938 32.3768ZM113.588 38.8969L113.559 25.806L117.019 25.7985L117.025 28.1082L117.178 28.1078C117.449 27.3402 117.902 26.7341 118.538 26.2895C119.173 25.845 119.934 25.6217 120.82 25.6198C121.718 25.6179 122.483 25.8406 123.114 26.2881C123.746 26.7299 124.168 27.3313 124.38 28.0922L124.516 28.0919C124.781 27.3413 125.263 26.7408 125.961 26.2905C126.664 25.8344 127.496 25.6053 128.457 25.6032C129.678 25.6006 130.67 25.9876 131.434 26.7644C132.202 27.5354 132.588 28.6312 132.591 30.0516L132.61 38.8556L128.988 38.8635L128.971 30.7754C128.969 30.0481 128.775 29.5031 128.388 29.1403C128 28.7775 127.517 28.5967 126.938 28.598C126.278 28.5994 125.765 28.8108 125.396 29.232C125.028 29.6476 124.844 30.1963 124.846 30.8781L124.863 38.8724L121.343 38.8801L121.326 30.7153C121.324 30.0733 121.138 29.5623 120.768 29.1824C120.404 28.8025 119.923 28.6132 119.327 28.6145C118.923 28.6154 118.56 28.7185 118.237 28.9237C117.919 29.1233 117.667 29.4051 117.48 29.7691C117.293 30.1275 117.2 30.5481 117.201 31.0311L117.218 38.889L113.588 38.8969ZM135.478 38.8494L135.45 25.7585L139.081 25.7506L139.109 38.8415L135.478 38.8494ZM137.27 24.067C136.73 24.0682 136.267 23.8902 135.88 23.5331C135.498 23.1703 135.307 22.7361 135.306 22.2304C135.305 21.7304 135.494 21.301 135.874 20.9422C136.26 20.5777 136.722 20.3949 137.262 20.3937C137.802 20.3926 138.262 20.5734 138.644 20.9362C139.031 21.2933 139.225 21.7219 139.226 22.2219C139.227 22.7275 139.035 23.1626 138.65 23.5271C138.27 23.8859 137.81 24.0659 137.27 24.067ZM148.952 25.7291L148.958 28.4564L141.074 28.4735L141.068 25.7463L148.952 25.7291ZM142.851 22.606L146.482 22.5981L146.509 34.8027C146.509 35.1379 146.561 35.3991 146.664 35.5864C146.766 35.768 146.909 35.8955 147.091 35.969C147.278 36.0425 147.494 36.0789 147.739 36.0784C147.909 36.078 148.08 36.0635 148.25 36.0347C148.42 36.0002 148.551 35.9744 148.642 35.9571L149.219 38.6576C149.037 38.7148 148.781 38.7807 148.452 38.8553C148.123 38.9355 147.722 38.9847 147.251 39.0028C146.376 39.0388 145.608 38.9239 144.949 38.6583C144.295 38.3927 143.785 37.979 143.421 37.4173C143.056 36.8556 142.875 36.1458 142.879 35.2878L142.851 22.606Z" fill="white"/>
<rect x="75.0703" y="-36.7617" width="20" height="154" transform="rotate(35.0791 75.0703 -36.7617)" fill="white" fill-opacity="0.15"/>
<rect x="108.07" y="-36.7617" width="14.1191" height="154" transform="rotate(35.0791 108.07 -36.7617)" fill="white" fill-opacity="0.15"/>
</g>
<defs>
<clipPath id="clip0_1411_13045">
<rect width="216" height="60" rx="10" fill="white"/>
</clipPath>
</defs>
</svg>
