<svg width="307" height="59" viewBox="0 0 307 59" fill="none" xmlns="http://www.w3.org/2000/svg">
<g clip-path="url(#clip0_1514_9391)">
<rect width="307" height="59" rx="6.24" fill="#F32E2E"/>
<path d="M99.1669 24.6163L99.1603 21.5737L113.496 21.5426L113.502 24.5852L108.158 24.5968L108.19 39.0087L104.542 39.0166L104.511 24.6047L99.1669 24.6163ZM114.467 38.9951L114.438 25.9042L117.958 25.8965L117.963 28.1806L118.099 28.1803C118.336 27.3673 118.736 26.7528 119.297 26.3368C119.859 25.9151 120.506 25.7035 121.239 25.7019C121.421 25.7015 121.617 25.7124 121.827 25.7347C122.037 25.757 122.222 25.7878 122.381 25.8273L122.388 29.0488C122.218 28.9981 121.982 28.9531 121.681 28.914C121.379 28.8749 121.104 28.8556 120.854 28.8562C120.32 28.8573 119.843 28.9748 119.423 29.2087C119.008 29.4369 118.68 29.7558 118.436 30.1654C118.198 30.575 118.08 31.0468 118.081 31.5809L118.097 38.9872L114.467 38.9951ZM126.938 43.8771C126.477 43.8781 126.045 43.8421 125.642 43.7691C125.244 43.7018 124.914 43.6144 124.653 43.507L125.465 40.795C125.891 40.9248 126.275 40.995 126.616 41.0056C126.963 41.0162 127.261 40.936 127.51 40.765C127.766 40.594 127.972 40.3038 128.131 39.8943L128.342 39.3399L123.617 25.8842L127.435 25.8759L130.166 35.4837L130.303 35.4834L133.018 25.8638L136.861 25.8555L131.805 40.3722C131.562 41.0772 131.231 41.6916 130.812 42.2152C130.398 42.7445 129.873 43.1519 129.238 43.4374C128.602 43.7286 127.835 43.8751 126.938 43.8771ZM147.379 38.9235L143.425 38.9321L149.412 21.4645L154.168 21.4542L160.223 38.8956L156.268 38.9042L151.867 25.4479L151.731 25.4482L147.379 38.9235ZM147.117 32.0633L156.458 32.043L156.464 34.9237L147.123 34.944L147.117 32.0633ZM167.555 44.0615C166.379 44.0641 165.37 43.9044 164.529 43.5823C163.693 43.266 163.027 42.8327 162.531 42.2827C162.036 41.7326 161.714 41.114 161.564 40.4268L164.921 39.9678C165.024 40.229 165.187 40.4729 165.409 40.6997C165.631 40.9265 165.924 41.1077 166.288 41.2433C166.657 41.3845 167.106 41.4546 167.635 41.4534C168.425 41.4517 169.075 41.2571 169.585 40.8696C170.101 40.4878 170.359 39.8481 170.357 38.9503L170.351 36.5554L170.198 36.5558C170.04 36.9198 169.802 37.264 169.484 37.5886C169.167 37.9131 168.758 38.1782 168.259 38.3839C167.759 38.5895 167.163 38.6931 166.47 38.6946C165.487 38.6967 164.591 38.4714 163.784 38.0186C162.981 37.5601 162.341 36.8598 161.861 35.9176C161.388 34.9698 161.149 33.7715 161.146 32.3226C161.143 30.8396 161.382 29.6005 161.863 28.6051C162.343 27.6098 162.984 26.864 163.784 26.368C164.59 25.8719 165.473 25.6228 166.433 25.6208C167.166 25.6192 167.78 25.7428 168.275 25.9918C168.769 26.235 169.168 26.541 169.47 26.9096C169.777 27.2726 170.014 27.63 170.179 27.9819L170.316 27.9816L170.311 25.7828L173.916 25.775L173.945 38.9937C173.947 40.1073 173.677 41.0397 173.133 41.7909C172.589 42.5421 171.834 43.1062 170.869 43.4833C169.91 43.8661 168.805 44.0588 167.555 44.0615ZM167.614 35.9648C168.2 35.9635 168.694 35.8176 169.096 35.5269C169.505 35.2306 169.816 34.8094 170.031 34.2635C170.252 33.7119 170.361 33.0526 170.359 32.2855C170.358 31.5185 170.248 30.854 170.031 30.2919C169.814 29.7242 169.5 29.2846 169.091 28.9729C168.681 28.6613 168.183 28.5062 167.598 28.5074C167.002 28.5087 166.499 28.6718 166.091 28.9965C165.682 29.3156 165.374 29.7594 165.165 30.3281C164.956 30.8967 164.852 31.5532 164.854 32.2975C164.855 33.0532 164.962 33.7064 165.173 34.257C165.39 34.802 165.701 35.2246 166.105 35.5249C166.515 35.8195 167.018 35.9661 167.614 35.9648ZM180.567 39.0986C179.732 39.1004 178.987 38.9571 178.333 38.6688C177.679 38.3748 177.161 37.9412 176.779 37.3682C176.403 36.7895 176.214 36.0683 176.212 35.2046C176.211 34.4774 176.343 33.8663 176.609 33.3714C176.875 32.8765 177.237 32.478 177.697 32.1758C178.157 31.8737 178.679 31.6453 179.264 31.4906C179.854 31.3359 180.473 31.2266 181.121 31.1627C181.882 31.0815 182.496 31.0063 182.961 30.9371C183.427 30.8623 183.765 30.7536 183.975 30.6111C184.185 30.4686 184.289 30.2581 184.289 29.9797L184.289 29.9286C184.288 29.3888 184.116 28.9715 183.775 28.6768C183.439 28.3821 182.961 28.2354 182.342 28.2368C181.689 28.2382 181.169 28.3842 180.783 28.6748C180.397 28.9597 180.143 29.3183 180.018 29.7503L176.66 29.4849C176.829 28.6891 177.162 28.0009 177.661 27.4202C178.16 26.8339 178.804 26.3837 179.593 26.0694C180.388 25.7495 181.308 25.5884 182.353 25.5862C183.08 25.5846 183.777 25.6683 184.442 25.8373C185.113 26.0063 185.707 26.2692 186.225 26.6261C186.748 26.9829 187.161 27.4422 187.464 28.004C187.766 28.5602 187.918 29.2275 187.92 30.0059L187.939 38.8354L184.496 38.8429L184.492 37.0276L184.389 37.0278C184.18 37.4373 183.9 37.7987 183.548 38.112C183.196 38.4196 182.774 38.662 182.28 38.8392C181.786 39.0107 181.215 39.0972 180.567 39.0986ZM181.602 36.5907C182.136 36.5895 182.607 36.4834 183.016 36.2723C183.424 36.0555 183.745 35.765 183.977 35.4008C184.209 35.0367 184.325 34.6245 184.324 34.1643L184.321 32.7751C184.207 32.8492 184.051 32.9177 183.852 32.9807C183.659 33.0379 183.441 33.0923 183.196 33.144C182.952 33.19 182.708 33.2331 182.464 33.2734C182.219 33.3081 181.998 33.3398 181.799 33.3686C181.373 33.4321 181.001 33.5323 180.683 33.6694C180.365 33.8064 180.119 33.9916 179.943 34.2249C179.767 34.4526 179.68 34.7369 179.681 35.0778C179.682 35.5721 179.862 35.9496 180.22 36.2101C180.584 36.465 181.045 36.5919 181.602 36.5907ZM190.756 38.8293L190.727 25.7384L194.358 25.7305L194.386 38.8214L190.756 38.8293ZM192.547 24.047C192.008 24.0481 191.544 23.8702 191.157 23.5131C190.775 23.1502 190.584 22.716 190.583 22.2103C190.582 21.7103 190.771 21.2809 191.151 20.9222C191.537 20.5577 192 20.3749 192.539 20.3737C193.079 20.3725 193.54 20.5533 193.921 20.9161C194.308 21.2733 194.502 21.7018 194.504 22.2018C194.505 22.7075 194.312 23.1426 193.927 23.507C193.547 23.8658 193.087 24.0458 192.547 24.047ZM200.909 31.239L200.925 38.8072L197.295 38.8151L197.266 25.7242L200.726 25.7167L200.731 28.0264L200.885 28.026C201.173 27.264 201.657 26.6607 202.338 26.216C203.019 25.7657 203.845 25.5395 204.817 25.5374C205.726 25.5354 206.519 25.7325 207.196 26.1288C207.873 26.525 208.4 27.0921 208.776 27.8299C209.153 28.562 209.342 29.4366 209.345 30.4537L209.363 38.7889L205.732 38.7968L205.715 31.1093C205.719 30.3081 205.513 29.6836 205.098 29.2356C204.682 28.782 204.11 28.5559 203.383 28.5575C202.895 28.5586 202.463 28.6646 202.088 28.8757C201.72 29.0867 201.43 29.3942 201.221 29.798C201.017 30.1962 200.913 30.6765 200.909 31.239Z" fill="white"/>
<rect x="75.0703" y="-36.7617" width="20" height="154" transform="rotate(35.0791 75.0703 -36.7617)" fill="white" fill-opacity="0.15"/>
<rect x="108.07" y="-36.7617" width="14.1191" height="154" transform="rotate(35.0791 108.07 -36.7617)" fill="white" fill-opacity="0.15"/>
</g>
<defs>
<clipPath id="clip0_1514_9391">
<rect width="307" height="59" rx="6.24" fill="white"/>
</clipPath>
</defs>
</svg>
